M48
;Layer_Color=9474304
;FILE_FORMAT=2:5
INCH,LZ
;TYPE=PLATED
T1F00S00C0.00787
T2F00S00C0.01575
T3F00S00C0.03543
T4F00S00C0.03937
T5F00S00C0.04724
T6F00S00C0.16614
;TYPE=NON_PLATED
T7F00S00C0.03937
T8F00S00C0.04535
T9F00S00C0.07874
%
T01
X0146061Y0011628
X0148493Y0012233
X015642Y0011504
X0158781Y0011694
X0160966Y0011632
X0164115Y0011625
X0166407Y0011675
X0168671Y0013516
X0163525Y0015099
X0160228Y001624
X0158936Y0024818
X0156337Y002477
X0148564Y0024837
X0146063Y0025001
X0146083Y0043273
X0148689
X0156431Y0043357
X0158954Y0043384
X0158479Y0046142
X0165627Y0046977
X0166051Y0043869
X0168314Y0044413
X0171028Y0047297
X0172975Y0045682
X0173168Y0043525
X0173574Y0049205
X0172396Y0052428
X017259Y0054601
X0170398Y0054884
X0169125Y0056756
X0165975Y0057074
X0172141Y005775
X0159039Y0057086
X015644Y0057038
X0156176Y0054702
X0148667Y0057105
X0146166Y0057269
X0148596Y0075369
X0156337Y0075453
X015886Y007548
X0166545Y0075453
X0169275Y0077789
X0164351Y0080094
X0165418Y008622
X0167245Y0088048
X015897Y0088835
X0155424Y0080432
X0156544Y0107636
X015913Y0107649
X0167691Y0107567
X0168559Y0111803
X0166433Y0112992
X0168746Y0117317
X0167821Y0119917
X0159206Y0120221
X0156608Y0120173
X0157556Y0117704
X0148835Y012024
X0146334Y0120404
X0146283Y0107552
X0148882Y0107454
X0146286Y0138679
X0146919Y014082
Y0150859
X0158027Y0151049
X015988Y0152169
X0159593Y0149264
X016537Y0145225
X0168964Y0143756
X016702Y0139156
X015932Y0138997
X0158028Y0140768
X0168791Y0151072
X0166526Y0024668
X0140945Y0011829
X0136169Y0011455
X0132558Y0012133
X0135105Y0033228
X0139543Y0078729
X0139676Y0081879
X0141303Y008045
X0141365Y0083697
X013968Y0085173
X0139279Y0088323
X014215Y0087973
X0145989Y0075369
X0143716Y0106985
X0141666Y0109593
X0142179Y0112743
X0141189Y0115892
X0139447Y0117467
X013938Y0114317
X0139324Y0111168
X0139282Y0108018
X0139721Y0120617
X0141394Y0119042
X0139004Y0129815
X013895Y0138857
X0139895Y014119
X0141667Y015292
X0145801Y0152714
X0133291Y0160559
X0129792Y0160159
X0103755Y0103298
X0097183Y0015228
X0129736Y0162324
X0131702Y0163231
X0134465Y0163708
X013374Y0165782
X013554Y016708
X0134512Y0169158
X0137422Y0169652
X0138736Y0171403
X0136713Y0172802
X0138357Y0174603
X0136334Y0175952
X0137496Y0177784
X0135356Y0179114
X0130974Y0179046
X0131055Y0182264
X0130268Y0184443
X0132884Y0181097
X0145624Y0184957
X0145724Y0171194
X0144291Y0202693
X0144268Y0208255
X0142335Y0223735
X0144365Y023232
X0144349Y0235458
X0141614Y0245783
X0142548Y0254572
X0144012Y0262712
X0142044Y0275497
X0142113Y02948
X0145206Y0292974
X014213Y0306225
X0146917Y0294552
X0150048Y0295546
X0152004Y0296521
X0154749Y0297707
X01572Y0298701
X015948Y0299605
X0162161Y0300508
X0173Y0305441
X0176328Y0297052
X017759Y0294626
X0184471Y0292773
X0184696Y0290615
X0185633Y028864
X0184762Y0286657
X0185644Y0284679
X0184863Y028266
X018565Y0280642
X0184579Y027876
X0185633Y0276842
X0184581Y0274949
X0185633Y0273003
X0184523Y0269008
X0185633Y0263188
X0184753Y026121
X0185633Y0259217
X0184834Y0257179
X0185633Y0253322
X0184732Y0251261
X0185633Y0249292
X0184786Y02473
X0185152Y0242638
X0185134Y0240092
X0184961Y0237933
X0185073Y0235634
X018485Y0233481
X0185312Y0231365
X0184852Y0229249
X0185147Y0227104
X0184943Y0224949
X0190377Y0221963
X0192298Y0223069
X0194303Y0222071
X0196332Y0222827
X0198238Y0221799
X0200182Y0222977
X0202129Y0222029
X0204128Y0223125
X0206142Y0221916
X0208067Y0223004
X0210061Y0221842
X0214039Y0223209
X0215972Y0222233
X0219875Y0223354
X0221877Y0222215
X022384Y022316
X0229754Y0221809
X0231913Y0215238
X0217935
X0210828Y020684
X0208566
X0200896Y021452
X0197439Y0214476
X0194047
X0177012Y0217187
X0176943Y0219819
X0173075Y0227696
X0176552Y0243356
X0167543Y0250751
X0162112Y0240075
X0159521Y0239204
X0157055Y0238259
X0154425Y0236822
X015186Y0235877
X0149282Y0234935
X0147189Y0233833
X0146701Y0209392
X0149308Y0210376
X015216Y0211078
X0154484Y0212296
X0157163Y0213352
X0159387Y0214225
X016199Y0215531
X0162089Y0209663
X0160023Y0208822
X0157548Y0208073
X0154862Y0207103
X0152668Y0206235
X0149427Y0205073
X0146639Y0203915
X0146919Y0183222
Y0173
X0157876Y0173051
X0158904Y0171145
X0167432Y0171987
X0168115Y0174459
X0168118Y0177207
X0167196Y0184145
X0159125Y0184592
X0157834Y0182842
X018454Y0182603
X0197661Y0183234
Y0181426
X0219963Y0197246
X0228932Y0200851
X0247409Y018942
X0249166Y0188154
X025875Y0206559
X0258699Y0213465
X0252976Y0222228
X0242937Y0222166
X0240531Y0222195
X0261118Y0225756
X0259564Y022745
X026094Y0229876
X0259634Y0231603
X0261012Y023385
X0259519Y0235425
X0260625Y0237394
X0259374Y0239417
X026066Y024124
X0259816Y0243485
X026066Y024557
Y0248079
X0260122Y0253191
X0261076Y025532
X026066Y0258929
X0260933Y0261134
Y0265047
X0259633Y0269052
X0260655Y0270961
X025964Y0272891
X026066Y0275276
X0273Y0270558
X0273142Y0257928
X0271122Y0258256
X0269398Y0251233
X0269993Y0242574
X0284037Y0226645
X02961Y026395
X0301567Y0263635
X0277641Y0287321
X026969Y0292932
X0276754Y0301151
X0257313Y0298491
X0251498Y0297946
X0249439Y0298676
X0247701Y0297168
X0245537Y0297246
X0243599Y0298211
X0241439Y0298373
X0239478Y0297455
X0237361Y0297951
X0231915Y0297958
X0229769Y0297669
X0227604Y0297668
X0225438Y0297691
X0222369Y0298062
X022021Y0297902
X0219844Y0294035
X0217908Y0294073
X0216438Y0295971
X021201Y0297896
X0210082Y0296909
X0208156Y0297945
X0206134Y0296777
X0200156Y0298207
X0198278Y0296872
X019628Y0298376
X0194756Y0296834
X0188087Y0297193
X0188383Y0295029
X0188605Y029253
X0191734Y0306162
X0187372Y0311491
X0190622Y0318126
X0176348Y0314433
X0176427Y0279371
X0176838Y0276702
X0176727Y0266254
X0166845Y0269207
X0162307Y0270231
X0159583Y0269733
X0157215Y0268384
X0154526Y02674
X0151669Y0266416
X0149187Y0265432
X014702Y0264181
X0161433Y0273374
X0167972Y0280351
X0208597Y0308756
X0211473Y0308742
X0213473Y0306405
X0220402Y0306099
X0235605Y0305912
X0237036Y0313918
X0234865Y0315449
X0247643Y0314448
X0249182Y0316833
X0258232Y0314239
X0259938Y0317736
X0166047Y021296
X0164784Y0210648
X033062Y0306433
X0328752Y0318789
X0320762Y0324399
X0310929Y0320167
X0302743Y0332545
X0309911Y0340193
X0310787Y0344693
X0320609Y0344319
X0320103Y0340017
X032443Y0369459
X0324096Y0378197
X0304944Y0382987
X0303477Y0365226
X0300846Y0365218
X0296718Y0371104
X029214Y0371004
X0300705Y0344392
X0295499Y0333223
X0292675Y0332609
X0291054Y0335031
X0278366Y0334928
X0271196Y0334775
X0271183Y0320859
X0261072Y0321018
X0257205Y0331764
X025074Y0331079
X0261199Y0344302
X0258168Y0360912
X0257848Y0373517
X0257834Y0375147
X025782Y0376804
X0259182Y037599
X0259196Y0374332
X0249305Y0370842
X0242166Y0365336
X024013Y0365322
X023613Y0371154
X0230948
X0246561Y0358994
X0224828Y0332752
X0205906Y0332887
X0198145Y0333363
X0191953Y0333524
X0191606Y0321948
X0200776Y0321316
X0180649Y032069
X0179005Y0324721
X0170565Y0324816
X0149794Y0324284
X0150258Y03406
X0147811Y0346516
X0147779Y0348259
X0159562Y034039
X0168321Y0344131
X0178156Y0344167
X0188283Y034453
X0200949Y0344349
X0196839Y0357837
X0188498Y035821
X0188406Y0370445
X0193755Y0370425
X0200977Y0375701
X0203093Y037569
X0205301Y0375648
X0207487Y0375575
X0164216Y0365433
X0164222Y0363312
X0162886Y0364382
X0161534Y0365419
X0161584Y036328
X0170615Y035622
X0155464Y0379025
X0281134Y0344621
X0290999Y0320594
X0300705Y0320112
X0139816Y0340249
X0139788Y0346621
Y034827
X0141531Y0348259
X0141522Y0346629
X0138047Y0346657
X0138034Y0348291
X0135788Y0348778
X0133539Y0348862
X0131628Y0348249
X0131691Y0346537
X0125032Y0352935
X0120991Y0363847
X0113963Y0361181
X0113577Y037658
X0143649Y0348814
X0145802Y0348838
T02
X0172083Y0006981
X0179957
X0132713
X0124839
X0116965
X0109091
X0101217
X0093343
Y0022728
X009728Y0030602
X0089406
X009728Y004635
X0101217Y0054225
X0093343
Y0069973
X0101217
X0113028Y0077847
Y0062099
Y004635
X0124839Y0038476
X0132713
X013665Y0030602
X0128776
X0109091Y0022728
X0113028Y0014854
X005791
X0053973Y0022728
X005791Y0030602
X0053973Y0038476
X005791Y004635
X0053973Y0054225
X005791Y0062099
X0053973Y0069973
X005791Y0077847
X0053973Y0085721
X005791Y0093595
X0053973Y0101469
X005791Y0109343
X0053973Y0117217
X005791Y0125091
X0053973Y0132965
X005791Y0140839
X0053973Y0148713
X005791Y0156587
X0113028Y0125091
X0120902
X0124839Y0117217
X0132713
X013665Y0125091
Y0093595
Y0062099
X0093343Y0085721
X0116965Y0164461
X0128776Y0188083
X005791
X0053973Y0195957
X005791Y0203831
X0053973Y0211705
X005791Y0219579
X0053973Y0227453
X005791Y0235327
X0053973Y0243201
X005791Y0251075
X0061847Y0258949
X0053973
X005791Y0266823
X0053973Y0274697
X005791Y0282571
X0053973Y0290445
X005791Y0298319
X0053973Y0306193
X005791Y0314067
X0093343Y0290445
X0101217
X0109091
X0053973Y0180209
X005791Y0172335
X0053973Y0164461
X0183894Y0219579
X0199642Y0235327
X0207516
X021539
X0223264
X0231138
X0239012
X0242949Y0243201
X0250823
X0246886Y0251075
X0239012
X0231138
X0223264
X021539
X0207516
X0199642
X0203579Y0258949
X0211453
X0219327
X0227201
X0235075
X0242949
X0250823
X0246886Y0266823
X0239012
X0231138
X0223264
X021539
X0207516
X0199642
X0203579Y0274697
X0211453
X0219327
X0227201
X0235075
X0242949
X0250823
X0246886Y0282571
X0239012
X0231138
X0223264
X021539
X0207516
X0199642
X0203579Y0290445
X0195705
Y0274697
Y0258949
Y0243201
X0203579
X0211453
X0219327
X0227201
X0235075
X0270508Y0235327
X029413Y0251075
X0298067Y0274697
X0302005Y0282571
X029413
X0286257
X029413Y0298319
X0278382
X0262634
X025476Y0188083
X0250823Y0180209
X0242949
X017602Y0251075
X0309878Y0298319
X0313815Y0306193
X0317753Y0314067
X0325627
X0333501
Y0298319
X0341375
X0349249
X0345312Y0306193
X0309878Y0314067
X0329564Y0321941
Y0337689
X0333501Y0345563
X0337438Y0353437
X0345312
X0349249Y0361311
X0341375
X0333501
X0337438Y0369185
X0345312
X0341375Y0377059
X0333501
X0309878Y0361311
X0313815Y0353437
X0305942
X0298067
X0290194
X0278382Y0361311
X0282319Y0369185
X0266571
X0258697Y0353437
X0250823
X0242949
X0235075
X0227201
Y0369185
X0219327
X0203579
X0199642Y0361311
X0195705Y0353437
X0187831
X0179957
X0183894Y0361311
Y0377059
X017602
X0168146Y0361311
X0164209Y0353437
X0156335
X0160272Y0345563
Y0329815
X0219327Y0337689
Y0321941
X0239012Y0345563
X0250823Y0337689
X0278382Y0329815
X0140587Y0321941
X0124839Y0369185
X0053973
X005791Y0377059
Y0361311
X0053973Y0353437
X005791Y0345563
X0053973Y0337689
X005791Y0329815
X0053973Y0321941
T03
X0288837Y022913
X0298837
Y023913
X0288837
Y024913
X0298837
Y025913
X0288837
Y026913
X0298837
X029912Y0287952
X030912
X031912
X032912
X033912
X034912
T04
X0071653Y0005039
X0086614
Y0015039
Y0025039
Y0035039
Y0045039
Y0055039
Y0065039
Y0075039
Y0085039
Y0095039
Y0105039
Y0115039
Y0125039
Y0135039
Y0145039
Y0155039
X0079134Y0160039
Y0150039
Y0140039
Y0130039
Y0120039
Y0110039
Y0100039
Y0090039
Y0080039
Y0070039
Y0060039
Y0050039
Y0040039
Y0030039
Y0020039
Y0010039
X0071653Y0015039
Y0025039
Y0035039
Y0045039
Y0055039
Y0065039
Y0075039
Y0085039
Y0095039
Y0105039
Y0115039
Y0125039
Y0135039
Y0145039
Y0155039
X0064173Y0160039
Y0150039
Y0140039
Y0130039
Y0120039
Y0110039
Y0100039
Y0090039
Y0080039
Y0070039
Y0060039
Y0050039
Y0040039
Y0030039
Y0020039
Y0010039
Y0170039
Y0180039
Y0190039
Y0200039
Y0210039
Y0220039
Y0230039
Y0240039
Y0250039
X0071653Y0245039
Y0235039
Y0225039
Y0215039
Y0205039
Y0195039
Y0185039
Y0175039
Y0165039
X0079134Y0170039
Y0180039
Y0190039
Y0200039
Y0210039
Y0220039
Y0230039
Y0240039
Y0250039
X0086614Y0245039
Y0235039
Y0225039
Y0215039
Y0205039
Y0195039
Y0185039
Y0175039
Y0165039
Y0265039
Y0275039
Y0285039
Y0295039
Y0305039
Y0315039
X0079134Y0310039
Y0300039
Y0290039
Y0280039
Y0270039
X0071653Y0265039
Y0275039
Y0285039
Y0295039
Y0305039
Y0315039
X0064173Y0310039
Y0300039
Y0290039
Y0280039
Y0270039
Y0320039
Y0330039
Y0340039
Y0350039
Y0360039
Y0370039
Y0380039
X0071653Y0375039
Y0365039
Y0355039
Y0345039
Y0335039
Y0325039
X0079134Y0330039
Y0340039
Y0350039
Y0360039
Y0370039
Y0380039
X0086614Y0375039
Y0365039
Y0355039
Y0345039
Y0335039
Y0325039
X0079134Y0320039
X0086614Y0385039
X0071653
T05
X0139235Y0353462
X0139091Y0382804
T06
X011562Y0139827
X0343966Y033274
X011562
T07
X0338966Y0303567
X0348966
Y0313567
X0338943Y0313546
X032483Y032774
Y033774
X031483
X030483
Y032774
X031483
X029483
X028483
X027483
X026483
X025483
X024483
X023483
X022483
X021483
X020483
X019483
X018483
X017483
X016483
X015483
Y033774
X016483
X017483
X018483
X019483
X020483
X021483
X022483
X023483
X024483
X025483
X026483
X027483
X028483
X029483
X014483
X013483
X0134745Y0327735
X014483Y032774
T08
X0051859Y0007937
X0351483Y0380095
X0052022Y0382031
T09
X0309825Y0332783
X0319825Y0332783
X0149825Y0332783
X0139825Y0332783
M30
