G04*
G04 #@! TF.GenerationSoftware,Altium Limited,Altium Designer,22.6.1 (34)*
G04*
G04 Layer_Color=8421504*
%FSLAX25Y25*%
%MOIN*%
G70*
G04*
G04 #@! TF.SameCoordinates,5882E60C-0619-4AF0-9705-53F345807C1B*
G04*
G04*
G04 #@! TF.FilePolarity,Positive*
G04*
G01*
G75*
%ADD15O,0.00984X0.04724*%
%ADD16O,0.04724X0.00984*%
%ADD17O,0.01378X0.06693*%
%ADD18R,0.08661X0.07874*%
%ADD19R,0.12992X0.09449*%
%ADD20R,0.03937X0.09449*%
%ADD21R,0.03458X0.07316*%
%ADD22R,0.03477X0.06548*%
%ADD23R,0.02362X0.04528*%
%ADD24R,0.05118X0.02362*%
%ADD25R,0.03150X0.03543*%
%ADD26R,0.02362X0.05118*%
%ADD27R,0.03150X0.02559*%
%ADD28R,0.03150X0.01968*%
%ADD29R,0.03937X0.04921*%
%ADD30R,0.03543X0.03150*%
%ADD31R,0.01181X0.06496*%
%ADD32R,0.02559X0.03150*%
%ADD33R,0.01968X0.03150*%
G36*
X346210Y344057D02*
X348076Y343520D01*
X349825Y342679D01*
X351409Y341556D01*
X352782Y340183D01*
X353905Y338599D01*
X354746Y336850D01*
X355283Y334984D01*
X355391Y334020D01*
X355391Y334020D01*
X351336D01*
X351217Y334581D01*
X350850Y335666D01*
X350323Y336684D01*
X349646Y337608D01*
X348835Y338419D01*
X347911Y339096D01*
X346894Y339624D01*
X345808Y339990D01*
X345247Y340110D01*
X345247Y340110D01*
X345246D01*
X345246Y344165D01*
X346210Y344057D01*
D02*
G37*
G36*
X342687Y344165D02*
Y340110D01*
X342126Y339991D01*
X341040Y339625D01*
X340023Y339097D01*
X339098Y338420D01*
X338288Y337610D01*
X337611Y336685D01*
X337083Y335668D01*
X336716Y334582D01*
X336596Y334021D01*
Y334021D01*
Y334020D01*
X332542Y334020D01*
X332650Y334984D01*
X333186Y336850D01*
X334028Y338599D01*
X335151Y340183D01*
X336524Y341556D01*
X338107Y342679D01*
X339856Y343520D01*
X341722Y344057D01*
X342687Y344165D01*
Y344165D01*
D02*
G37*
G36*
X117864Y344057D02*
X119730Y343520D01*
X121479Y342679D01*
X123062Y341556D01*
X124435Y340183D01*
X125558Y338599D01*
X126400Y336850D01*
X126936Y334984D01*
X127044Y334020D01*
X127044Y334020D01*
X122990D01*
X122870Y334581D01*
X122504Y335666D01*
X121976Y336684D01*
X121299Y337608D01*
X120489Y338419D01*
X119564Y339096D01*
X118547Y339624D01*
X117461Y339990D01*
X116901Y340110D01*
X116901Y340110D01*
X116899D01*
X116899Y344165D01*
X117864Y344057D01*
D02*
G37*
G36*
X114340Y344165D02*
Y340110D01*
X113779Y339991D01*
X112694Y339625D01*
X111676Y339097D01*
X110752Y338420D01*
X109941Y337610D01*
X109264Y336685D01*
X108736Y335668D01*
X108370Y334582D01*
X108250Y334021D01*
Y334021D01*
Y334020D01*
X104195Y334020D01*
X104303Y334984D01*
X104840Y336850D01*
X105681Y338599D01*
X106805Y340183D01*
X108177Y341556D01*
X109761Y342679D01*
X111510Y343520D01*
X113376Y344057D01*
X114340Y344165D01*
Y344165D01*
D02*
G37*
G36*
X355283Y330496D02*
X354746Y328630D01*
X353905Y326881D01*
X352782Y325298D01*
X351409Y323925D01*
X349825Y322802D01*
X348076Y321960D01*
X346210Y321424D01*
X345246Y321316D01*
X345246D01*
Y325370D01*
X345807Y325490D01*
X346892Y325856D01*
X347910Y326384D01*
X348834Y327061D01*
X349645Y327871D01*
X350322Y328796D01*
X350850Y329813D01*
X351216Y330899D01*
X351336Y331459D01*
X351336D01*
Y331461D01*
X355391D01*
X355283Y330496D01*
D02*
G37*
G36*
X336716Y330900D02*
X337082Y329814D01*
X337610Y328797D01*
X338287Y327872D01*
X339097Y327062D01*
X340022Y326385D01*
X341039Y325857D01*
X342125Y325490D01*
X342685Y325370D01*
X342687D01*
Y321316D01*
X341722Y321424D01*
X339856Y321960D01*
X338107Y322802D01*
X336524Y323925D01*
X335151Y325298D01*
X334028Y326881D01*
X333186Y328630D01*
X332650Y330496D01*
X332542Y331461D01*
X336596D01*
X336716Y330900D01*
D02*
G37*
G36*
X126936Y330496D02*
X126400Y328630D01*
X125558Y326881D01*
X124435Y325298D01*
X123062Y323925D01*
X121479Y322802D01*
X119730Y321960D01*
X117864Y321424D01*
X116899Y321316D01*
X116899D01*
Y325370D01*
X117460Y325490D01*
X118546Y325856D01*
X119563Y326384D01*
X120488Y327061D01*
X121298Y327871D01*
X121976Y328796D01*
X122503Y329813D01*
X122870Y330899D01*
X122990Y331459D01*
X122990D01*
Y331461D01*
X127044D01*
X126936Y330496D01*
D02*
G37*
G36*
X108369Y330900D02*
X108736Y329814D01*
X109263Y328797D01*
X109940Y327872D01*
X110751Y327062D01*
X111675Y326385D01*
X112692Y325857D01*
X113778Y325490D01*
X114339Y325370D01*
X114340D01*
Y321316D01*
X113376Y321424D01*
X111510Y321960D01*
X109761Y322802D01*
X108177Y323925D01*
X106805Y325298D01*
X105681Y326881D01*
X104840Y328630D01*
X104303Y330496D01*
X104195Y331461D01*
X108250D01*
X108369Y330900D01*
D02*
G37*
G36*
X117864Y151144D02*
X119730Y150607D01*
X121479Y149765D01*
X123062Y148642D01*
X124435Y147269D01*
X125558Y145686D01*
X126400Y143937D01*
X126936Y142071D01*
X127044Y141106D01*
X127044Y141106D01*
X122990D01*
X122870Y141667D01*
X122504Y142753D01*
X121976Y143770D01*
X121299Y144695D01*
X120489Y145505D01*
X119564Y146183D01*
X118547Y146711D01*
X117461Y147077D01*
X116901Y147197D01*
X116901Y147197D01*
X116899D01*
X116899Y151251D01*
X117864Y151144D01*
D02*
G37*
G36*
X114340Y151251D02*
Y147197D01*
X113779Y147077D01*
X112694Y146711D01*
X111676Y146183D01*
X110752Y145506D01*
X109941Y144696D01*
X109264Y143772D01*
X108736Y142754D01*
X108370Y141668D01*
X108250Y141108D01*
Y141108D01*
Y141106D01*
X104195Y141106D01*
X104303Y142071D01*
X104840Y143937D01*
X105681Y145686D01*
X106805Y147269D01*
X108177Y148642D01*
X109761Y149765D01*
X111510Y150607D01*
X113376Y151144D01*
X114340Y151251D01*
Y151251D01*
D02*
G37*
G36*
X126936Y137583D02*
X126400Y135717D01*
X125558Y133968D01*
X124435Y132384D01*
X123062Y131012D01*
X121479Y129888D01*
X119730Y129047D01*
X117864Y128510D01*
X116899Y128402D01*
X116899D01*
Y132457D01*
X117460Y132577D01*
X118546Y132943D01*
X119563Y133470D01*
X120488Y134147D01*
X121298Y134958D01*
X121976Y135882D01*
X122503Y136899D01*
X122870Y137985D01*
X122990Y138546D01*
X122990D01*
Y138547D01*
X127044D01*
X126936Y137583D01*
D02*
G37*
G36*
X108369Y137987D02*
X108736Y136901D01*
X109263Y135883D01*
X109940Y134959D01*
X110751Y134148D01*
X111675Y133471D01*
X112692Y132943D01*
X113778Y132577D01*
X114339Y132457D01*
X114340D01*
Y128402D01*
X113376Y128510D01*
X111510Y129047D01*
X109761Y129888D01*
X108177Y131012D01*
X106805Y132384D01*
X105681Y133968D01*
X104840Y135717D01*
X104303Y137583D01*
X104195Y138547D01*
X108250D01*
X108369Y137987D01*
D02*
G37*
D15*
X257313Y301882D02*
D03*
X255345D02*
D03*
X253376D02*
D03*
X251408D02*
D03*
X249439D02*
D03*
X247471D02*
D03*
X245502D02*
D03*
X243534D02*
D03*
X241565D02*
D03*
X239597D02*
D03*
X237628D02*
D03*
X235660D02*
D03*
X233691D02*
D03*
X231723D02*
D03*
X229754D02*
D03*
X227786D02*
D03*
X225817D02*
D03*
X223849D02*
D03*
X221880D02*
D03*
X219912D02*
D03*
X217943D02*
D03*
X215975D02*
D03*
X214006D02*
D03*
X212038D02*
D03*
X210069D02*
D03*
X208101D02*
D03*
X206132D02*
D03*
X204164D02*
D03*
X202195D02*
D03*
X200226D02*
D03*
X198258D02*
D03*
X196290D02*
D03*
X194321D02*
D03*
X192352D02*
D03*
X190384D02*
D03*
X188416D02*
D03*
Y218418D02*
D03*
X190384D02*
D03*
X192352D02*
D03*
X194321D02*
D03*
X196290D02*
D03*
X198258D02*
D03*
X200226D02*
D03*
X202195D02*
D03*
X204164D02*
D03*
X206132D02*
D03*
X208101D02*
D03*
X210069D02*
D03*
X212038D02*
D03*
X214006D02*
D03*
X215975D02*
D03*
X217943D02*
D03*
X219912D02*
D03*
X221880D02*
D03*
X223849Y218418D02*
D03*
X225817Y218418D02*
D03*
X227786D02*
D03*
X229754D02*
D03*
X231723D02*
D03*
X233691D02*
D03*
X235660D02*
D03*
X237628D02*
D03*
X239597D02*
D03*
X241565D02*
D03*
X243534D02*
D03*
X245502D02*
D03*
X247471D02*
D03*
X249439D02*
D03*
X251408D02*
D03*
X253376D02*
D03*
X255345D02*
D03*
X257313D02*
D03*
D16*
X181132Y294599D02*
D03*
Y292630D02*
D03*
Y290662D02*
D03*
Y288693D02*
D03*
Y286725D02*
D03*
Y284756D02*
D03*
Y282788D02*
D03*
Y280819D02*
D03*
Y278851D02*
D03*
Y276882D02*
D03*
Y274914D02*
D03*
Y272945D02*
D03*
Y270977D02*
D03*
Y269008D02*
D03*
Y267040D02*
D03*
Y265071D02*
D03*
Y263103D02*
D03*
X181132Y261134D02*
D03*
X181132Y259166D02*
D03*
Y257197D02*
D03*
Y255229D02*
D03*
Y253260D02*
D03*
Y251292D02*
D03*
Y249323D02*
D03*
Y247355D02*
D03*
Y245386D02*
D03*
Y243418D02*
D03*
Y241449D02*
D03*
Y239481D02*
D03*
Y237512D02*
D03*
Y235544D02*
D03*
Y233575D02*
D03*
Y231607D02*
D03*
Y229638D02*
D03*
Y227670D02*
D03*
Y225701D02*
D03*
X264597D02*
D03*
Y227670D02*
D03*
Y229638D02*
D03*
Y231607D02*
D03*
Y233575D02*
D03*
Y235544D02*
D03*
Y237512D02*
D03*
Y239481D02*
D03*
Y241449D02*
D03*
Y243418D02*
D03*
Y245386D02*
D03*
Y247355D02*
D03*
Y249323D02*
D03*
Y251292D02*
D03*
Y253260D02*
D03*
Y255229D02*
D03*
Y257197D02*
D03*
Y259166D02*
D03*
Y261134D02*
D03*
Y263103D02*
D03*
Y265071D02*
D03*
Y267040D02*
D03*
Y269008D02*
D03*
Y270977D02*
D03*
Y272945D02*
D03*
Y274914D02*
D03*
Y276882D02*
D03*
Y278851D02*
D03*
Y280819D02*
D03*
Y282788D02*
D03*
Y284756D02*
D03*
Y286725D02*
D03*
Y288693D02*
D03*
Y290662D02*
D03*
Y292630D02*
D03*
Y294599D02*
D03*
D17*
X169094Y29349D02*
D03*
X166535Y29349D02*
D03*
X163976Y29349D02*
D03*
X161417Y29349D02*
D03*
X158858Y29349D02*
D03*
X156299D02*
D03*
X153740D02*
D03*
X151181D02*
D03*
X148622D02*
D03*
X146063D02*
D03*
X143504D02*
D03*
X140945D02*
D03*
X169094Y6908D02*
D03*
X166535Y6908D02*
D03*
X163976Y6908D02*
D03*
X161417Y6908D02*
D03*
X158858Y6908D02*
D03*
X156299D02*
D03*
X153740D02*
D03*
X151181D02*
D03*
X148622D02*
D03*
X146063D02*
D03*
X143504D02*
D03*
X140945D02*
D03*
X141021Y38978D02*
D03*
X143580D02*
D03*
X146139D02*
D03*
X148698D02*
D03*
X151257D02*
D03*
X153816D02*
D03*
X156375D02*
D03*
X158934D02*
D03*
X161494Y38978D02*
D03*
X164053Y38978D02*
D03*
X166612Y38978D02*
D03*
X169171Y38978D02*
D03*
X141021Y61418D02*
D03*
X143580D02*
D03*
X146139D02*
D03*
X148698D02*
D03*
X151257D02*
D03*
X153816D02*
D03*
X156375D02*
D03*
X158934D02*
D03*
X161494Y61418D02*
D03*
X164053Y61418D02*
D03*
X166612Y61418D02*
D03*
X169171Y61418D02*
D03*
X141021Y70894D02*
D03*
X143580D02*
D03*
X146139D02*
D03*
X148698D02*
D03*
X151257D02*
D03*
X153816D02*
D03*
X156375D02*
D03*
X158934D02*
D03*
X161494Y70894D02*
D03*
X164053Y70894D02*
D03*
X166612Y70894D02*
D03*
X169171Y70894D02*
D03*
X141021Y93335D02*
D03*
X143580D02*
D03*
X146139D02*
D03*
X148698D02*
D03*
X151257D02*
D03*
X153816D02*
D03*
X156375D02*
D03*
X158934D02*
D03*
X161494Y93335D02*
D03*
X164053Y93335D02*
D03*
X166612Y93335D02*
D03*
X169171Y93335D02*
D03*
X141197Y102738D02*
D03*
X143756D02*
D03*
X146315D02*
D03*
X148874D02*
D03*
X151433D02*
D03*
X153992D02*
D03*
X156551D02*
D03*
X159110D02*
D03*
X161670Y102738D02*
D03*
X164229Y102738D02*
D03*
X166788Y102738D02*
D03*
X169347Y102738D02*
D03*
X141197Y125179D02*
D03*
X143756D02*
D03*
X146315D02*
D03*
X148874D02*
D03*
X151433D02*
D03*
X153992D02*
D03*
X156551D02*
D03*
X159110D02*
D03*
X161670Y125179D02*
D03*
X164229Y125179D02*
D03*
X166788Y125179D02*
D03*
X169347Y125179D02*
D03*
X141386Y134484D02*
D03*
X143945D02*
D03*
X146504D02*
D03*
X149063D02*
D03*
X151622D02*
D03*
X154181D02*
D03*
X156740D02*
D03*
X159299D02*
D03*
X161858Y134484D02*
D03*
X164418Y134484D02*
D03*
X166976Y134484D02*
D03*
X169536Y134484D02*
D03*
X141386Y156925D02*
D03*
X143945D02*
D03*
X146504D02*
D03*
X149063D02*
D03*
X151622D02*
D03*
X154181D02*
D03*
X156740D02*
D03*
X159299D02*
D03*
X161858Y156925D02*
D03*
X164418Y156925D02*
D03*
X166976Y156925D02*
D03*
X169536Y156925D02*
D03*
X141394Y166625D02*
D03*
X143953D02*
D03*
X146512D02*
D03*
X149071D02*
D03*
X151630D02*
D03*
X154189D02*
D03*
X156748D02*
D03*
X159307D02*
D03*
X161866Y166625D02*
D03*
X164425Y166625D02*
D03*
X166984Y166625D02*
D03*
X169544Y166625D02*
D03*
X141394Y189066D02*
D03*
X143953D02*
D03*
X146512D02*
D03*
X149071D02*
D03*
X151630D02*
D03*
X154189D02*
D03*
X156748D02*
D03*
X159307D02*
D03*
X161866Y189066D02*
D03*
X164425Y189066D02*
D03*
X166984Y189066D02*
D03*
X169544Y189066D02*
D03*
D18*
X191334Y376572D02*
D03*
Y364761D02*
D03*
X294940Y377029D02*
D03*
Y365218D02*
D03*
X251920Y364848D02*
D03*
Y376659D02*
D03*
X234224Y377133D02*
D03*
Y365322D02*
D03*
X146500Y373905D02*
D03*
Y362094D02*
D03*
X131500Y373905D02*
D03*
Y362094D02*
D03*
D19*
X212870Y382474D02*
D03*
X273560Y382559D02*
D03*
D20*
X221925Y359639D02*
D03*
X212870D02*
D03*
X203815D02*
D03*
X264505Y359725D02*
D03*
X273560D02*
D03*
X282615D02*
D03*
D21*
X244825Y344595D02*
D03*
X254825D02*
D03*
X264825D02*
D03*
X274825D02*
D03*
X284825D02*
D03*
X294825D02*
D03*
X304825D02*
D03*
X314825D02*
D03*
X324825Y344595D02*
D03*
X144825Y344595D02*
D03*
X134825D02*
D03*
X154825D02*
D03*
X164825D02*
D03*
X174825D02*
D03*
X184825D02*
D03*
X194825D02*
D03*
X204825D02*
D03*
X214825D02*
D03*
X224825D02*
D03*
X234825D02*
D03*
D22*
X164825Y320972D02*
D03*
X244825D02*
D03*
X234825D02*
D03*
X224825D02*
D03*
X214825D02*
D03*
X204825D02*
D03*
X194825D02*
D03*
X184825D02*
D03*
X174825D02*
D03*
X324825Y320972D02*
D03*
X314825Y320972D02*
D03*
X304825D02*
D03*
X284825D02*
D03*
X274825D02*
D03*
X264825D02*
D03*
X254825D02*
D03*
X294825D02*
D03*
X134825D02*
D03*
X144825D02*
D03*
X154825D02*
D03*
D23*
X166600Y377707D02*
D03*
X159120D02*
D03*
X162860Y368848D02*
D03*
D24*
X276553Y305486D02*
D03*
Y312966D02*
D03*
X268285Y309226D02*
D03*
D25*
X233744Y309500D02*
D03*
X239256D02*
D03*
X100265Y103289D02*
D03*
X94753D02*
D03*
X288078Y293036D02*
D03*
X282567D02*
D03*
X288028Y287557D02*
D03*
X282517D02*
D03*
X188537Y205416D02*
D03*
X194049D02*
D03*
X262255Y309246D02*
D03*
X256743D02*
D03*
X179573Y314218D02*
D03*
X185085D02*
D03*
X179577Y359968D02*
D03*
X174065D02*
D03*
X163450Y359924D02*
D03*
X157938D02*
D03*
X165582Y383029D02*
D03*
X160070D02*
D03*
X232150Y210257D02*
D03*
X226638D02*
D03*
X232131Y205236D02*
D03*
X226619D02*
D03*
X255244Y210000D02*
D03*
X260756D02*
D03*
X188451Y210619D02*
D03*
X193963D02*
D03*
X216319Y309487D02*
D03*
X221831D02*
D03*
X188813Y181871D02*
D03*
X194325D02*
D03*
X215210Y210422D02*
D03*
X209698D02*
D03*
D26*
X107304Y352868D02*
D03*
X114785D02*
D03*
X111045Y361136D02*
D03*
X107216Y368233D02*
D03*
X114696D02*
D03*
X110956Y376501D02*
D03*
X289280Y304160D02*
D03*
X296760D02*
D03*
X293020Y312428D02*
D03*
X302772Y304280D02*
D03*
X310253D02*
D03*
X306512Y312548D02*
D03*
X175849Y369161D02*
D03*
X172109Y377429D02*
D03*
X179590D02*
D03*
D27*
X311968Y370649D02*
D03*
X304882Y370650D02*
D03*
X311969Y380097D02*
D03*
X304882Y380098D02*
D03*
X97447Y168608D02*
D03*
X104533Y168608D02*
D03*
X97446Y159160D02*
D03*
X104533Y159160D02*
D03*
X97457Y185224D02*
D03*
X104544Y185224D02*
D03*
X97456Y175776D02*
D03*
X104543Y175776D02*
D03*
X97447Y201893D02*
D03*
X104533Y201892D02*
D03*
X97446Y192445D02*
D03*
X104533Y192445D02*
D03*
X97447Y251728D02*
D03*
X104533Y251728D02*
D03*
X97446Y242280D02*
D03*
X104533Y242280D02*
D03*
X97447Y268314D02*
D03*
X104533Y268313D02*
D03*
X97446Y258865D02*
D03*
X104533Y258865D02*
D03*
X97447Y218444D02*
D03*
X104533Y218444D02*
D03*
X97446Y208996D02*
D03*
X104533Y208996D02*
D03*
X97447Y284878D02*
D03*
X104533Y284878D02*
D03*
X97446Y275430D02*
D03*
X104533Y275430D02*
D03*
X97447Y235091D02*
D03*
X104533Y235091D02*
D03*
X97446Y225643D02*
D03*
X104533Y225643D02*
D03*
D28*
X311968Y373798D02*
D03*
X304882Y373798D02*
D03*
X311968Y376948D02*
D03*
X304882Y376948D02*
D03*
X97447Y165460D02*
D03*
X104533Y165459D02*
D03*
X97447Y162310D02*
D03*
X104533Y162309D02*
D03*
X97457Y182075D02*
D03*
X104543Y182075D02*
D03*
X97457Y178925D02*
D03*
X104543Y178925D02*
D03*
X97447Y198744D02*
D03*
X104533Y198743D02*
D03*
X97447Y195594D02*
D03*
X104533Y195594D02*
D03*
X97447Y248579D02*
D03*
X104533Y248579D02*
D03*
X97447Y245429D02*
D03*
X104533Y245429D02*
D03*
X97447Y265164D02*
D03*
X104533Y265164D02*
D03*
X97447Y262015D02*
D03*
X104533Y262014D02*
D03*
X97447Y215295D02*
D03*
X104533Y215295D02*
D03*
X97447Y212145D02*
D03*
X104533Y212145D02*
D03*
X97447Y281729D02*
D03*
X104533Y281729D02*
D03*
X97447Y278579D02*
D03*
X104533Y278579D02*
D03*
X97447Y231942D02*
D03*
X104533Y231942D02*
D03*
X97447Y228792D02*
D03*
X104533Y228792D02*
D03*
D29*
X319963Y353891D02*
D03*
X328624D02*
D03*
X319963Y363640D02*
D03*
X328624D02*
D03*
X319963Y373283D02*
D03*
X328624D02*
D03*
X319963Y382945D02*
D03*
X328624D02*
D03*
D30*
X120799Y358565D02*
D03*
Y353053D02*
D03*
X121057Y372792D02*
D03*
Y367280D02*
D03*
X196368Y309287D02*
D03*
Y314799D02*
D03*
X190512Y314817D02*
D03*
Y309305D02*
D03*
X221840Y210603D02*
D03*
Y205091D02*
D03*
X273000Y267256D02*
D03*
Y261744D02*
D03*
X173190Y271081D02*
D03*
Y276593D02*
D03*
X110113Y159445D02*
D03*
Y164957D02*
D03*
X101500Y15244D02*
D03*
Y20756D02*
D03*
X273400Y292839D02*
D03*
Y298351D02*
D03*
X174112Y15535D02*
D03*
Y21046D02*
D03*
X273039Y251278D02*
D03*
Y245766D02*
D03*
X173110Y224214D02*
D03*
Y218702D02*
D03*
X172999Y243421D02*
D03*
Y237909D02*
D03*
X173032Y263573D02*
D03*
Y258062D02*
D03*
X173000Y301756D02*
D03*
Y296244D02*
D03*
D31*
X164681Y280372D02*
D03*
X162122D02*
D03*
X159563D02*
D03*
X157004D02*
D03*
X154445D02*
D03*
X151886D02*
D03*
X149327D02*
D03*
X146768D02*
D03*
X144209D02*
D03*
X141649D02*
D03*
X164681Y258522D02*
D03*
X162122D02*
D03*
X159563D02*
D03*
X157004D02*
D03*
X154445D02*
D03*
X151886D02*
D03*
X149327D02*
D03*
X146768D02*
D03*
X144209D02*
D03*
X141649D02*
D03*
X164537Y219904D02*
D03*
X161978D02*
D03*
X159419D02*
D03*
X156860D02*
D03*
X154301D02*
D03*
X151742D02*
D03*
X149183D02*
D03*
X146624D02*
D03*
X144065D02*
D03*
X141506D02*
D03*
X164537Y198054D02*
D03*
X161978D02*
D03*
X159419D02*
D03*
X156860D02*
D03*
X154301D02*
D03*
X151742D02*
D03*
X149183D02*
D03*
X146624D02*
D03*
X144065D02*
D03*
X141506D02*
D03*
X164609Y250102D02*
D03*
X162050D02*
D03*
X159491D02*
D03*
X156932D02*
D03*
X154373D02*
D03*
X151814D02*
D03*
X149255D02*
D03*
X146696D02*
D03*
X144137D02*
D03*
X141577D02*
D03*
X164609Y228252D02*
D03*
X162050D02*
D03*
X159491D02*
D03*
X156932D02*
D03*
X154373D02*
D03*
X151814D02*
D03*
X149255D02*
D03*
X146696D02*
D03*
X144137D02*
D03*
X141577D02*
D03*
X141677Y288727D02*
D03*
X144236D02*
D03*
X146795D02*
D03*
X149354D02*
D03*
X151913D02*
D03*
X154472D02*
D03*
X157031D02*
D03*
X159590D02*
D03*
X162150D02*
D03*
X164709D02*
D03*
X141677Y310577D02*
D03*
X144236D02*
D03*
X146795D02*
D03*
X149354D02*
D03*
X151913D02*
D03*
X154472D02*
D03*
X157031D02*
D03*
X159590D02*
D03*
X162150D02*
D03*
X164709D02*
D03*
D32*
X318533Y299347D02*
D03*
X318533Y306434D02*
D03*
X327981Y299347D02*
D03*
X327981Y306433D02*
D03*
D33*
X321682Y299347D02*
D03*
X321682Y306433D02*
D03*
X324832Y299347D02*
D03*
X324832Y306433D02*
D03*
M02*
