G04*
G04 #@! TF.GenerationSoftware,Altium Limited,Altium Designer,22.6.1 (34)*
G04*
G04 Layer_Color=8388736*
%FSLAX25Y25*%
%MOIN*%
G70*
G04*
G04 #@! TF.SameCoordinates,5882E60C-0619-4AF0-9705-53F345807C1B*
G04*
G04*
G04 #@! TF.FilePolarity,Negative*
G04*
G01*
G75*
%ADD34R,0.55022X0.53784*%
%ADD35O,0.01784X0.05524*%
%ADD36O,0.05524X0.01784*%
%ADD37O,0.02178X0.07493*%
%ADD38R,0.09461X0.08674*%
%ADD39R,0.13792X0.10249*%
%ADD40R,0.04737X0.10249*%
%ADD41R,0.04816X0.08674*%
%ADD42R,0.04816X0.07887*%
%ADD43R,0.03162X0.05328*%
%ADD44R,0.05918X0.03162*%
%ADD45R,0.03950X0.04343*%
%ADD46R,0.03162X0.05918*%
%ADD47R,0.03950X0.03359*%
%ADD48R,0.03950X0.02769*%
%ADD49R,0.04737X0.05721*%
%ADD50R,0.04343X0.03950*%
%ADD51R,0.01981X0.07296*%
%ADD52R,0.03359X0.03950*%
%ADD53R,0.02769X0.03950*%
%ADD54O,0.07099X0.05524*%
%ADD55C,0.07099*%
G04:AMPARAMS|DCode=56|XSize=55.24mil|YSize=70.99mil|CornerRadius=15.81mil|HoleSize=0mil|Usage=FLASHONLY|Rotation=90.000|XOffset=0mil|YOffset=0mil|HoleType=Round|Shape=RoundedRectangle|*
%AMROUNDEDRECTD56*
21,1,0.05524,0.03937,0,0,90.0*
21,1,0.02362,0.07099,0,0,90.0*
1,1,0.03162,0.01968,0.01181*
1,1,0.03162,0.01968,-0.01181*
1,1,0.03162,-0.01968,-0.01181*
1,1,0.03162,-0.01968,0.01181*
%
%ADD56ROUNDEDRECTD56*%
%ADD57R,0.06706X0.06706*%
%ADD58C,0.06706*%
%ADD59C,0.08674*%
%ADD60C,0.00800*%
%ADD61C,0.08674*%
%ADD62R,0.06706X0.06706*%
%ADD63C,0.24422*%
G04:AMPARAMS|DCode=64|XSize=86.74mil|YSize=86.74mil|CornerRadius=23.68mil|HoleSize=0mil|Usage=FLASHONLY|Rotation=0.000|XOffset=0mil|YOffset=0mil|HoleType=Round|Shape=RoundedRectangle|*
%AMROUNDEDRECTD64*
21,1,0.08674,0.03937,0,0,0.0*
21,1,0.03937,0.08674,0,0,0.0*
1,1,0.04737,0.01968,-0.01968*
1,1,0.04737,-0.01968,-0.01968*
1,1,0.04737,-0.01968,0.01968*
1,1,0.04737,0.01968,0.01968*
%
%ADD64ROUNDEDRECTD64*%
D34*
X225048Y260148D02*
D03*
D35*
X257313Y301882D02*
D03*
X255345D02*
D03*
X253376D02*
D03*
X251408D02*
D03*
X249439D02*
D03*
X247471D02*
D03*
X245502D02*
D03*
X243534D02*
D03*
X241565D02*
D03*
X239597D02*
D03*
X237628D02*
D03*
X235660D02*
D03*
X233691D02*
D03*
X231723D02*
D03*
X229754D02*
D03*
X227786D02*
D03*
X225817D02*
D03*
X223849D02*
D03*
X221880D02*
D03*
X219912D02*
D03*
X217943D02*
D03*
X215975D02*
D03*
X214006D02*
D03*
X212038D02*
D03*
X210069D02*
D03*
X208101D02*
D03*
X206132D02*
D03*
X204164D02*
D03*
X202195D02*
D03*
X200226D02*
D03*
X198258D02*
D03*
X196290D02*
D03*
X194321D02*
D03*
X192352D02*
D03*
X190384D02*
D03*
X188416D02*
D03*
Y218418D02*
D03*
X190384D02*
D03*
X192352D02*
D03*
X194321D02*
D03*
X196290D02*
D03*
X198258D02*
D03*
X200226D02*
D03*
X202195D02*
D03*
X204164D02*
D03*
X206132D02*
D03*
X208101D02*
D03*
X210069D02*
D03*
X212038D02*
D03*
X214006D02*
D03*
X215975D02*
D03*
X217943D02*
D03*
X219912D02*
D03*
X221880D02*
D03*
X223849Y218418D02*
D03*
X225817Y218418D02*
D03*
X227786D02*
D03*
X229754D02*
D03*
X231723D02*
D03*
X233691D02*
D03*
X235660D02*
D03*
X237628D02*
D03*
X239597D02*
D03*
X241565D02*
D03*
X243534D02*
D03*
X245502D02*
D03*
X247471D02*
D03*
X249439D02*
D03*
X251408D02*
D03*
X253376D02*
D03*
X255345D02*
D03*
X257313D02*
D03*
D36*
X181132Y294599D02*
D03*
Y292630D02*
D03*
Y290662D02*
D03*
Y288693D02*
D03*
Y286725D02*
D03*
Y284756D02*
D03*
Y282788D02*
D03*
Y280819D02*
D03*
Y278851D02*
D03*
Y276882D02*
D03*
Y274914D02*
D03*
Y272945D02*
D03*
Y270977D02*
D03*
Y269008D02*
D03*
Y267040D02*
D03*
Y265071D02*
D03*
Y263103D02*
D03*
X181132Y261134D02*
D03*
X181132Y259166D02*
D03*
Y257197D02*
D03*
Y255229D02*
D03*
Y253260D02*
D03*
Y251292D02*
D03*
Y249323D02*
D03*
Y247355D02*
D03*
Y245386D02*
D03*
Y243418D02*
D03*
Y241449D02*
D03*
Y239481D02*
D03*
Y237512D02*
D03*
Y235544D02*
D03*
Y233575D02*
D03*
Y231607D02*
D03*
Y229638D02*
D03*
Y227670D02*
D03*
Y225701D02*
D03*
X264597D02*
D03*
Y227670D02*
D03*
Y229638D02*
D03*
Y231607D02*
D03*
Y233575D02*
D03*
Y235544D02*
D03*
Y237512D02*
D03*
Y239481D02*
D03*
Y241449D02*
D03*
Y243418D02*
D03*
Y245386D02*
D03*
Y247355D02*
D03*
Y249323D02*
D03*
Y251292D02*
D03*
Y253260D02*
D03*
Y255229D02*
D03*
Y257197D02*
D03*
Y259166D02*
D03*
Y261134D02*
D03*
Y263103D02*
D03*
Y265071D02*
D03*
Y267040D02*
D03*
Y269008D02*
D03*
Y270977D02*
D03*
Y272945D02*
D03*
Y274914D02*
D03*
Y276882D02*
D03*
Y278851D02*
D03*
Y280819D02*
D03*
Y282788D02*
D03*
Y284756D02*
D03*
Y286725D02*
D03*
Y288693D02*
D03*
Y290662D02*
D03*
Y292630D02*
D03*
Y294599D02*
D03*
D37*
X169094Y29349D02*
D03*
X166535Y29349D02*
D03*
X163976Y29349D02*
D03*
X161417Y29349D02*
D03*
X158858Y29349D02*
D03*
X156299D02*
D03*
X153740D02*
D03*
X151181D02*
D03*
X148622D02*
D03*
X146063D02*
D03*
X143504D02*
D03*
X140945D02*
D03*
X169094Y6908D02*
D03*
X166535Y6908D02*
D03*
X163976Y6908D02*
D03*
X161417Y6908D02*
D03*
X158858Y6908D02*
D03*
X156299D02*
D03*
X153740D02*
D03*
X151181D02*
D03*
X148622D02*
D03*
X146063D02*
D03*
X143504D02*
D03*
X140945D02*
D03*
X141021Y38978D02*
D03*
X143580D02*
D03*
X146139D02*
D03*
X148698D02*
D03*
X151257D02*
D03*
X153816D02*
D03*
X156375D02*
D03*
X158934D02*
D03*
X161494Y38978D02*
D03*
X164053Y38978D02*
D03*
X166612Y38978D02*
D03*
X169171Y38978D02*
D03*
X141021Y61418D02*
D03*
X143580D02*
D03*
X146139D02*
D03*
X148698D02*
D03*
X151257D02*
D03*
X153816D02*
D03*
X156375D02*
D03*
X158934D02*
D03*
X161494Y61418D02*
D03*
X164053Y61418D02*
D03*
X166612Y61418D02*
D03*
X169171Y61418D02*
D03*
X141021Y70894D02*
D03*
X143580D02*
D03*
X146139D02*
D03*
X148698D02*
D03*
X151257D02*
D03*
X153816D02*
D03*
X156375D02*
D03*
X158934D02*
D03*
X161494Y70894D02*
D03*
X164053Y70894D02*
D03*
X166612Y70894D02*
D03*
X169171Y70894D02*
D03*
X141021Y93335D02*
D03*
X143580D02*
D03*
X146139D02*
D03*
X148698D02*
D03*
X151257D02*
D03*
X153816D02*
D03*
X156375D02*
D03*
X158934D02*
D03*
X161494Y93335D02*
D03*
X164053Y93335D02*
D03*
X166612Y93335D02*
D03*
X169171Y93335D02*
D03*
X141197Y102738D02*
D03*
X143756D02*
D03*
X146315D02*
D03*
X148874D02*
D03*
X151433D02*
D03*
X153992D02*
D03*
X156551D02*
D03*
X159110D02*
D03*
X161670Y102738D02*
D03*
X164229Y102738D02*
D03*
X166788Y102738D02*
D03*
X169347Y102738D02*
D03*
X141197Y125179D02*
D03*
X143756D02*
D03*
X146315D02*
D03*
X148874D02*
D03*
X151433D02*
D03*
X153992D02*
D03*
X156551D02*
D03*
X159110D02*
D03*
X161670Y125179D02*
D03*
X164229Y125179D02*
D03*
X166788Y125179D02*
D03*
X169347Y125179D02*
D03*
X141386Y134484D02*
D03*
X143945D02*
D03*
X146504D02*
D03*
X149063D02*
D03*
X151622D02*
D03*
X154181D02*
D03*
X156740D02*
D03*
X159299D02*
D03*
X161858Y134484D02*
D03*
X164418Y134484D02*
D03*
X166976Y134484D02*
D03*
X169536Y134484D02*
D03*
X141386Y156925D02*
D03*
X143945D02*
D03*
X146504D02*
D03*
X149063D02*
D03*
X151622D02*
D03*
X154181D02*
D03*
X156740D02*
D03*
X159299D02*
D03*
X161858Y156925D02*
D03*
X164418Y156925D02*
D03*
X166976Y156925D02*
D03*
X169536Y156925D02*
D03*
X141394Y166625D02*
D03*
X143953D02*
D03*
X146512D02*
D03*
X149071D02*
D03*
X151630D02*
D03*
X154189D02*
D03*
X156748D02*
D03*
X159307D02*
D03*
X161866Y166625D02*
D03*
X164425Y166625D02*
D03*
X166984Y166625D02*
D03*
X169544Y166625D02*
D03*
X141394Y189066D02*
D03*
X143953D02*
D03*
X146512D02*
D03*
X149071D02*
D03*
X151630D02*
D03*
X154189D02*
D03*
X156748D02*
D03*
X159307D02*
D03*
X161866Y189066D02*
D03*
X164425Y189066D02*
D03*
X166984Y189066D02*
D03*
X169544Y189066D02*
D03*
D38*
X191334Y376572D02*
D03*
Y364761D02*
D03*
X294940Y377029D02*
D03*
Y365218D02*
D03*
X251920Y364848D02*
D03*
Y376659D02*
D03*
X234224Y377133D02*
D03*
Y365322D02*
D03*
X146500Y373905D02*
D03*
Y362094D02*
D03*
X131500Y373905D02*
D03*
Y362094D02*
D03*
D39*
X212870Y382474D02*
D03*
X273560Y382559D02*
D03*
D40*
X221925Y359639D02*
D03*
X212870D02*
D03*
X203815D02*
D03*
X264505Y359725D02*
D03*
X273560D02*
D03*
X282615D02*
D03*
D41*
X244825Y344595D02*
D03*
X254825D02*
D03*
X264825D02*
D03*
X274825D02*
D03*
X284825D02*
D03*
X294825D02*
D03*
X304825D02*
D03*
X314825D02*
D03*
X324825Y344595D02*
D03*
X144825Y344595D02*
D03*
X134825D02*
D03*
X154825D02*
D03*
X164825D02*
D03*
X174825D02*
D03*
X184825D02*
D03*
X194825D02*
D03*
X204825D02*
D03*
X214825D02*
D03*
X224825D02*
D03*
X234825D02*
D03*
D42*
X164825Y320972D02*
D03*
X244825D02*
D03*
X234825D02*
D03*
X224825D02*
D03*
X214825D02*
D03*
X204825D02*
D03*
X194825D02*
D03*
X184825D02*
D03*
X174825D02*
D03*
X324825Y320972D02*
D03*
X314825Y320972D02*
D03*
X304825D02*
D03*
X284825D02*
D03*
X274825D02*
D03*
X264825D02*
D03*
X254825D02*
D03*
X294825D02*
D03*
X134825D02*
D03*
X144825D02*
D03*
X154825D02*
D03*
D43*
X166600Y377707D02*
D03*
X159120D02*
D03*
X162860Y368848D02*
D03*
D44*
X276553Y305486D02*
D03*
Y312966D02*
D03*
X268285Y309226D02*
D03*
D45*
X233744Y309500D02*
D03*
X239256D02*
D03*
X100265Y103289D02*
D03*
X94753D02*
D03*
X288078Y293036D02*
D03*
X282567D02*
D03*
X288028Y287557D02*
D03*
X282517D02*
D03*
X188537Y205416D02*
D03*
X194049D02*
D03*
X262255Y309246D02*
D03*
X256743D02*
D03*
X179573Y314218D02*
D03*
X185085D02*
D03*
X179577Y359968D02*
D03*
X174065D02*
D03*
X163450Y359924D02*
D03*
X157938D02*
D03*
X165582Y383029D02*
D03*
X160070D02*
D03*
X232150Y210257D02*
D03*
X226638D02*
D03*
X232131Y205236D02*
D03*
X226619D02*
D03*
X255244Y210000D02*
D03*
X260756D02*
D03*
X188451Y210619D02*
D03*
X193963D02*
D03*
X216319Y309487D02*
D03*
X221831D02*
D03*
X188813Y181871D02*
D03*
X194325D02*
D03*
X215210Y210422D02*
D03*
X209698D02*
D03*
D46*
X107304Y352868D02*
D03*
X114785D02*
D03*
X111045Y361136D02*
D03*
X107216Y368233D02*
D03*
X114696D02*
D03*
X110956Y376501D02*
D03*
X289280Y304160D02*
D03*
X296760D02*
D03*
X293020Y312428D02*
D03*
X302772Y304280D02*
D03*
X310253D02*
D03*
X306512Y312548D02*
D03*
X175849Y369161D02*
D03*
X172109Y377429D02*
D03*
X179590D02*
D03*
D47*
X311968Y370649D02*
D03*
X304882Y370650D02*
D03*
X311969Y380097D02*
D03*
X304882Y380098D02*
D03*
X97447Y168608D02*
D03*
X104533Y168608D02*
D03*
X97446Y159160D02*
D03*
X104533Y159160D02*
D03*
X97457Y185224D02*
D03*
X104544Y185224D02*
D03*
X97456Y175776D02*
D03*
X104543Y175776D02*
D03*
X97447Y201893D02*
D03*
X104533Y201892D02*
D03*
X97446Y192445D02*
D03*
X104533Y192445D02*
D03*
X97447Y251728D02*
D03*
X104533Y251728D02*
D03*
X97446Y242280D02*
D03*
X104533Y242280D02*
D03*
X97447Y268314D02*
D03*
X104533Y268313D02*
D03*
X97446Y258865D02*
D03*
X104533Y258865D02*
D03*
X97447Y218444D02*
D03*
X104533Y218444D02*
D03*
X97446Y208996D02*
D03*
X104533Y208996D02*
D03*
X97447Y284878D02*
D03*
X104533Y284878D02*
D03*
X97446Y275430D02*
D03*
X104533Y275430D02*
D03*
X97447Y235091D02*
D03*
X104533Y235091D02*
D03*
X97446Y225643D02*
D03*
X104533Y225643D02*
D03*
D48*
X311968Y373798D02*
D03*
X304882Y373798D02*
D03*
X311968Y376948D02*
D03*
X304882Y376948D02*
D03*
X97447Y165460D02*
D03*
X104533Y165459D02*
D03*
X97447Y162310D02*
D03*
X104533Y162309D02*
D03*
X97457Y182075D02*
D03*
X104543Y182075D02*
D03*
X97457Y178925D02*
D03*
X104543Y178925D02*
D03*
X97447Y198744D02*
D03*
X104533Y198743D02*
D03*
X97447Y195594D02*
D03*
X104533Y195594D02*
D03*
X97447Y248579D02*
D03*
X104533Y248579D02*
D03*
X97447Y245429D02*
D03*
X104533Y245429D02*
D03*
X97447Y265164D02*
D03*
X104533Y265164D02*
D03*
X97447Y262015D02*
D03*
X104533Y262014D02*
D03*
X97447Y215295D02*
D03*
X104533Y215295D02*
D03*
X97447Y212145D02*
D03*
X104533Y212145D02*
D03*
X97447Y281729D02*
D03*
X104533Y281729D02*
D03*
X97447Y278579D02*
D03*
X104533Y278579D02*
D03*
X97447Y231942D02*
D03*
X104533Y231942D02*
D03*
X97447Y228792D02*
D03*
X104533Y228792D02*
D03*
D49*
X319963Y353891D02*
D03*
X328624D02*
D03*
X319963Y363640D02*
D03*
X328624D02*
D03*
X319963Y373283D02*
D03*
X328624D02*
D03*
X319963Y382945D02*
D03*
X328624D02*
D03*
D50*
X120799Y358565D02*
D03*
Y353053D02*
D03*
X121057Y372792D02*
D03*
Y367280D02*
D03*
X196368Y309287D02*
D03*
Y314799D02*
D03*
X190512Y314817D02*
D03*
Y309305D02*
D03*
X221840Y210603D02*
D03*
Y205091D02*
D03*
X273000Y267256D02*
D03*
Y261744D02*
D03*
X173190Y271081D02*
D03*
Y276593D02*
D03*
X110113Y159445D02*
D03*
Y164957D02*
D03*
X101500Y15244D02*
D03*
Y20756D02*
D03*
X273400Y292839D02*
D03*
Y298351D02*
D03*
X174112Y15535D02*
D03*
Y21046D02*
D03*
X273039Y251278D02*
D03*
Y245766D02*
D03*
X173110Y224214D02*
D03*
Y218702D02*
D03*
X172999Y243421D02*
D03*
Y237909D02*
D03*
X173032Y263573D02*
D03*
Y258062D02*
D03*
X173000Y301756D02*
D03*
Y296244D02*
D03*
D51*
X164681Y280372D02*
D03*
X162122D02*
D03*
X159563D02*
D03*
X157004D02*
D03*
X154445D02*
D03*
X151886D02*
D03*
X149327D02*
D03*
X146768D02*
D03*
X144209D02*
D03*
X141649D02*
D03*
X164681Y258522D02*
D03*
X162122D02*
D03*
X159563D02*
D03*
X157004D02*
D03*
X154445D02*
D03*
X151886D02*
D03*
X149327D02*
D03*
X146768D02*
D03*
X144209D02*
D03*
X141649D02*
D03*
X164537Y219904D02*
D03*
X161978D02*
D03*
X159419D02*
D03*
X156860D02*
D03*
X154301D02*
D03*
X151742D02*
D03*
X149183D02*
D03*
X146624D02*
D03*
X144065D02*
D03*
X141506D02*
D03*
X164537Y198054D02*
D03*
X161978D02*
D03*
X159419D02*
D03*
X156860D02*
D03*
X154301D02*
D03*
X151742D02*
D03*
X149183D02*
D03*
X146624D02*
D03*
X144065D02*
D03*
X141506D02*
D03*
X164609Y250102D02*
D03*
X162050D02*
D03*
X159491D02*
D03*
X156932D02*
D03*
X154373D02*
D03*
X151814D02*
D03*
X149255D02*
D03*
X146696D02*
D03*
X144137D02*
D03*
X141577D02*
D03*
X164609Y228252D02*
D03*
X162050D02*
D03*
X159491D02*
D03*
X156932D02*
D03*
X154373D02*
D03*
X151814D02*
D03*
X149255D02*
D03*
X146696D02*
D03*
X144137D02*
D03*
X141577D02*
D03*
X141677Y288727D02*
D03*
X144236D02*
D03*
X146795D02*
D03*
X149354D02*
D03*
X151913D02*
D03*
X154472D02*
D03*
X157031D02*
D03*
X159590D02*
D03*
X162150D02*
D03*
X164709D02*
D03*
X141677Y310577D02*
D03*
X144236D02*
D03*
X146795D02*
D03*
X149354D02*
D03*
X151913D02*
D03*
X154472D02*
D03*
X157031D02*
D03*
X159590D02*
D03*
X162150D02*
D03*
X164709D02*
D03*
D52*
X318533Y299347D02*
D03*
X318533Y306434D02*
D03*
X327981Y299347D02*
D03*
X327981Y306433D02*
D03*
D53*
X321682Y299347D02*
D03*
X321682Y306433D02*
D03*
X324832Y299347D02*
D03*
X324832Y306433D02*
D03*
D54*
X86614Y5039D02*
D03*
X71653Y385039D02*
D03*
Y5039D02*
D03*
D55*
Y325039D02*
D03*
X86614D02*
D03*
X64173Y330039D02*
D03*
X79134D02*
D03*
X71653Y335039D02*
D03*
X86614D02*
D03*
X64173Y340039D02*
D03*
X79134D02*
D03*
X71653Y345039D02*
D03*
X86614D02*
D03*
X64173Y350039D02*
D03*
X79134D02*
D03*
X71653Y355039D02*
D03*
X86614D02*
D03*
X64173Y360039D02*
D03*
X79134D02*
D03*
X71653Y365039D02*
D03*
X86614D02*
D03*
X64173Y370039D02*
D03*
X79134D02*
D03*
X71653Y375039D02*
D03*
X86614D02*
D03*
X64173Y380039D02*
D03*
X79134D02*
D03*
X71653Y155039D02*
D03*
X86614D02*
D03*
X64173Y160039D02*
D03*
X79134D02*
D03*
X71653Y165039D02*
D03*
X86614D02*
D03*
X64173Y170039D02*
D03*
X79134D02*
D03*
X71653Y175039D02*
D03*
X86614D02*
D03*
X64173Y180039D02*
D03*
X79134D02*
D03*
X71653Y185039D02*
D03*
X86614D02*
D03*
X64173Y190039D02*
D03*
X79134D02*
D03*
X71653Y195039D02*
D03*
X86614D02*
D03*
X64173Y200039D02*
D03*
X79134D02*
D03*
X71653Y205039D02*
D03*
X86614D02*
D03*
X64173Y210039D02*
D03*
X79134D02*
D03*
X71653Y215039D02*
D03*
X86614D02*
D03*
X64173Y220039D02*
D03*
X79134D02*
D03*
X71653Y225039D02*
D03*
X86614D02*
D03*
X64173Y230039D02*
D03*
X79134D02*
D03*
X71653Y235039D02*
D03*
X86614D02*
D03*
X64173Y240039D02*
D03*
X79134D02*
D03*
X71653Y245039D02*
D03*
X86614D02*
D03*
X64173Y250039D02*
D03*
X79134D02*
D03*
X71653Y265039D02*
D03*
X86614D02*
D03*
X64173Y270039D02*
D03*
X79134D02*
D03*
X71653Y275039D02*
D03*
X86614D02*
D03*
X64173Y280039D02*
D03*
X79134D02*
D03*
X71653Y285039D02*
D03*
X86614D02*
D03*
X64173Y290039D02*
D03*
X79134D02*
D03*
X71653Y295039D02*
D03*
X86614D02*
D03*
X64173Y300039D02*
D03*
X79134D02*
D03*
X71653Y305039D02*
D03*
X86614D02*
D03*
X64173Y310039D02*
D03*
X79134D02*
D03*
X71653Y315039D02*
D03*
X86614D02*
D03*
X64173Y320039D02*
D03*
X79134D02*
D03*
X64173Y10039D02*
D03*
X79134D02*
D03*
X71653Y15039D02*
D03*
X86614D02*
D03*
X64173Y20039D02*
D03*
X79134D02*
D03*
X71653Y25039D02*
D03*
X86614D02*
D03*
X64173Y30039D02*
D03*
X79134D02*
D03*
X71653Y35039D02*
D03*
X86614D02*
D03*
X64173Y40039D02*
D03*
X79134D02*
D03*
X71653Y45039D02*
D03*
X86614D02*
D03*
X64173Y50039D02*
D03*
X79134D02*
D03*
X71653Y55039D02*
D03*
X86614D02*
D03*
X64173Y60039D02*
D03*
X79134D02*
D03*
X71653Y65039D02*
D03*
X86614D02*
D03*
X64173Y70039D02*
D03*
X79134D02*
D03*
X71653Y75039D02*
D03*
X86614D02*
D03*
X64173Y80039D02*
D03*
X79134D02*
D03*
X71653Y85039D02*
D03*
X86614D02*
D03*
X64173Y90039D02*
D03*
X79134D02*
D03*
X71653Y95039D02*
D03*
X86614D02*
D03*
X64173Y100039D02*
D03*
X79134D02*
D03*
X71653Y105039D02*
D03*
X86614D02*
D03*
X64173Y110039D02*
D03*
X79134D02*
D03*
X71653Y115039D02*
D03*
X86614D02*
D03*
X64173Y120039D02*
D03*
X79134D02*
D03*
X71653Y125039D02*
D03*
X86614D02*
D03*
X64173Y130039D02*
D03*
X79134D02*
D03*
X71653Y135039D02*
D03*
X86614D02*
D03*
X64173Y140039D02*
D03*
X79134D02*
D03*
X71653Y145039D02*
D03*
X86614D02*
D03*
X64173Y150039D02*
D03*
X79134D02*
D03*
D56*
X86614Y385039D02*
D03*
D57*
X298837Y229130D02*
D03*
D58*
X288837D02*
D03*
X298837Y239130D02*
D03*
X288837D02*
D03*
X298837Y249130D02*
D03*
X288837D02*
D03*
X298837Y259130D02*
D03*
X288837D02*
D03*
X298837Y269130D02*
D03*
X288837D02*
D03*
X339120Y287952D02*
D03*
X329120D02*
D03*
X319120D02*
D03*
X309120D02*
D03*
X299120D02*
D03*
D59*
X149825Y332783D02*
D03*
X309825D02*
D03*
D60*
X324830Y337740D02*
D03*
X134745Y327735D02*
D03*
X134830Y337740D02*
D03*
X144830D02*
D03*
Y327740D02*
D03*
X154830D02*
D03*
Y337740D02*
D03*
X164830D02*
D03*
Y327740D02*
D03*
X174830D02*
D03*
Y337740D02*
D03*
X184830D02*
D03*
Y327740D02*
D03*
X194830D02*
D03*
Y337740D02*
D03*
X204830D02*
D03*
Y327740D02*
D03*
X214830D02*
D03*
Y337740D02*
D03*
X224830D02*
D03*
Y327740D02*
D03*
X234830D02*
D03*
Y337740D02*
D03*
X244830D02*
D03*
Y327740D02*
D03*
X254830Y337740D02*
D03*
Y327740D02*
D03*
X264830D02*
D03*
Y337740D02*
D03*
X274830D02*
D03*
Y327740D02*
D03*
X284830D02*
D03*
Y337740D02*
D03*
X294830D02*
D03*
Y327740D02*
D03*
X304830D02*
D03*
Y337740D02*
D03*
X314830D02*
D03*
Y327740D02*
D03*
X324830D02*
D03*
X351483Y380095D02*
D03*
X52022Y382031D02*
D03*
X338943Y313546D02*
D03*
X338966Y303567D02*
D03*
X348966D02*
D03*
Y313567D02*
D03*
X51859Y7937D02*
D03*
D61*
X139825Y332783D02*
D03*
X319825D02*
D03*
X139091Y382804D02*
D03*
D62*
X349120Y287952D02*
D03*
D63*
X115620Y139827D02*
D03*
Y332740D02*
D03*
X343966D02*
D03*
D64*
X139235Y353462D02*
D03*
M02*
