G04*
G04 #@! TF.GenerationSoftware,Altium Limited,Altium Designer,22.6.1 (34)*
G04*
G04 Layer_Color=16711935*
%FSLAX25Y25*%
%MOIN*%
G70*
G04*
G04 #@! TF.SameCoordinates,5882E60C-0619-4AF0-9705-53F345807C1B*
G04*
G04*
G04 #@! TF.FilePolarity,Positive*
G04*
G01*
G75*
%ADD69C,0.03937*%
%ADD97C,0.01575*%
%ADD98C,0.15748*%
D69*
X181102Y0D02*
G03*
X185039Y3937I0J3937D01*
G01*
X303150Y220472D02*
G03*
X307087Y224410I0J3937D01*
G01*
X261811Y169291D02*
G03*
X265748Y173228I0J3937D01*
G01*
X358268Y385827D02*
G03*
X354331Y389764I-3937J0D01*
G01*
Y279528D02*
G03*
X358268Y283465I0J3937D01*
G01*
X47244Y389764D02*
G03*
X43307Y385827I0J-3937D01*
G01*
Y3937D02*
G03*
X47244Y0I3937J0D01*
G01*
X188976Y169291D02*
G03*
X185039Y165354I0J-3937D01*
G01*
X269683Y220472D02*
G03*
X265746Y216535I0J-3937D01*
G01*
X311024Y279528D02*
G03*
X307087Y275590I0J-3937D01*
G01*
X185039Y3937D02*
Y165354D01*
X311024Y279528D02*
X354331D01*
X307087Y224410D02*
Y275590D01*
X358268Y283465D02*
Y385827D01*
X47244Y389764D02*
X354331D01*
X47244Y0D02*
X181102D01*
X188976Y169291D02*
X261811D01*
X265748Y173228D02*
Y216535D01*
X269685Y220472D02*
X303150D01*
X43307Y3937D02*
Y385827D01*
D97*
X125333Y277795D02*
G03*
X109582Y277795I-7875J0D01*
G01*
Y195118D02*
G03*
X125333Y195118I7875J0D01*
G01*
X47244Y389764D02*
G03*
X43307Y385827I0J-3937D01*
G01*
X358268D02*
G03*
X354331Y389764I-3937J0D01*
G01*
Y279528D02*
G03*
X358268Y283465I0J3937D01*
G01*
X311024Y279528D02*
G03*
X307087Y275590I0J-3937D01*
G01*
X303150Y220472D02*
G03*
X307087Y224410I0J3937D01*
G01*
X269683Y220472D02*
G03*
X265746Y216535I0J-3937D01*
G01*
X261811Y169291D02*
G03*
X265748Y173228I0J3937D01*
G01*
X188976Y169291D02*
G03*
X185039Y165354I0J-3937D01*
G01*
X181102Y0D02*
G03*
X185039Y3937I0J3937D01*
G01*
X43307D02*
G03*
X47244Y0I3937J0D01*
G01*
X109582Y195118D02*
Y277795D01*
X125333Y195118D02*
Y277795D01*
X43307Y3937D02*
Y385827D01*
X47244Y389764D02*
X354331D01*
X358268Y283465D02*
Y385827D01*
X311024Y279528D02*
X354331D01*
X307087Y275590D02*
X307087Y224410D01*
X269683Y220472D02*
X303150D01*
X265746Y216535D02*
X265748D01*
Y173228D02*
Y216535D01*
X188976Y169291D02*
X261811D01*
X185039Y3937D02*
Y165354D01*
X47244Y0D02*
X181102D01*
D98*
X117458Y195118D02*
Y277795D01*
M02*
