G04*
G04 #@! TF.GenerationSoftware,Altium Limited,Altium Designer,22.6.1 (34)*
G04*
G04 Layer_Color=16711935*
%FSLAX25Y25*%
%MOIN*%
G70*
G04*
G04 #@! TF.SameCoordinates,5882E60C-0619-4AF0-9705-53F345807C1B*
G04*
G04*
G04 #@! TF.FilePolarity,Negative*
G04*
G01*
G75*
%ADD54O,0.07099X0.05524*%
%ADD55C,0.07099*%
G04:AMPARAMS|DCode=56|XSize=55.24mil|YSize=70.99mil|CornerRadius=15.81mil|HoleSize=0mil|Usage=FLASHONLY|Rotation=90.000|XOffset=0mil|YOffset=0mil|HoleType=Round|Shape=RoundedRectangle|*
%AMROUNDEDRECTD56*
21,1,0.05524,0.03937,0,0,90.0*
21,1,0.02362,0.07099,0,0,90.0*
1,1,0.03162,0.01968,0.01181*
1,1,0.03162,0.01968,-0.01181*
1,1,0.03162,-0.01968,-0.01181*
1,1,0.03162,-0.01968,0.01181*
%
%ADD56ROUNDEDRECTD56*%
%ADD57R,0.06706X0.06706*%
%ADD58C,0.06706*%
%ADD59C,0.08674*%
%ADD60C,0.00800*%
%ADD61C,0.08674*%
%ADD62R,0.06706X0.06706*%
%ADD63C,0.24422*%
G04:AMPARAMS|DCode=64|XSize=86.74mil|YSize=86.74mil|CornerRadius=23.68mil|HoleSize=0mil|Usage=FLASHONLY|Rotation=0.000|XOffset=0mil|YOffset=0mil|HoleType=Round|Shape=RoundedRectangle|*
%AMROUNDEDRECTD64*
21,1,0.08674,0.03937,0,0,0.0*
21,1,0.03937,0.08674,0,0,0.0*
1,1,0.04737,0.01968,-0.01968*
1,1,0.04737,-0.01968,-0.01968*
1,1,0.04737,-0.01968,0.01968*
1,1,0.04737,0.01968,0.01968*
%
%ADD64ROUNDEDRECTD64*%
%ADD95R,0.55041X0.55077*%
D54*
X86614Y5039D02*
D03*
X71653Y385039D02*
D03*
Y5039D02*
D03*
D55*
Y325039D02*
D03*
X86614D02*
D03*
X64173Y330039D02*
D03*
X79134D02*
D03*
X71653Y335039D02*
D03*
X86614D02*
D03*
X64173Y340039D02*
D03*
X79134D02*
D03*
X71653Y345039D02*
D03*
X86614D02*
D03*
X64173Y350039D02*
D03*
X79134D02*
D03*
X71653Y355039D02*
D03*
X86614D02*
D03*
X64173Y360039D02*
D03*
X79134D02*
D03*
X71653Y365039D02*
D03*
X86614D02*
D03*
X64173Y370039D02*
D03*
X79134D02*
D03*
X71653Y375039D02*
D03*
X86614D02*
D03*
X64173Y380039D02*
D03*
X79134D02*
D03*
X71653Y155039D02*
D03*
X86614D02*
D03*
X64173Y160039D02*
D03*
X79134D02*
D03*
X71653Y165039D02*
D03*
X86614D02*
D03*
X64173Y170039D02*
D03*
X79134D02*
D03*
X71653Y175039D02*
D03*
X86614D02*
D03*
X64173Y180039D02*
D03*
X79134D02*
D03*
X71653Y185039D02*
D03*
X86614D02*
D03*
X64173Y190039D02*
D03*
X79134D02*
D03*
X71653Y195039D02*
D03*
X86614D02*
D03*
X64173Y200039D02*
D03*
X79134D02*
D03*
X71653Y205039D02*
D03*
X86614D02*
D03*
X64173Y210039D02*
D03*
X79134D02*
D03*
X71653Y215039D02*
D03*
X86614D02*
D03*
X64173Y220039D02*
D03*
X79134D02*
D03*
X71653Y225039D02*
D03*
X86614D02*
D03*
X64173Y230039D02*
D03*
X79134D02*
D03*
X71653Y235039D02*
D03*
X86614D02*
D03*
X64173Y240039D02*
D03*
X79134D02*
D03*
X71653Y245039D02*
D03*
X86614D02*
D03*
X64173Y250039D02*
D03*
X79134D02*
D03*
X71653Y265039D02*
D03*
X86614D02*
D03*
X64173Y270039D02*
D03*
X79134D02*
D03*
X71653Y275039D02*
D03*
X86614D02*
D03*
X64173Y280039D02*
D03*
X79134D02*
D03*
X71653Y285039D02*
D03*
X86614D02*
D03*
X64173Y290039D02*
D03*
X79134D02*
D03*
X71653Y295039D02*
D03*
X86614D02*
D03*
X64173Y300039D02*
D03*
X79134D02*
D03*
X71653Y305039D02*
D03*
X86614D02*
D03*
X64173Y310039D02*
D03*
X79134D02*
D03*
X71653Y315039D02*
D03*
X86614D02*
D03*
X64173Y320039D02*
D03*
X79134D02*
D03*
X64173Y10039D02*
D03*
X79134D02*
D03*
X71653Y15039D02*
D03*
X86614D02*
D03*
X64173Y20039D02*
D03*
X79134D02*
D03*
X71653Y25039D02*
D03*
X86614D02*
D03*
X64173Y30039D02*
D03*
X79134D02*
D03*
X71653Y35039D02*
D03*
X86614D02*
D03*
X64173Y40039D02*
D03*
X79134D02*
D03*
X71653Y45039D02*
D03*
X86614D02*
D03*
X64173Y50039D02*
D03*
X79134D02*
D03*
X71653Y55039D02*
D03*
X86614D02*
D03*
X64173Y60039D02*
D03*
X79134D02*
D03*
X71653Y65039D02*
D03*
X86614D02*
D03*
X64173Y70039D02*
D03*
X79134D02*
D03*
X71653Y75039D02*
D03*
X86614D02*
D03*
X64173Y80039D02*
D03*
X79134D02*
D03*
X71653Y85039D02*
D03*
X86614D02*
D03*
X64173Y90039D02*
D03*
X79134D02*
D03*
X71653Y95039D02*
D03*
X86614D02*
D03*
X64173Y100039D02*
D03*
X79134D02*
D03*
X71653Y105039D02*
D03*
X86614D02*
D03*
X64173Y110039D02*
D03*
X79134D02*
D03*
X71653Y115039D02*
D03*
X86614D02*
D03*
X64173Y120039D02*
D03*
X79134D02*
D03*
X71653Y125039D02*
D03*
X86614D02*
D03*
X64173Y130039D02*
D03*
X79134D02*
D03*
X71653Y135039D02*
D03*
X86614D02*
D03*
X64173Y140039D02*
D03*
X79134D02*
D03*
X71653Y145039D02*
D03*
X86614D02*
D03*
X64173Y150039D02*
D03*
X79134D02*
D03*
D56*
X86614Y385039D02*
D03*
D57*
X298837Y229130D02*
D03*
D58*
X288837D02*
D03*
X298837Y239130D02*
D03*
X288837D02*
D03*
X298837Y249130D02*
D03*
X288837D02*
D03*
X298837Y259130D02*
D03*
X288837D02*
D03*
X298837Y269130D02*
D03*
X288837D02*
D03*
X339120Y287952D02*
D03*
X329120D02*
D03*
X319120D02*
D03*
X309120D02*
D03*
X299120D02*
D03*
D59*
X149825Y332783D02*
D03*
X309825D02*
D03*
D60*
X324830Y337740D02*
D03*
X134745Y327735D02*
D03*
X134830Y337740D02*
D03*
X144830D02*
D03*
Y327740D02*
D03*
X154830D02*
D03*
Y337740D02*
D03*
X164830D02*
D03*
Y327740D02*
D03*
X174830D02*
D03*
Y337740D02*
D03*
X184830D02*
D03*
Y327740D02*
D03*
X194830D02*
D03*
Y337740D02*
D03*
X204830D02*
D03*
Y327740D02*
D03*
X214830D02*
D03*
Y337740D02*
D03*
X224830D02*
D03*
Y327740D02*
D03*
X234830D02*
D03*
Y337740D02*
D03*
X244830D02*
D03*
Y327740D02*
D03*
X254830Y337740D02*
D03*
Y327740D02*
D03*
X264830D02*
D03*
Y337740D02*
D03*
X274830D02*
D03*
Y327740D02*
D03*
X284830D02*
D03*
Y337740D02*
D03*
X294830D02*
D03*
Y327740D02*
D03*
X304830D02*
D03*
Y337740D02*
D03*
X314830D02*
D03*
Y327740D02*
D03*
X324830D02*
D03*
X351483Y380095D02*
D03*
X52022Y382031D02*
D03*
X338943Y313546D02*
D03*
X338966Y303567D02*
D03*
X348966D02*
D03*
Y313567D02*
D03*
X51859Y7937D02*
D03*
D61*
X139825Y332783D02*
D03*
X319825D02*
D03*
X139091Y382804D02*
D03*
D62*
X349120Y287952D02*
D03*
D63*
X115620Y139827D02*
D03*
Y332740D02*
D03*
X343966D02*
D03*
D64*
X139235Y353462D02*
D03*
D95*
X225101Y259787D02*
D03*
M02*
