G04*
G04 #@! TF.GenerationSoftware,Altium Limited,Altium Designer,22.6.1 (34)*
G04*
G04 Layer_Physical_Order=2*
G04 Layer_Color=36540*
%FSLAX25Y25*%
%MOIN*%
G70*
G04*
G04 #@! TF.SameCoordinates,5882E60C-0619-4AF0-9705-53F345807C1B*
G04*
G04*
G04 #@! TF.FilePolarity,Positive*
G04*
G01*
G75*
%ADD12C,0.00787*%
%ADD69C,0.03937*%
%ADD78C,0.06299*%
%ADD81C,0.05906*%
%ADD83C,0.07874*%
%ADD85C,0.23622*%
G04:AMPARAMS|DCode=86|XSize=78.74mil|YSize=78.74mil|CornerRadius=19.68mil|HoleSize=0mil|Usage=FLASHONLY|Rotation=0.000|XOffset=0mil|YOffset=0mil|HoleType=Round|Shape=RoundedRectangle|*
%AMROUNDEDRECTD86*
21,1,0.07874,0.03937,0,0,0.0*
21,1,0.03937,0.07874,0,0,0.0*
1,1,0.03937,0.01968,-0.01968*
1,1,0.03937,-0.01968,-0.01968*
1,1,0.03937,-0.01968,0.01968*
1,1,0.03937,0.01968,0.01968*
%
%ADD86ROUNDEDRECTD86*%
%ADD87C,0.01772*%
%ADD88C,0.03150*%
%ADD89C,0.01181*%
G36*
X354926Y387263D02*
X355430Y386926D01*
X355767Y386422D01*
X355872Y385893D01*
X355859Y385827D01*
Y338719D01*
X355359Y338599D01*
X354923Y339455D01*
X353738Y341086D01*
X352312Y342512D01*
X350681Y343697D01*
X348884Y344613D01*
X346966Y345236D01*
X344974Y345551D01*
X344466D01*
Y332740D01*
Y319929D01*
X344974D01*
X346966Y320245D01*
X348884Y320868D01*
X350681Y321783D01*
X352312Y322969D01*
X353738Y324394D01*
X354923Y326026D01*
X355359Y326882D01*
X355859Y326762D01*
Y283465D01*
X355872Y283399D01*
X355767Y282870D01*
X355430Y282365D01*
X354926Y282028D01*
X354396Y281923D01*
X354331Y281936D01*
X311024D01*
X310866Y281905D01*
X309789Y281799D01*
X308601Y281438D01*
X307507Y280854D01*
X306548Y280066D01*
X305761Y279107D01*
X305176Y278013D01*
X304816Y276825D01*
X304709Y275748D01*
X304678Y275590D01*
Y224410D01*
X304691Y224344D01*
X304586Y223815D01*
X304249Y223310D01*
X303745Y222973D01*
X303622Y222949D01*
X303150Y222881D01*
Y222881D01*
X269685D01*
X269684Y222881D01*
X269683Y222881D01*
Y222881D01*
X269529Y222850D01*
X268448Y222744D01*
X267261Y222383D01*
X266167Y221798D01*
X265208Y221011D01*
X264421Y220052D01*
X263836Y218958D01*
X263475Y217770D01*
X263368Y216676D01*
X263340Y216535D01*
X263338D01*
X263340Y216527D01*
Y173228D01*
X263353Y173163D01*
X263247Y172633D01*
X262910Y172129D01*
X262406Y171792D01*
X261877Y171687D01*
X261811Y171700D01*
X188976D01*
X188819Y171669D01*
X187741Y171562D01*
X186554Y171202D01*
X185460Y170617D01*
X184501Y169830D01*
X183713Y168871D01*
X183128Y167777D01*
X182768Y166589D01*
X182662Y165512D01*
X182631Y165354D01*
Y3937D01*
X182644Y3871D01*
X182539Y3342D01*
X182202Y2838D01*
X181697Y2501D01*
X181168Y2395D01*
X181102Y2409D01*
X89321D01*
X89152Y2908D01*
X89367Y3074D01*
X89809Y3650D01*
X90087Y4320D01*
X90181Y5039D01*
X90087Y5759D01*
X89809Y6429D01*
X89367Y7005D01*
X88791Y7447D01*
X88121Y7724D01*
X87402Y7819D01*
X85827D01*
X85107Y7724D01*
X84437Y7447D01*
X83861Y7005D01*
X83420Y6429D01*
X83142Y5759D01*
X83047Y5039D01*
X83142Y4320D01*
X83420Y3650D01*
X83861Y3074D01*
X84077Y2908D01*
X83907Y2409D01*
X74361D01*
X74191Y2908D01*
X74406Y3074D01*
X74848Y3650D01*
X75126Y4320D01*
X75221Y5039D01*
X75126Y5759D01*
X74848Y6429D01*
X74406Y7005D01*
X73831Y7447D01*
X73160Y7724D01*
X72441Y7819D01*
X70866D01*
X70147Y7724D01*
X69476Y7447D01*
X68901Y7005D01*
X68459Y6429D01*
X68181Y5759D01*
X68086Y5039D01*
X68181Y4320D01*
X68459Y3650D01*
X68901Y3074D01*
X69116Y2908D01*
X68946Y2409D01*
X47244D01*
X47178Y2395D01*
X46649Y2501D01*
X46145Y2838D01*
X45808Y3342D01*
X45702Y3871D01*
X45716Y3937D01*
Y385827D01*
X45702Y385893D01*
X45808Y386422D01*
X46145Y386926D01*
X46649Y387263D01*
X47178Y387368D01*
X47244Y387355D01*
X68584D01*
X68786Y386855D01*
X68459Y386429D01*
X68181Y385759D01*
X68086Y385039D01*
X68181Y384320D01*
X68459Y383649D01*
X68901Y383074D01*
X69476Y382632D01*
X70147Y382354D01*
X70866Y382260D01*
X72441D01*
X73160Y382354D01*
X73831Y382632D01*
X74406Y383074D01*
X74848Y383649D01*
X75126Y384320D01*
X75221Y385039D01*
X75126Y385759D01*
X74848Y386429D01*
X74521Y386855D01*
X74724Y387355D01*
X82980D01*
X83215Y386914D01*
X83162Y386835D01*
X83040Y386221D01*
Y383858D01*
X83162Y383244D01*
X83510Y382723D01*
X84031Y382375D01*
X84646Y382253D01*
X88583D01*
X89197Y382375D01*
X89718Y382723D01*
X90066Y383244D01*
X90188Y383858D01*
Y386221D01*
X90066Y386835D01*
X90013Y386914D01*
X90249Y387355D01*
X136134D01*
X136264Y386872D01*
X136059Y386754D01*
X135140Y385835D01*
X134490Y384710D01*
X134154Y383454D01*
Y383304D01*
X144028D01*
Y383454D01*
X143692Y384710D01*
X143042Y385835D01*
X142122Y386754D01*
X141918Y386872D01*
X142048Y387355D01*
X354331D01*
X354396Y387368D01*
X354926Y387263D01*
D02*
G37*
%LPC*%
G36*
X305199Y384267D02*
X304690D01*
X304220Y384072D01*
X303860Y383712D01*
X303665Y383242D01*
Y382733D01*
X303860Y382262D01*
X304220Y381903D01*
X304690Y381708D01*
X305199D01*
X305669Y381903D01*
X306029Y382262D01*
X306224Y382733D01*
Y383242D01*
X306029Y383712D01*
X305669Y384072D01*
X305199Y384267D01*
D02*
G37*
G36*
X144028Y382304D02*
X143086D01*
X143161Y382063D01*
X143268Y381811D01*
X143406Y381551D01*
X143576Y381281D01*
X143735Y381060D01*
X144028Y382154D01*
Y382304D01*
D02*
G37*
G36*
X138591D02*
X134154D01*
Y382154D01*
X134490Y380898D01*
X134785Y380389D01*
X134869Y380516D01*
X135019Y380787D01*
X135133Y381049D01*
X135212Y381303D01*
X135255Y381548D01*
X135262Y381784D01*
X135234Y382012D01*
X138591Y379751D01*
Y382304D01*
D02*
G37*
G36*
X52372Y384693D02*
X51672D01*
X50995Y384511D01*
X50388Y384161D01*
X49892Y383665D01*
X49542Y383059D01*
X49361Y382382D01*
Y381681D01*
X49542Y381004D01*
X49892Y380397D01*
X50388Y379902D01*
X50995Y379551D01*
X51672Y379370D01*
X52372D01*
X53049Y379551D01*
X53656Y379902D01*
X54152Y380397D01*
X54502Y381004D01*
X54683Y381681D01*
Y382382D01*
X54502Y383059D01*
X54152Y383665D01*
X53656Y384161D01*
X53049Y384511D01*
X52372Y384693D01*
D02*
G37*
G36*
X142567Y382304D02*
X139591D01*
Y379328D01*
X142567Y382304D01*
D02*
G37*
G36*
X139591Y378809D02*
Y377867D01*
X139741D01*
X140835Y378160D01*
X140613Y378319D01*
X140344Y378488D01*
X140084Y378627D01*
X139832Y378733D01*
X139591Y378809D01*
D02*
G37*
G36*
X138591Y378303D02*
X138215Y378012D01*
X138140Y377947D01*
X138441Y377867D01*
X138591D01*
Y378303D01*
D02*
G37*
G36*
X155719Y380305D02*
X155210D01*
X154739Y380110D01*
X154379Y379750D01*
X154185Y379280D01*
Y378771D01*
X154379Y378301D01*
X154739Y377941D01*
X155210Y377746D01*
X155719D01*
X156189Y377941D01*
X156549Y378301D01*
X156744Y378771D01*
Y379280D01*
X156549Y379750D01*
X156189Y380110D01*
X155719Y380305D01*
D02*
G37*
G36*
X351834Y382756D02*
X351133D01*
X350456Y382575D01*
X349849Y382224D01*
X349354Y381729D01*
X349003Y381122D01*
X348822Y380445D01*
Y379744D01*
X349003Y379067D01*
X349354Y378461D01*
X349849Y377965D01*
X350456Y377615D01*
X351133Y377433D01*
X351834D01*
X352511Y377615D01*
X353118Y377965D01*
X353613Y378461D01*
X353963Y379067D01*
X354145Y379744D01*
Y380445D01*
X353963Y381122D01*
X353613Y381729D01*
X353118Y382224D01*
X352511Y382575D01*
X351834Y382756D01*
D02*
G37*
G36*
X324351Y379476D02*
X323842D01*
X323372Y379281D01*
X323012Y378922D01*
X322817Y378451D01*
Y377942D01*
X323012Y377472D01*
X323372Y377112D01*
X323842Y376917D01*
X324351D01*
X324821Y377112D01*
X325181Y377472D01*
X325376Y377942D01*
Y378451D01*
X325181Y378922D01*
X324821Y379281D01*
X324351Y379476D01*
D02*
G37*
G36*
X79600Y383583D02*
X78667D01*
X77766Y383341D01*
X76958Y382875D01*
X76298Y382215D01*
X75832Y381407D01*
X75591Y380506D01*
Y379573D01*
X75832Y378672D01*
X76298Y377864D01*
X76958Y377204D01*
X77766Y376737D01*
X78667Y376496D01*
X79600D01*
X80502Y376737D01*
X81309Y377204D01*
X81969Y377864D01*
X82436Y378672D01*
X82677Y379573D01*
Y380506D01*
X82436Y381407D01*
X81969Y382215D01*
X81309Y382875D01*
X80502Y383341D01*
X79600Y383583D01*
D02*
G37*
G36*
X64640D02*
X63707D01*
X62806Y383341D01*
X61998Y382875D01*
X61338Y382215D01*
X60871Y381407D01*
X60630Y380506D01*
Y379573D01*
X60871Y378672D01*
X61338Y377864D01*
X61998Y377204D01*
X62806Y376737D01*
X63707Y376496D01*
X64640D01*
X65541Y376737D01*
X66349Y377204D01*
X67009Y377864D01*
X67475Y378672D01*
X67716Y379573D01*
Y380506D01*
X67475Y381407D01*
X67009Y382215D01*
X66349Y382875D01*
X65541Y383341D01*
X64640Y383583D01*
D02*
G37*
G36*
X113832Y377859D02*
X113323D01*
X112853Y377664D01*
X112493Y377305D01*
X112298Y376834D01*
Y376325D01*
X112493Y375855D01*
X112853Y375495D01*
X113323Y375300D01*
X113832D01*
X114302Y375495D01*
X114662Y375855D01*
X114857Y376325D01*
Y376834D01*
X114662Y377305D01*
X114302Y377664D01*
X113832Y377859D01*
D02*
G37*
G36*
X201232Y376980D02*
X200723D01*
X200253Y376786D01*
X199893Y376426D01*
X199698Y375956D01*
Y375447D01*
X199893Y374976D01*
X200253Y374616D01*
X200723Y374422D01*
X201232D01*
X201702Y374616D01*
X202030Y374944D01*
X202368Y374606D01*
X202839Y374411D01*
X203348D01*
X203818Y374606D01*
X203849Y374637D01*
X204216Y374923D01*
X204576Y374564D01*
X205046Y374369D01*
X205555D01*
X206026Y374564D01*
X206327Y374865D01*
X206403Y374850D01*
X206763Y374490D01*
X207233Y374295D01*
X207742D01*
X208212Y374490D01*
X208572Y374850D01*
X208767Y375320D01*
Y375829D01*
X208572Y376300D01*
X208212Y376659D01*
X207742Y376854D01*
X207233D01*
X206763Y376659D01*
X206461Y376358D01*
X206385Y376373D01*
X206026Y376733D01*
X205555Y376928D01*
X205046D01*
X204576Y376733D01*
X204545Y376702D01*
X204178Y376415D01*
X203818Y376775D01*
X203348Y376970D01*
X202839D01*
X202368Y376775D01*
X202041Y376447D01*
X201702Y376786D01*
X201232Y376980D01*
D02*
G37*
G36*
X258074Y378084D02*
X257565D01*
X257095Y377889D01*
X256735Y377529D01*
X256540Y377059D01*
Y376550D01*
X256735Y376079D01*
X256846Y375968D01*
X256749Y375871D01*
X256554Y375401D01*
Y374892D01*
X256749Y374422D01*
X256846Y374325D01*
X256763Y374242D01*
X256568Y373772D01*
Y373263D01*
X256763Y372793D01*
X257123Y372433D01*
X257593Y372238D01*
X258102D01*
X258572Y372433D01*
X258932Y372793D01*
X259040Y373053D01*
X259451D01*
X259921Y373247D01*
X260281Y373607D01*
X260475Y374078D01*
Y374587D01*
X260281Y375057D01*
X260170Y375168D01*
X260267Y375265D01*
X260461Y375735D01*
Y376244D01*
X260267Y376714D01*
X259907Y377074D01*
X259436Y377269D01*
X259012D01*
X258904Y377529D01*
X258544Y377889D01*
X258074Y378084D01*
D02*
G37*
G36*
X87081Y378583D02*
X86148D01*
X85246Y378341D01*
X84439Y377875D01*
X83779Y377215D01*
X83312Y376407D01*
X83071Y375506D01*
Y374573D01*
X83312Y373672D01*
X83779Y372864D01*
X84439Y372204D01*
X85246Y371738D01*
X86148Y371496D01*
X87081D01*
X87982Y371738D01*
X88790Y372204D01*
X89450Y372864D01*
X89916Y373672D01*
X90158Y374573D01*
Y375506D01*
X89916Y376407D01*
X89450Y377215D01*
X88790Y377875D01*
X87982Y378341D01*
X87081Y378583D01*
D02*
G37*
G36*
X72120D02*
X71187D01*
X70286Y378341D01*
X69478Y377875D01*
X68818Y377215D01*
X68352Y376407D01*
X68110Y375506D01*
Y374573D01*
X68352Y373672D01*
X68818Y372864D01*
X69478Y372204D01*
X70286Y371738D01*
X71187Y371496D01*
X72120D01*
X73021Y371738D01*
X73829Y372204D01*
X74489Y372864D01*
X74955Y373672D01*
X75197Y374573D01*
Y375506D01*
X74955Y376407D01*
X74489Y377215D01*
X73829Y377875D01*
X73021Y378341D01*
X72120Y378583D01*
D02*
G37*
G36*
X324685Y370739D02*
X324176D01*
X323706Y370544D01*
X323345Y370184D01*
X323151Y369713D01*
Y369204D01*
X323345Y368734D01*
X323706Y368374D01*
X324176Y368179D01*
X324685D01*
X325155Y368374D01*
X325515Y368734D01*
X325710Y369204D01*
Y369713D01*
X325515Y370184D01*
X325155Y370544D01*
X324685Y370739D01*
D02*
G37*
G36*
X79600Y373583D02*
X78667D01*
X77766Y373341D01*
X76958Y372875D01*
X76298Y372215D01*
X75832Y371407D01*
X75591Y370506D01*
Y369573D01*
X75832Y368672D01*
X76298Y367864D01*
X76958Y367204D01*
X77766Y366738D01*
X78667Y366496D01*
X79600D01*
X80502Y366738D01*
X81309Y367204D01*
X81969Y367864D01*
X82436Y368672D01*
X82677Y369573D01*
Y370506D01*
X82436Y371407D01*
X81969Y372215D01*
X81309Y372875D01*
X80502Y373341D01*
X79600Y373583D01*
D02*
G37*
G36*
X64640D02*
X63707D01*
X62806Y373341D01*
X61998Y372875D01*
X61338Y372215D01*
X60871Y371407D01*
X60630Y370506D01*
Y369573D01*
X60871Y368672D01*
X61338Y367864D01*
X61998Y367204D01*
X62806Y366738D01*
X63707Y366496D01*
X64640D01*
X65541Y366738D01*
X66349Y367204D01*
X67009Y367864D01*
X67475Y368672D01*
X67716Y369573D01*
Y370506D01*
X67475Y371407D01*
X67009Y372215D01*
X66349Y372875D01*
X65541Y373341D01*
X64640Y373583D01*
D02*
G37*
G36*
X164471Y366713D02*
X163962D01*
X163492Y366518D01*
X163132Y366158D01*
X162619Y366144D01*
X162259Y366504D01*
X161788Y366699D01*
X161279D01*
X160809Y366504D01*
X160449Y366144D01*
X160254Y365674D01*
Y365165D01*
X160449Y364694D01*
X160809Y364334D01*
X160812Y364318D01*
X160499Y364005D01*
X160304Y363535D01*
Y363026D01*
X160499Y362556D01*
X160859Y362195D01*
X161329Y362001D01*
X161838D01*
X162309Y362195D01*
X162627Y362513D01*
X162850Y362545D01*
X163198Y362526D01*
X163497Y362227D01*
X163968Y362032D01*
X164477D01*
X164947Y362227D01*
X165307Y362587D01*
X165501Y363057D01*
Y363566D01*
X165307Y364036D01*
X164968Y364375D01*
X165301Y364709D01*
X165496Y365179D01*
Y365688D01*
X165301Y366158D01*
X164941Y366518D01*
X164471Y366713D01*
D02*
G37*
G36*
X242420Y366615D02*
X241911D01*
X241441Y366420D01*
X241141Y366121D01*
X240855Y366407D01*
X240384Y366602D01*
X239875D01*
X239405Y366407D01*
X239045Y366047D01*
X238850Y365577D01*
Y365068D01*
X239045Y364597D01*
X239405Y364237D01*
X239875Y364043D01*
X240384D01*
X240855Y364237D01*
X241155Y364537D01*
X241441Y364251D01*
X241911Y364056D01*
X242420D01*
X242891Y364251D01*
X243250Y364611D01*
X243445Y365081D01*
Y365590D01*
X243250Y366060D01*
X242891Y366420D01*
X242420Y366615D01*
D02*
G37*
G36*
X303732Y366505D02*
X303223D01*
X302753Y366310D01*
X302446Y366004D01*
X302173Y365972D01*
X301872Y366001D01*
X301570Y366303D01*
X301100Y366498D01*
X300591D01*
X300121Y366303D01*
X299761Y365943D01*
X299566Y365473D01*
Y364964D01*
X299761Y364493D01*
X300121Y364133D01*
X300591Y363939D01*
X301100D01*
X301570Y364133D01*
X301877Y364440D01*
X302150Y364472D01*
X302451Y364443D01*
X302753Y364141D01*
X303223Y363946D01*
X303732D01*
X304202Y364141D01*
X304562Y364501D01*
X304757Y364971D01*
Y365480D01*
X304562Y365950D01*
X304202Y366310D01*
X303732Y366505D01*
D02*
G37*
G36*
X87160Y369189D02*
X87114D01*
Y365539D01*
X90764D01*
Y365586D01*
X90481Y366641D01*
X89935Y367587D01*
X89162Y368360D01*
X88216Y368906D01*
X87160Y369189D01*
D02*
G37*
G36*
X86114D02*
X86068D01*
X85013Y368906D01*
X84066Y368360D01*
X83294Y367587D01*
X82747Y366641D01*
X82465Y365586D01*
Y365539D01*
X86114D01*
Y369189D01*
D02*
G37*
G36*
X121245Y365127D02*
X120736D01*
X120266Y364932D01*
X119906Y364572D01*
X119711Y364102D01*
Y363593D01*
X119906Y363123D01*
X120266Y362763D01*
X120736Y362568D01*
X121245D01*
X121715Y362763D01*
X122075Y363123D01*
X122270Y363593D01*
Y364102D01*
X122075Y364572D01*
X121715Y364932D01*
X121245Y365127D01*
D02*
G37*
G36*
X72120Y368583D02*
X71187D01*
X70286Y368341D01*
X69478Y367875D01*
X68818Y367215D01*
X68352Y366407D01*
X68110Y365506D01*
Y364573D01*
X68352Y363672D01*
X68818Y362864D01*
X69478Y362204D01*
X70286Y361737D01*
X71187Y361496D01*
X72120D01*
X73021Y361737D01*
X73829Y362204D01*
X74489Y362864D01*
X74955Y363672D01*
X75197Y364573D01*
Y365506D01*
X74955Y366407D01*
X74489Y367215D01*
X73829Y367875D01*
X73021Y368341D01*
X72120Y368583D01*
D02*
G37*
G36*
X90764Y364539D02*
X87114D01*
Y360890D01*
X87160D01*
X88216Y361173D01*
X89162Y361719D01*
X89935Y362491D01*
X90481Y363438D01*
X90764Y364493D01*
Y364539D01*
D02*
G37*
G36*
X86114D02*
X82465D01*
Y364493D01*
X82747Y363438D01*
X83294Y362491D01*
X84066Y361719D01*
X85013Y361173D01*
X86068Y360890D01*
X86114D01*
Y364539D01*
D02*
G37*
G36*
X114218Y362460D02*
X113709D01*
X113239Y362266D01*
X112879Y361906D01*
X112684Y361435D01*
Y360926D01*
X112879Y360456D01*
X113239Y360096D01*
X113709Y359901D01*
X114218D01*
X114688Y360096D01*
X115048Y360456D01*
X115243Y360926D01*
Y361435D01*
X115048Y361906D01*
X114688Y362266D01*
X114218Y362460D01*
D02*
G37*
G36*
X79600Y363583D02*
X78667D01*
X77766Y363341D01*
X76958Y362875D01*
X76298Y362215D01*
X75832Y361407D01*
X75591Y360506D01*
Y359573D01*
X75832Y358672D01*
X76298Y357864D01*
X76958Y357204D01*
X77766Y356737D01*
X78667Y356496D01*
X79600D01*
X80502Y356737D01*
X81309Y357204D01*
X81969Y357864D01*
X82436Y358672D01*
X82677Y359573D01*
Y360506D01*
X82436Y361407D01*
X81969Y362215D01*
X81309Y362875D01*
X80502Y363341D01*
X79600Y363583D01*
D02*
G37*
G36*
X64640D02*
X63707D01*
X62806Y363341D01*
X61998Y362875D01*
X61338Y362215D01*
X60871Y361407D01*
X60630Y360506D01*
Y359573D01*
X60871Y358672D01*
X61338Y357864D01*
X61998Y357204D01*
X62806Y356737D01*
X63707Y356496D01*
X64640D01*
X65541Y356737D01*
X66349Y357204D01*
X67009Y357864D01*
X67475Y358672D01*
X67716Y359573D01*
Y360506D01*
X67475Y361407D01*
X67009Y362215D01*
X66349Y362875D01*
X65541Y363341D01*
X64640Y363583D01*
D02*
G37*
G36*
X170869Y357499D02*
X170360D01*
X169890Y357304D01*
X169530Y356944D01*
X169335Y356474D01*
Y355965D01*
X169530Y355495D01*
X169890Y355135D01*
X170360Y354940D01*
X170869D01*
X171339Y355135D01*
X171699Y355495D01*
X171894Y355965D01*
Y356474D01*
X171699Y356944D01*
X171339Y357304D01*
X170869Y357499D01*
D02*
G37*
G36*
X125287Y354215D02*
X124778D01*
X124307Y354020D01*
X123948Y353660D01*
X123753Y353190D01*
Y352681D01*
X123948Y352210D01*
X124307Y351850D01*
X124778Y351656D01*
X125287D01*
X125757Y351850D01*
X126117Y352210D01*
X126312Y352681D01*
Y353190D01*
X126117Y353660D01*
X125757Y354020D01*
X125287Y354215D01*
D02*
G37*
G36*
X87081Y358583D02*
X86148D01*
X85246Y358341D01*
X84439Y357875D01*
X83779Y357215D01*
X83312Y356407D01*
X83071Y355506D01*
Y354573D01*
X83312Y353672D01*
X83779Y352864D01*
X84439Y352204D01*
X85246Y351737D01*
X86148Y351496D01*
X87081D01*
X87982Y351737D01*
X88790Y352204D01*
X89450Y352864D01*
X89916Y353672D01*
X90158Y354573D01*
Y355506D01*
X89916Y356407D01*
X89450Y357215D01*
X88790Y357875D01*
X87982Y358341D01*
X87081Y358583D01*
D02*
G37*
G36*
X72120D02*
X71187D01*
X70286Y358341D01*
X69478Y357875D01*
X68818Y357215D01*
X68352Y356407D01*
X68110Y355506D01*
Y354573D01*
X68352Y353672D01*
X68818Y352864D01*
X69478Y352204D01*
X70286Y351737D01*
X71187Y351496D01*
X72120D01*
X73021Y351737D01*
X73829Y352204D01*
X74489Y352864D01*
X74955Y353672D01*
X75197Y354573D01*
Y355506D01*
X74955Y356407D01*
X74489Y357215D01*
X73829Y357875D01*
X73021Y358341D01*
X72120Y358583D01*
D02*
G37*
G36*
X141204Y357839D02*
X137267D01*
X136345Y357656D01*
X135564Y357134D01*
X135042Y356353D01*
X134858Y355431D01*
Y351494D01*
X135042Y350572D01*
X135205Y350328D01*
X135063Y349862D01*
X135032Y349831D01*
X134624Y349587D01*
X134264Y349947D01*
X133793Y350142D01*
X133284D01*
X132814Y349947D01*
X132454Y349587D01*
X132350Y349335D01*
X131882Y349528D01*
X131373D01*
X130903Y349334D01*
X130543Y348973D01*
X130348Y348503D01*
Y347994D01*
X130543Y347524D01*
X130706Y347361D01*
X130606Y347262D01*
X130411Y346792D01*
Y346283D01*
X130606Y345812D01*
X130966Y345452D01*
X131436Y345257D01*
X131945D01*
X132416Y345452D01*
X132775Y345812D01*
X132970Y346283D01*
Y346792D01*
X132780Y347250D01*
X132801Y347296D01*
X133075Y347669D01*
X133284Y347583D01*
X133793D01*
X134264Y347777D01*
X134295Y347808D01*
X134704Y348053D01*
X135063Y347693D01*
X135534Y347498D01*
X136043D01*
X136124Y347532D01*
X136736Y347263D01*
X136819Y347036D01*
X136768Y346911D01*
Y346402D01*
X136962Y345932D01*
X137322Y345572D01*
X137793Y345377D01*
X138302D01*
X138772Y345572D01*
X138900Y345700D01*
X139063Y345536D01*
X139533Y345341D01*
X140042D01*
X140512Y345536D01*
X140659Y345683D01*
X140797Y345544D01*
X141267Y345349D01*
X141776D01*
X142246Y345544D01*
X142606Y345904D01*
X142801Y346374D01*
Y346883D01*
X142714Y347094D01*
X143020Y347593D01*
X143192Y347618D01*
X143395Y347534D01*
X143904D01*
X144374Y347729D01*
X144385Y347740D01*
X145077Y347753D01*
X145547Y347558D01*
X146056D01*
X146149Y347597D01*
X146363Y347572D01*
X146425Y347516D01*
X146648Y347053D01*
X146531Y346771D01*
Y346262D01*
X146726Y345791D01*
X147086Y345431D01*
X147556Y345236D01*
X148065D01*
X148536Y345431D01*
X148896Y345791D01*
X149090Y346262D01*
Y346771D01*
X148896Y347241D01*
X148733Y347403D01*
X148864Y347534D01*
X149059Y348005D01*
Y348514D01*
X148864Y348984D01*
X148504Y349344D01*
X148034Y349539D01*
X147525D01*
X147432Y349500D01*
X146886Y349563D01*
X146527Y349923D01*
X146056Y350117D01*
X145547D01*
X145077Y349923D01*
X145066Y349912D01*
X144374Y349899D01*
X143904Y350093D01*
X143710D01*
X143429Y350572D01*
X143612Y351494D01*
Y355431D01*
X143429Y356353D01*
X142907Y357134D01*
X142126Y357656D01*
X141204Y357839D01*
D02*
G37*
G36*
X355339Y351698D02*
X352013D01*
Y347119D01*
X355339D01*
Y351698D01*
D02*
G37*
G36*
X79600Y353583D02*
X78667D01*
X77766Y353341D01*
X76958Y352875D01*
X76298Y352215D01*
X75832Y351407D01*
X75591Y350506D01*
Y349573D01*
X75832Y348672D01*
X76298Y347864D01*
X76958Y347204D01*
X77766Y346738D01*
X78667Y346496D01*
X79600D01*
X80502Y346738D01*
X81309Y347204D01*
X81969Y347864D01*
X82436Y348672D01*
X82677Y349573D01*
Y350506D01*
X82436Y351407D01*
X81969Y352215D01*
X81309Y352875D01*
X80502Y353341D01*
X79600Y353583D01*
D02*
G37*
G36*
X64640D02*
X63707D01*
X62806Y353341D01*
X61998Y352875D01*
X61338Y352215D01*
X60871Y351407D01*
X60630Y350506D01*
Y349573D01*
X60871Y348672D01*
X61338Y347864D01*
X61998Y347204D01*
X62806Y346738D01*
X63707Y346496D01*
X64640D01*
X65541Y346738D01*
X66349Y347204D01*
X67009Y347864D01*
X67475Y348672D01*
X67716Y349573D01*
Y350506D01*
X67475Y351407D01*
X67009Y352215D01*
X66349Y352875D01*
X65541Y353341D01*
X64640Y353583D01*
D02*
G37*
G36*
X311041Y345973D02*
X310532D01*
X310062Y345778D01*
X309702Y345418D01*
X309507Y344948D01*
Y344439D01*
X309702Y343968D01*
X310062Y343608D01*
X310532Y343414D01*
X311041D01*
X311511Y343608D01*
X311871Y343968D01*
X312066Y344439D01*
Y344948D01*
X311871Y345418D01*
X311511Y345778D01*
X311041Y345973D01*
D02*
G37*
G36*
X281389Y345900D02*
X280880D01*
X280409Y345706D01*
X280049Y345346D01*
X279855Y344875D01*
Y344366D01*
X280049Y343896D01*
X280409Y343536D01*
X280880Y343341D01*
X281389D01*
X281859Y343536D01*
X282219Y343896D01*
X282414Y344366D01*
Y344875D01*
X282219Y345346D01*
X281859Y345706D01*
X281389Y345900D01*
D02*
G37*
G36*
X188537Y345810D02*
X188028D01*
X187558Y345615D01*
X187198Y345255D01*
X187003Y344785D01*
Y344276D01*
X187198Y343805D01*
X187558Y343445D01*
X188028Y343251D01*
X188537D01*
X189007Y343445D01*
X189367Y343805D01*
X189562Y344276D01*
Y344785D01*
X189367Y345255D01*
X189007Y345615D01*
X188537Y345810D01*
D02*
G37*
G36*
X300960Y345672D02*
X300451D01*
X299981Y345477D01*
X299621Y345117D01*
X299426Y344647D01*
Y344138D01*
X299621Y343667D01*
X299981Y343307D01*
X300451Y343113D01*
X300960D01*
X301430Y343307D01*
X301790Y343667D01*
X301985Y344138D01*
Y344647D01*
X301790Y345117D01*
X301430Y345477D01*
X300960Y345672D01*
D02*
G37*
G36*
X201203Y345628D02*
X200694D01*
X200224Y345433D01*
X199864Y345074D01*
X199670Y344603D01*
Y344094D01*
X199864Y343624D01*
X200224Y343264D01*
X200694Y343069D01*
X201203D01*
X201674Y343264D01*
X202034Y343624D01*
X202228Y344094D01*
Y344603D01*
X202034Y345074D01*
X201674Y345433D01*
X201203Y345628D01*
D02*
G37*
G36*
X320863Y345599D02*
X320354D01*
X319884Y345404D01*
X319524Y345044D01*
X319329Y344574D01*
Y344065D01*
X319524Y343595D01*
X319884Y343235D01*
X320354Y343040D01*
X320863D01*
X321334Y343235D01*
X321694Y343595D01*
X321888Y344065D01*
Y344574D01*
X321694Y345044D01*
X321334Y345404D01*
X320863Y345599D01*
D02*
G37*
G36*
X261454Y345581D02*
X260945D01*
X260475Y345387D01*
X260115Y345027D01*
X259920Y344556D01*
Y344047D01*
X260115Y343577D01*
X260475Y343217D01*
X260945Y343022D01*
X261454D01*
X261924Y343217D01*
X262284Y343577D01*
X262479Y344047D01*
Y344556D01*
X262284Y345027D01*
X261924Y345387D01*
X261454Y345581D01*
D02*
G37*
G36*
X178411Y345447D02*
X177902D01*
X177432Y345252D01*
X177072Y344892D01*
X176877Y344422D01*
Y343913D01*
X177072Y343443D01*
X177432Y343082D01*
X177902Y342888D01*
X178411D01*
X178881Y343082D01*
X179241Y343443D01*
X179436Y343913D01*
Y344422D01*
X179241Y344892D01*
X178881Y345252D01*
X178411Y345447D01*
D02*
G37*
G36*
X168575Y345410D02*
X168066D01*
X167596Y345216D01*
X167236Y344856D01*
X167041Y344386D01*
Y343877D01*
X167236Y343406D01*
X167596Y343046D01*
X168066Y342851D01*
X168575D01*
X169046Y343046D01*
X169406Y343406D01*
X169600Y343877D01*
Y344386D01*
X169406Y344856D01*
X169046Y345216D01*
X168575Y345410D01*
D02*
G37*
G36*
X87081Y348583D02*
X86148D01*
X85246Y348341D01*
X84439Y347875D01*
X83779Y347215D01*
X83312Y346407D01*
X83071Y345506D01*
Y344573D01*
X83312Y343672D01*
X83779Y342864D01*
X84439Y342204D01*
X85246Y341738D01*
X86148Y341496D01*
X87081D01*
X87982Y341738D01*
X88790Y342204D01*
X89450Y342864D01*
X89916Y343672D01*
X90158Y344573D01*
Y345506D01*
X89916Y346407D01*
X89450Y347215D01*
X88790Y347875D01*
X87982Y348341D01*
X87081Y348583D01*
D02*
G37*
G36*
X72120D02*
X71187D01*
X70286Y348341D01*
X69478Y347875D01*
X68818Y347215D01*
X68352Y346407D01*
X68110Y345506D01*
Y344573D01*
X68352Y343672D01*
X68818Y342864D01*
X69478Y342204D01*
X70286Y341738D01*
X71187Y341496D01*
X72120D01*
X73021Y341738D01*
X73829Y342204D01*
X74489Y342864D01*
X74955Y343672D01*
X75197Y344573D01*
Y345506D01*
X74955Y346407D01*
X74489Y347215D01*
X73829Y347875D01*
X73021Y348341D01*
X72120Y348583D01*
D02*
G37*
G36*
X79680Y344189D02*
X79634D01*
Y340539D01*
X83284D01*
Y340586D01*
X83001Y341641D01*
X82454Y342587D01*
X81682Y343360D01*
X80736Y343906D01*
X79680Y344189D01*
D02*
G37*
G36*
X78634D02*
X78588D01*
X77532Y343906D01*
X76586Y343360D01*
X75813Y342587D01*
X75267Y341641D01*
X74984Y340586D01*
Y340539D01*
X78634D01*
Y344189D01*
D02*
G37*
G36*
X64640Y343583D02*
X63707D01*
X62806Y343341D01*
X61998Y342875D01*
X61338Y342215D01*
X60871Y341407D01*
X60630Y340506D01*
Y339573D01*
X60871Y338672D01*
X61338Y337864D01*
X61998Y337204D01*
X62806Y336737D01*
X63707Y336496D01*
X64640D01*
X65541Y336737D01*
X66349Y337204D01*
X67009Y337864D01*
X67475Y338672D01*
X67716Y339573D01*
Y340506D01*
X67475Y341407D01*
X67009Y342215D01*
X66349Y342875D01*
X65541Y343341D01*
X64640Y343583D01*
D02*
G37*
G36*
X155300Y340103D02*
X154360D01*
X153492Y339743D01*
X152828Y339078D01*
X152468Y338210D01*
Y337270D01*
X152705Y336698D01*
X152308Y336350D01*
X151496Y336819D01*
X150395Y337114D01*
X149255D01*
X148153Y336819D01*
X147356Y336358D01*
X146959Y336706D01*
X147193Y337270D01*
Y338210D01*
X146833Y339078D01*
X146168Y339743D01*
X145300Y340103D01*
X144360D01*
X143492Y339743D01*
X142828Y339078D01*
X142468Y338210D01*
Y337270D01*
X142705Y336698D01*
X142308Y336350D01*
X141497Y336818D01*
X140395Y337113D01*
X139255D01*
X138153Y336818D01*
X137356Y336358D01*
X136959Y336706D01*
X137192Y337270D01*
Y338210D01*
X136833Y339078D01*
X136168Y339743D01*
X135300Y340103D01*
X134360D01*
X133492Y339743D01*
X132828Y339078D01*
X132468Y338210D01*
Y337270D01*
X132828Y336402D01*
X133492Y335738D01*
X134360Y335378D01*
X135300D01*
X135885Y335620D01*
X136233Y335224D01*
X135789Y334454D01*
X135494Y333353D01*
Y332213D01*
X135789Y331111D01*
X136360Y330124D01*
X136360Y330123D01*
X136083Y329738D01*
X135214Y330098D01*
X134275D01*
X133406Y329738D01*
X132742Y329074D01*
X132382Y328205D01*
Y327266D01*
X132742Y326397D01*
X133406Y325733D01*
X134275Y325373D01*
X135214D01*
X136083Y325733D01*
X136747Y326397D01*
X137107Y327266D01*
Y328205D01*
X136747Y329074D01*
X137132Y329351D01*
X137166Y329317D01*
X138153Y328747D01*
X139255Y328452D01*
X140395D01*
X141497Y328747D01*
X142355Y329242D01*
X142763Y328922D01*
X142468Y328210D01*
Y327270D01*
X142828Y326402D01*
X143492Y325738D01*
X144360Y325378D01*
X145300D01*
X146168Y325738D01*
X146833Y326402D01*
X147193Y327270D01*
Y328210D01*
X146910Y328891D01*
X147309Y329235D01*
X148153Y328747D01*
X149255Y328452D01*
X150395D01*
X151496Y328747D01*
X152355Y329243D01*
X152763Y328923D01*
X152468Y328210D01*
Y327270D01*
X152828Y326402D01*
X153492Y325738D01*
X154360Y325378D01*
X155300D01*
X156168Y325738D01*
X156833Y326402D01*
X157193Y327270D01*
Y328210D01*
X156833Y329078D01*
X156168Y329743D01*
X155300Y330102D01*
X154360D01*
X153661Y329813D01*
X153556Y329901D01*
X153348Y330224D01*
X153860Y331111D01*
X154155Y332213D01*
Y333353D01*
X153860Y334455D01*
X153413Y335229D01*
X153761Y335626D01*
X154360Y335378D01*
X155300D01*
X156168Y335738D01*
X156833Y336402D01*
X157193Y337270D01*
Y338210D01*
X156833Y339078D01*
X156168Y339743D01*
X155300Y340103D01*
D02*
G37*
G36*
X325300D02*
X324360D01*
X323492Y339743D01*
X322828Y339078D01*
X322468Y338210D01*
Y337270D01*
X322705Y336698D01*
X322308Y336350D01*
X321497Y336818D01*
X320395Y337113D01*
X319255D01*
X318153Y336818D01*
X317356Y336358D01*
X316959Y336706D01*
X317193Y337270D01*
Y338210D01*
X316833Y339078D01*
X316168Y339743D01*
X315300Y340103D01*
X314360D01*
X313492Y339743D01*
X312828Y339078D01*
X312468Y338210D01*
Y337270D01*
X312705Y336698D01*
X312308Y336350D01*
X311496Y336819D01*
X310395Y337114D01*
X309255D01*
X308153Y336819D01*
X307356Y336358D01*
X306959Y336706D01*
X307192Y337270D01*
Y338210D01*
X306833Y339078D01*
X306168Y339743D01*
X305300Y340103D01*
X304360D01*
X303492Y339743D01*
X302828Y339078D01*
X302468Y338210D01*
Y337270D01*
X302828Y336402D01*
X303492Y335738D01*
X304360Y335378D01*
X305300D01*
X305885Y335620D01*
X306233Y335223D01*
X305789Y334455D01*
X305494Y333353D01*
Y332213D01*
X305789Y331111D01*
X306298Y330230D01*
X306064Y329882D01*
X305986Y329819D01*
X305300Y330102D01*
X304360D01*
X303492Y329743D01*
X302828Y329078D01*
X302468Y328210D01*
Y327270D01*
X302828Y326402D01*
X303492Y325738D01*
X304360Y325378D01*
X305300D01*
X306168Y325738D01*
X306833Y326402D01*
X307192Y327270D01*
Y328210D01*
X306910Y328891D01*
X307309Y329235D01*
X308153Y328747D01*
X309255Y328452D01*
X310395D01*
X311496Y328747D01*
X312355Y329243D01*
X312763Y328923D01*
X312468Y328210D01*
Y327270D01*
X312828Y326402D01*
X313492Y325738D01*
X314360Y325378D01*
X315300D01*
X316168Y325738D01*
X316833Y326402D01*
X317193Y327270D01*
Y328210D01*
X316910Y328892D01*
X317309Y329234D01*
X318153Y328747D01*
X319255Y328452D01*
X320395D01*
X321497Y328747D01*
X322355Y329242D01*
X322763Y328922D01*
X322468Y328210D01*
Y327270D01*
X322828Y326402D01*
X323492Y325738D01*
X324360Y325378D01*
X325300D01*
X326168Y325738D01*
X326833Y326402D01*
X327192Y327270D01*
Y328210D01*
X326833Y329078D01*
X326168Y329743D01*
X325300Y330102D01*
X324360D01*
X323662Y329813D01*
X323559Y329899D01*
X323349Y330225D01*
X323861Y331111D01*
X324156Y332213D01*
Y333353D01*
X323861Y334454D01*
X323413Y335229D01*
X323761Y335626D01*
X324360Y335378D01*
X325300D01*
X326168Y335738D01*
X326833Y336402D01*
X327192Y337270D01*
Y338210D01*
X326833Y339078D01*
X326168Y339743D01*
X325300Y340103D01*
D02*
G37*
G36*
X83284Y339539D02*
X79634D01*
Y335890D01*
X79680D01*
X80736Y336173D01*
X81682Y336719D01*
X82454Y337491D01*
X83001Y338438D01*
X83284Y339493D01*
Y339539D01*
D02*
G37*
G36*
X78634D02*
X74984D01*
Y339493D01*
X75267Y338438D01*
X75813Y337491D01*
X76586Y336719D01*
X77532Y336173D01*
X78588Y335890D01*
X78634D01*
Y339539D01*
D02*
G37*
G36*
X295300Y340103D02*
X294360D01*
X293492Y339743D01*
X292828Y339078D01*
X292468Y338210D01*
Y337270D01*
X292828Y336402D01*
X293492Y335738D01*
X294360Y335378D01*
X295300D01*
X296168Y335738D01*
X296833Y336402D01*
X297193Y337270D01*
Y338210D01*
X296833Y339078D01*
X296168Y339743D01*
X295300Y340103D01*
D02*
G37*
G36*
X285300D02*
X284360D01*
X283492Y339743D01*
X282828Y339078D01*
X282468Y338210D01*
Y337270D01*
X282828Y336402D01*
X283492Y335738D01*
X284360Y335378D01*
X285300D01*
X286168Y335738D01*
X286833Y336402D01*
X287193Y337270D01*
Y338210D01*
X286833Y339078D01*
X286168Y339743D01*
X285300Y340103D01*
D02*
G37*
G36*
X275300D02*
X274360D01*
X273492Y339743D01*
X272828Y339078D01*
X272468Y338210D01*
Y337270D01*
X272828Y336402D01*
X273492Y335738D01*
X274360Y335378D01*
X275300D01*
X276168Y335738D01*
X276833Y336402D01*
X277192Y337270D01*
Y338210D01*
X276833Y339078D01*
X276168Y339743D01*
X275300Y340103D01*
D02*
G37*
G36*
X265300D02*
X264360D01*
X263492Y339743D01*
X262828Y339078D01*
X262468Y338210D01*
Y337270D01*
X262828Y336402D01*
X263492Y335738D01*
X264360Y335378D01*
X265300D01*
X266168Y335738D01*
X266833Y336402D01*
X267193Y337270D01*
Y338210D01*
X266833Y339078D01*
X266168Y339743D01*
X265300Y340103D01*
D02*
G37*
G36*
X255300D02*
X254360D01*
X253492Y339743D01*
X252828Y339078D01*
X252468Y338210D01*
Y337270D01*
X252828Y336402D01*
X253492Y335738D01*
X254360Y335378D01*
X255300D01*
X256168Y335738D01*
X256833Y336402D01*
X257192Y337270D01*
Y338210D01*
X256833Y339078D01*
X256168Y339743D01*
X255300Y340103D01*
D02*
G37*
G36*
X245300D02*
X244360D01*
X243492Y339743D01*
X242828Y339078D01*
X242468Y338210D01*
Y337270D01*
X242828Y336402D01*
X243492Y335738D01*
X244360Y335378D01*
X245300D01*
X246168Y335738D01*
X246833Y336402D01*
X247193Y337270D01*
Y338210D01*
X246833Y339078D01*
X246168Y339743D01*
X245300Y340103D01*
D02*
G37*
G36*
X235300D02*
X234360D01*
X233492Y339743D01*
X232828Y339078D01*
X232468Y338210D01*
Y337270D01*
X232828Y336402D01*
X233492Y335738D01*
X234360Y335378D01*
X235300D01*
X236168Y335738D01*
X236833Y336402D01*
X237193Y337270D01*
Y338210D01*
X236833Y339078D01*
X236168Y339743D01*
X235300Y340103D01*
D02*
G37*
G36*
X225300D02*
X224360D01*
X223492Y339743D01*
X222828Y339078D01*
X222468Y338210D01*
Y337270D01*
X222828Y336402D01*
X223492Y335738D01*
X224360Y335378D01*
X225300D01*
X226168Y335738D01*
X226833Y336402D01*
X227192Y337270D01*
Y338210D01*
X226833Y339078D01*
X226168Y339743D01*
X225300Y340103D01*
D02*
G37*
G36*
X215300D02*
X214360D01*
X213492Y339743D01*
X212828Y339078D01*
X212468Y338210D01*
Y337270D01*
X212828Y336402D01*
X213492Y335738D01*
X214360Y335378D01*
X215300D01*
X216168Y335738D01*
X216833Y336402D01*
X217193Y337270D01*
Y338210D01*
X216833Y339078D01*
X216168Y339743D01*
X215300Y340103D01*
D02*
G37*
G36*
X205300D02*
X204360D01*
X203492Y339743D01*
X202828Y339078D01*
X202468Y338210D01*
Y337270D01*
X202828Y336402D01*
X203492Y335738D01*
X204360Y335378D01*
X205300D01*
X206168Y335738D01*
X206833Y336402D01*
X207192Y337270D01*
Y338210D01*
X206833Y339078D01*
X206168Y339743D01*
X205300Y340103D01*
D02*
G37*
G36*
X195300D02*
X194360D01*
X193492Y339743D01*
X192828Y339078D01*
X192468Y338210D01*
Y337270D01*
X192828Y336402D01*
X193492Y335738D01*
X194360Y335378D01*
X195300D01*
X196168Y335738D01*
X196833Y336402D01*
X197193Y337270D01*
Y338210D01*
X196833Y339078D01*
X196168Y339743D01*
X195300Y340103D01*
D02*
G37*
G36*
X185300D02*
X184360D01*
X183492Y339743D01*
X182828Y339078D01*
X182468Y338210D01*
Y337270D01*
X182828Y336402D01*
X183492Y335738D01*
X184360Y335378D01*
X185300D01*
X186168Y335738D01*
X186833Y336402D01*
X187192Y337270D01*
Y338210D01*
X186833Y339078D01*
X186168Y339743D01*
X185300Y340103D01*
D02*
G37*
G36*
X175300D02*
X174360D01*
X173492Y339743D01*
X172828Y339078D01*
X172468Y338210D01*
Y337270D01*
X172828Y336402D01*
X173492Y335738D01*
X174360Y335378D01*
X175300D01*
X176168Y335738D01*
X176833Y336402D01*
X177192Y337270D01*
Y338210D01*
X176833Y339078D01*
X176168Y339743D01*
X175300Y340103D01*
D02*
G37*
G36*
X165300D02*
X164360D01*
X163492Y339743D01*
X162828Y339078D01*
X162468Y338210D01*
Y337270D01*
X162828Y336402D01*
X163492Y335738D01*
X164360Y335378D01*
X165300D01*
X166168Y335738D01*
X166833Y336402D01*
X167192Y337270D01*
Y338210D01*
X166833Y339078D01*
X166168Y339743D01*
X165300Y340103D01*
D02*
G37*
G36*
X116628Y345551D02*
X116120D01*
Y333240D01*
X128431D01*
Y333749D01*
X128115Y335740D01*
X127492Y337658D01*
X126577Y339455D01*
X125391Y341086D01*
X123966Y342512D01*
X122334Y343697D01*
X120537Y344613D01*
X118620Y345236D01*
X116628Y345551D01*
D02*
G37*
G36*
X343466D02*
X342958D01*
X340966Y345236D01*
X339049Y344613D01*
X337252Y343697D01*
X335620Y342512D01*
X334194Y341086D01*
X333009Y339455D01*
X332094Y337658D01*
X331471Y335740D01*
X331155Y333749D01*
Y333240D01*
X343466D01*
Y345551D01*
D02*
G37*
G36*
X115120D02*
X114611D01*
X112620Y345236D01*
X110702Y344613D01*
X108905Y343697D01*
X107274Y342512D01*
X105848Y341086D01*
X104663Y339455D01*
X103747Y337658D01*
X103124Y335740D01*
X102809Y333749D01*
Y333240D01*
X115120D01*
Y345551D01*
D02*
G37*
G36*
X206160Y334167D02*
X205651D01*
X205181Y333972D01*
X204821Y333612D01*
X204626Y333142D01*
Y332633D01*
X204821Y332162D01*
X205181Y331803D01*
X205651Y331608D01*
X206160D01*
X206631Y331803D01*
X206991Y332162D01*
X207186Y332633D01*
Y333142D01*
X206991Y333612D01*
X206631Y333972D01*
X206160Y334167D01*
D02*
G37*
G36*
X87081Y338583D02*
X86148D01*
X85246Y338341D01*
X84439Y337875D01*
X83779Y337215D01*
X83312Y336407D01*
X83071Y335506D01*
Y334573D01*
X83312Y333672D01*
X83779Y332864D01*
X84439Y332204D01*
X85246Y331737D01*
X86148Y331496D01*
X87081D01*
X87982Y331737D01*
X88790Y332204D01*
X89450Y332864D01*
X89916Y333672D01*
X90158Y334573D01*
Y335506D01*
X89916Y336407D01*
X89450Y337215D01*
X88790Y337875D01*
X87982Y338341D01*
X87081Y338583D01*
D02*
G37*
G36*
X72120D02*
X71187D01*
X70286Y338341D01*
X69478Y337875D01*
X68818Y337215D01*
X68352Y336407D01*
X68110Y335506D01*
Y334573D01*
X68352Y333672D01*
X68818Y332864D01*
X69478Y332204D01*
X70286Y331737D01*
X71187Y331496D01*
X72120D01*
X73021Y331737D01*
X73829Y332204D01*
X74489Y332864D01*
X74955Y333672D01*
X75197Y334573D01*
Y335506D01*
X74955Y336407D01*
X74489Y337215D01*
X73829Y337875D01*
X73021Y338341D01*
X72120Y338583D01*
D02*
G37*
G36*
X79600Y333583D02*
X78667D01*
X77766Y333341D01*
X76958Y332875D01*
X76298Y332215D01*
X75832Y331407D01*
X75591Y330506D01*
Y329573D01*
X75832Y328672D01*
X76298Y327864D01*
X76958Y327204D01*
X77766Y326737D01*
X78667Y326496D01*
X79600D01*
X80502Y326737D01*
X81309Y327204D01*
X81969Y327864D01*
X82436Y328672D01*
X82677Y329573D01*
Y330506D01*
X82436Y331407D01*
X81969Y332215D01*
X81309Y332875D01*
X80502Y333341D01*
X79600Y333583D01*
D02*
G37*
G36*
X64640D02*
X63707D01*
X62806Y333341D01*
X61998Y332875D01*
X61338Y332215D01*
X60871Y331407D01*
X60630Y330506D01*
Y329573D01*
X60871Y328672D01*
X61338Y327864D01*
X61998Y327204D01*
X62806Y326737D01*
X63707Y326496D01*
X64640D01*
X65541Y326737D01*
X66349Y327204D01*
X67009Y327864D01*
X67475Y328672D01*
X67716Y329573D01*
Y330506D01*
X67475Y331407D01*
X67009Y332215D01*
X66349Y332875D01*
X65541Y333341D01*
X64640Y333583D01*
D02*
G37*
G36*
X295300Y330102D02*
X294360D01*
X293492Y329743D01*
X292828Y329078D01*
X292468Y328210D01*
Y327270D01*
X292828Y326402D01*
X293492Y325738D01*
X294360Y325378D01*
X295300D01*
X296168Y325738D01*
X296833Y326402D01*
X297193Y327270D01*
Y328210D01*
X296833Y329078D01*
X296168Y329743D01*
X295300Y330102D01*
D02*
G37*
G36*
X285300D02*
X284360D01*
X283492Y329743D01*
X282828Y329078D01*
X282468Y328210D01*
Y327270D01*
X282828Y326402D01*
X283492Y325738D01*
X284360Y325378D01*
X285300D01*
X286168Y325738D01*
X286833Y326402D01*
X287193Y327270D01*
Y328210D01*
X286833Y329078D01*
X286168Y329743D01*
X285300Y330102D01*
D02*
G37*
G36*
X275300D02*
X274360D01*
X273492Y329743D01*
X272828Y329078D01*
X272468Y328210D01*
Y327270D01*
X272828Y326402D01*
X273492Y325738D01*
X274360Y325378D01*
X275300D01*
X276168Y325738D01*
X276833Y326402D01*
X277192Y327270D01*
Y328210D01*
X276833Y329078D01*
X276168Y329743D01*
X275300Y330102D01*
D02*
G37*
G36*
X265300D02*
X264360D01*
X263492Y329743D01*
X262828Y329078D01*
X262468Y328210D01*
Y327270D01*
X262828Y326402D01*
X263492Y325738D01*
X264360Y325378D01*
X265300D01*
X266168Y325738D01*
X266833Y326402D01*
X267193Y327270D01*
Y328210D01*
X266833Y329078D01*
X266168Y329743D01*
X265300Y330102D01*
D02*
G37*
G36*
X255300D02*
X254360D01*
X253492Y329743D01*
X252828Y329078D01*
X252468Y328210D01*
Y327270D01*
X252828Y326402D01*
X253492Y325738D01*
X254360Y325378D01*
X255300D01*
X256168Y325738D01*
X256833Y326402D01*
X257192Y327270D01*
Y328210D01*
X256833Y329078D01*
X256168Y329743D01*
X255300Y330102D01*
D02*
G37*
G36*
X245300D02*
X244360D01*
X243492Y329743D01*
X242828Y329078D01*
X242468Y328210D01*
Y327270D01*
X242828Y326402D01*
X243492Y325738D01*
X244360Y325378D01*
X245300D01*
X246168Y325738D01*
X246833Y326402D01*
X247193Y327270D01*
Y328210D01*
X246833Y329078D01*
X246168Y329743D01*
X245300Y330102D01*
D02*
G37*
G36*
X235300D02*
X234360D01*
X233492Y329743D01*
X232828Y329078D01*
X232468Y328210D01*
Y327270D01*
X232828Y326402D01*
X233492Y325738D01*
X234360Y325378D01*
X235300D01*
X236168Y325738D01*
X236833Y326402D01*
X237193Y327270D01*
Y328210D01*
X236833Y329078D01*
X236168Y329743D01*
X235300Y330102D01*
D02*
G37*
G36*
X225300D02*
X224360D01*
X223492Y329743D01*
X222828Y329078D01*
X222468Y328210D01*
Y327270D01*
X222828Y326402D01*
X223492Y325738D01*
X224360Y325378D01*
X225300D01*
X226168Y325738D01*
X226833Y326402D01*
X227192Y327270D01*
Y328210D01*
X226833Y329078D01*
X226168Y329743D01*
X225300Y330102D01*
D02*
G37*
G36*
X215300D02*
X214360D01*
X213492Y329743D01*
X212828Y329078D01*
X212468Y328210D01*
Y327270D01*
X212828Y326402D01*
X213492Y325738D01*
X214360Y325378D01*
X215300D01*
X216168Y325738D01*
X216833Y326402D01*
X217193Y327270D01*
Y328210D01*
X216833Y329078D01*
X216168Y329743D01*
X215300Y330102D01*
D02*
G37*
G36*
X205300D02*
X204360D01*
X203492Y329743D01*
X202828Y329078D01*
X202468Y328210D01*
Y327270D01*
X202828Y326402D01*
X203492Y325738D01*
X204360Y325378D01*
X205300D01*
X206168Y325738D01*
X206833Y326402D01*
X207192Y327270D01*
Y328210D01*
X206833Y329078D01*
X206168Y329743D01*
X205300Y330102D01*
D02*
G37*
G36*
X195300D02*
X194360D01*
X193492Y329743D01*
X192828Y329078D01*
X192468Y328210D01*
Y327270D01*
X192828Y326402D01*
X193492Y325738D01*
X194360Y325378D01*
X195300D01*
X196168Y325738D01*
X196833Y326402D01*
X197193Y327270D01*
Y328210D01*
X196833Y329078D01*
X196168Y329743D01*
X195300Y330102D01*
D02*
G37*
G36*
X185300D02*
X184360D01*
X183492Y329743D01*
X182828Y329078D01*
X182468Y328210D01*
Y327270D01*
X182828Y326402D01*
X183492Y325738D01*
X184360Y325378D01*
X185300D01*
X186168Y325738D01*
X186833Y326402D01*
X187192Y327270D01*
Y328210D01*
X186833Y329078D01*
X186168Y329743D01*
X185300Y330102D01*
D02*
G37*
G36*
X175300D02*
X174360D01*
X173492Y329743D01*
X172828Y329078D01*
X172468Y328210D01*
Y327270D01*
X172828Y326402D01*
X173492Y325738D01*
X174360Y325378D01*
X175300D01*
X176168Y325738D01*
X176833Y326402D01*
X177192Y327270D01*
Y328210D01*
X176833Y329078D01*
X176168Y329743D01*
X175300Y330102D01*
D02*
G37*
G36*
X165300D02*
X164360D01*
X163492Y329743D01*
X162828Y329078D01*
X162468Y328210D01*
Y327270D01*
X162828Y326402D01*
X163492Y325738D01*
X164360Y325378D01*
X165300D01*
X166168Y325738D01*
X166833Y326402D01*
X167192Y327270D01*
Y328210D01*
X166833Y329078D01*
X166168Y329743D01*
X165300Y330102D01*
D02*
G37*
G36*
X87081Y328583D02*
X86148D01*
X85246Y328341D01*
X84439Y327875D01*
X83779Y327215D01*
X83312Y326407D01*
X83071Y325506D01*
Y324573D01*
X83312Y323672D01*
X83779Y322864D01*
X84439Y322204D01*
X85246Y321738D01*
X86148Y321496D01*
X87081D01*
X87982Y321738D01*
X88790Y322204D01*
X89450Y322864D01*
X89916Y323672D01*
X90158Y324573D01*
Y325506D01*
X89916Y326407D01*
X89450Y327215D01*
X88790Y327875D01*
X87982Y328341D01*
X87081Y328583D01*
D02*
G37*
G36*
X72120D02*
X71187D01*
X70286Y328341D01*
X69478Y327875D01*
X68818Y327215D01*
X68352Y326407D01*
X68110Y325506D01*
Y324573D01*
X68352Y323672D01*
X68818Y322864D01*
X69478Y322204D01*
X70286Y321738D01*
X71187Y321496D01*
X72120D01*
X73021Y321738D01*
X73829Y322204D01*
X74489Y322864D01*
X74955Y323672D01*
X75197Y324573D01*
Y325506D01*
X74955Y326407D01*
X74489Y327215D01*
X73829Y327875D01*
X73021Y328341D01*
X72120Y328583D01*
D02*
G37*
G36*
X191860Y323227D02*
X191351D01*
X190881Y323032D01*
X190521Y322672D01*
X190326Y322202D01*
Y321693D01*
X190521Y321223D01*
X190881Y320863D01*
X191351Y320668D01*
X191860D01*
X192331Y320863D01*
X192691Y321223D01*
X192885Y321693D01*
Y322202D01*
X192691Y322672D01*
X192331Y323032D01*
X191860Y323227D01*
D02*
G37*
G36*
X201031Y322596D02*
X200521D01*
X200051Y322401D01*
X199691Y322041D01*
X199496Y321571D01*
Y321062D01*
X199691Y320592D01*
X200051Y320232D01*
X200521Y320037D01*
X201031D01*
X201501Y320232D01*
X201861Y320592D01*
X202056Y321062D01*
Y321571D01*
X201861Y322041D01*
X201501Y322401D01*
X201031Y322596D01*
D02*
G37*
G36*
X343466Y332240D02*
X331155D01*
Y331732D01*
X331471Y329740D01*
X332094Y327822D01*
X333009Y326026D01*
X334194Y324394D01*
X335620Y322969D01*
X337252Y321783D01*
X339049Y320868D01*
X340966Y320245D01*
X342958Y319929D01*
X343466D01*
Y332240D01*
D02*
G37*
G36*
X128431D02*
X116120D01*
Y319929D01*
X116628D01*
X118620Y320245D01*
X120537Y320868D01*
X122334Y321783D01*
X123966Y322969D01*
X125391Y324394D01*
X126577Y326026D01*
X127492Y327822D01*
X128115Y329740D01*
X128431Y331732D01*
Y332240D01*
D02*
G37*
G36*
X115120D02*
X102809D01*
Y331732D01*
X103124Y329740D01*
X103747Y327822D01*
X104663Y326026D01*
X105848Y324394D01*
X107274Y322969D01*
X108905Y321783D01*
X110702Y320868D01*
X112620Y320245D01*
X114611Y319929D01*
X115120D01*
Y332240D01*
D02*
G37*
G36*
X261326Y322298D02*
X260817D01*
X260347Y322103D01*
X259987Y321743D01*
X259792Y321273D01*
Y320764D01*
X259987Y320293D01*
X260347Y319933D01*
X260817Y319739D01*
X261326D01*
X261796Y319933D01*
X262157Y320293D01*
X262351Y320764D01*
Y321273D01*
X262157Y321743D01*
X261796Y322103D01*
X261326Y322298D01*
D02*
G37*
G36*
X271437Y322138D02*
X270928D01*
X270458Y321943D01*
X270098Y321583D01*
X269903Y321113D01*
Y320604D01*
X270098Y320134D01*
X270458Y319774D01*
X270928Y319579D01*
X271437D01*
X271907Y319774D01*
X272267Y320134D01*
X272462Y320604D01*
Y321113D01*
X272267Y321583D01*
X271907Y321943D01*
X271437Y322138D01*
D02*
G37*
G36*
X180903Y321970D02*
X180394D01*
X179924Y321775D01*
X179564Y321415D01*
X179369Y320945D01*
Y320436D01*
X179564Y319966D01*
X179924Y319606D01*
X180394Y319411D01*
X180903D01*
X181374Y319606D01*
X181734Y319966D01*
X181929Y320436D01*
Y320945D01*
X181734Y321415D01*
X181374Y321775D01*
X180903Y321970D01*
D02*
G37*
G36*
X291254Y321873D02*
X290745D01*
X290275Y321678D01*
X289915Y321319D01*
X289720Y320848D01*
Y320339D01*
X289915Y319869D01*
X290275Y319509D01*
X290745Y319314D01*
X291254D01*
X291724Y319509D01*
X292084Y319869D01*
X292279Y320339D01*
Y320848D01*
X292084Y321319D01*
X291724Y321678D01*
X291254Y321873D01*
D02*
G37*
G36*
X311183Y321446D02*
X310674D01*
X310204Y321252D01*
X309844Y320891D01*
X309649Y320421D01*
Y319912D01*
X309844Y319442D01*
X310204Y319082D01*
X310674Y318887D01*
X311183D01*
X311654Y319082D01*
X312014Y319442D01*
X312208Y319912D01*
Y320421D01*
X312014Y320891D01*
X311654Y321252D01*
X311183Y321446D01*
D02*
G37*
G36*
X300960Y321391D02*
X300451D01*
X299980Y321196D01*
X299620Y320836D01*
X299426Y320366D01*
Y319857D01*
X299620Y319387D01*
X299980Y319027D01*
X300451Y318832D01*
X300960D01*
X301430Y319027D01*
X301790Y319387D01*
X301985Y319857D01*
Y320366D01*
X301790Y320836D01*
X301430Y321196D01*
X300960Y321391D01*
D02*
G37*
G36*
X190876Y319405D02*
X190367D01*
X189897Y319210D01*
X189537Y318850D01*
X189342Y318380D01*
Y317871D01*
X189537Y317401D01*
X189897Y317041D01*
X190367Y316846D01*
X190876D01*
X191346Y317041D01*
X191706Y317401D01*
X191901Y317871D01*
Y318380D01*
X191706Y318850D01*
X191346Y319210D01*
X190876Y319405D01*
D02*
G37*
G36*
X79600Y323583D02*
X78667D01*
X77766Y323341D01*
X76958Y322875D01*
X76298Y322215D01*
X75832Y321407D01*
X75591Y320506D01*
Y319573D01*
X75832Y318672D01*
X76298Y317864D01*
X76958Y317204D01*
X77766Y316738D01*
X78667Y316496D01*
X79600D01*
X80502Y316738D01*
X81309Y317204D01*
X81969Y317864D01*
X82436Y318672D01*
X82677Y319573D01*
Y320506D01*
X82436Y321407D01*
X81969Y322215D01*
X81309Y322875D01*
X80502Y323341D01*
X79600Y323583D01*
D02*
G37*
G36*
X64640D02*
X63707D01*
X62806Y323341D01*
X61998Y322875D01*
X61338Y322215D01*
X60871Y321407D01*
X60630Y320506D01*
Y319573D01*
X60871Y318672D01*
X61338Y317864D01*
X61998Y317204D01*
X62806Y316738D01*
X63707Y316496D01*
X64640D01*
X65541Y316738D01*
X66349Y317204D01*
X67009Y317864D01*
X67475Y318672D01*
X67716Y319573D01*
Y320506D01*
X67475Y321407D01*
X67009Y322215D01*
X66349Y322875D01*
X65541Y323341D01*
X64640Y323583D01*
D02*
G37*
G36*
X87160Y319189D02*
X87114D01*
Y315539D01*
X90764D01*
Y315586D01*
X90481Y316641D01*
X89935Y317587D01*
X89162Y318360D01*
X88216Y318906D01*
X87160Y319189D01*
D02*
G37*
G36*
X86114D02*
X86068D01*
X85013Y318906D01*
X84066Y318360D01*
X83294Y317587D01*
X82747Y316641D01*
X82465Y315586D01*
Y315539D01*
X86114D01*
Y319189D01*
D02*
G37*
G36*
X258487Y315519D02*
X257978D01*
X257508Y315324D01*
X257148Y314964D01*
X256953Y314494D01*
Y313985D01*
X257148Y313514D01*
X257508Y313154D01*
X257978Y312960D01*
X258487D01*
X258957Y313154D01*
X259317Y313514D01*
X259512Y313985D01*
Y314494D01*
X259317Y314964D01*
X258957Y315324D01*
X258487Y315519D01*
D02*
G37*
G36*
X235120Y316729D02*
X234611D01*
X234140Y316534D01*
X233781Y316174D01*
X233586Y315704D01*
Y315195D01*
X233781Y314724D01*
X234140Y314365D01*
X234611Y314170D01*
X235120D01*
X235283Y314238D01*
X235757Y313892D01*
Y313664D01*
X235951Y313193D01*
X236311Y312833D01*
X236782Y312639D01*
X237291D01*
X237761Y312833D01*
X238121Y313193D01*
X238316Y313664D01*
Y314173D01*
X238121Y314643D01*
X237761Y315003D01*
X237291Y315198D01*
X236782D01*
X236618Y315130D01*
X236145Y315475D01*
Y315704D01*
X235950Y316174D01*
X235590Y316534D01*
X235120Y316729D01*
D02*
G37*
G36*
X72120Y318583D02*
X71187D01*
X70286Y318341D01*
X69478Y317875D01*
X68818Y317215D01*
X68352Y316407D01*
X68110Y315506D01*
Y314573D01*
X68352Y313672D01*
X68818Y312864D01*
X69478Y312204D01*
X70286Y311737D01*
X71187Y311496D01*
X72120D01*
X73021Y311737D01*
X73829Y312204D01*
X74489Y312864D01*
X74955Y313672D01*
X75197Y314573D01*
Y315506D01*
X74955Y316407D01*
X74489Y317215D01*
X73829Y317875D01*
X73021Y318341D01*
X72120Y318583D01*
D02*
G37*
G36*
X349436Y315929D02*
X348496D01*
X347628Y315570D01*
X346964Y314905D01*
X346604Y314037D01*
Y313097D01*
X346964Y312229D01*
X347628Y311564D01*
X348496Y311205D01*
X349436D01*
X350304Y311564D01*
X350969Y312229D01*
X351328Y313097D01*
Y314037D01*
X350969Y314905D01*
X350304Y315570D01*
X349436Y315929D01*
D02*
G37*
G36*
X339413Y315909D02*
X338473D01*
X337605Y315549D01*
X336941Y314885D01*
X336581Y314016D01*
Y313077D01*
X336941Y312208D01*
X337605Y311544D01*
X338473Y311184D01*
X339413D01*
X340281Y311544D01*
X340946Y312208D01*
X341305Y313077D01*
Y314016D01*
X340946Y314885D01*
X340281Y315549D01*
X339413Y315909D01*
D02*
G37*
G36*
X90764Y314539D02*
X87114D01*
Y310890D01*
X87160D01*
X88216Y311173D01*
X89162Y311719D01*
X89935Y312491D01*
X90481Y313438D01*
X90764Y314493D01*
Y314539D01*
D02*
G37*
G36*
X86114D02*
X82465D01*
Y314493D01*
X82747Y313438D01*
X83294Y312491D01*
X84066Y311719D01*
X85013Y311173D01*
X86068Y310890D01*
X86114D01*
Y314539D01*
D02*
G37*
G36*
X187626Y312770D02*
X187117D01*
X186647Y312575D01*
X186287Y312215D01*
X186092Y311745D01*
Y311236D01*
X186287Y310766D01*
X186647Y310406D01*
X187117Y310211D01*
X187626D01*
X188096Y310406D01*
X188456Y310766D01*
X188651Y311236D01*
Y311745D01*
X188456Y312215D01*
X188096Y312575D01*
X187626Y312770D01*
D02*
G37*
G36*
X79600Y313583D02*
X78667D01*
X77766Y313341D01*
X76958Y312875D01*
X76298Y312215D01*
X75832Y311407D01*
X75591Y310506D01*
Y309573D01*
X75832Y308672D01*
X76298Y307864D01*
X76958Y307204D01*
X77766Y306737D01*
X78667Y306496D01*
X79600D01*
X80502Y306737D01*
X81309Y307204D01*
X81969Y307864D01*
X82436Y308672D01*
X82677Y309573D01*
Y310506D01*
X82436Y311407D01*
X81969Y312215D01*
X81309Y312875D01*
X80502Y313341D01*
X79600Y313583D01*
D02*
G37*
G36*
X64640D02*
X63707D01*
X62806Y313341D01*
X61998Y312875D01*
X61338Y312215D01*
X60871Y311407D01*
X60630Y310506D01*
Y309573D01*
X60871Y308672D01*
X61338Y307864D01*
X61998Y307204D01*
X62806Y306737D01*
X63707Y306496D01*
X64640D01*
X65541Y306737D01*
X66349Y307204D01*
X67009Y307864D01*
X67475Y308672D01*
X67716Y309573D01*
Y310506D01*
X67475Y311407D01*
X67009Y312215D01*
X66349Y312875D01*
X65541Y313341D01*
X64640Y313583D01*
D02*
G37*
G36*
X330875Y307713D02*
X330366D01*
X329895Y307518D01*
X329536Y307158D01*
X329341Y306687D01*
Y306178D01*
X329536Y305708D01*
X329895Y305348D01*
X330366Y305153D01*
X330875D01*
X331345Y305348D01*
X331705Y305708D01*
X331900Y306178D01*
Y306687D01*
X331705Y307158D01*
X331345Y307518D01*
X330875Y307713D01*
D02*
G37*
G36*
X213728Y307684D02*
X213219D01*
X212748Y307490D01*
X212388Y307130D01*
X212194Y306659D01*
Y306150D01*
X212388Y305680D01*
X212748Y305320D01*
X213219Y305125D01*
X213728D01*
X214198Y305320D01*
X214558Y305680D01*
X214753Y306150D01*
Y306659D01*
X214558Y307130D01*
X214198Y307490D01*
X213728Y307684D01*
D02*
G37*
G36*
X142385Y307505D02*
X141876D01*
X141406Y307310D01*
X141046Y306950D01*
X140851Y306480D01*
Y305971D01*
X141046Y305501D01*
X141406Y305141D01*
X141876Y304946D01*
X142385D01*
X142855Y305141D01*
X143215Y305501D01*
X143410Y305971D01*
Y306480D01*
X143215Y306950D01*
X142855Y307310D01*
X142385Y307505D01*
D02*
G37*
G36*
X191989Y307442D02*
X191480D01*
X191009Y307247D01*
X190650Y306887D01*
X190455Y306417D01*
Y305908D01*
X190650Y305438D01*
X191009Y305078D01*
X191480Y304883D01*
X191989D01*
X192459Y305078D01*
X192819Y305438D01*
X193014Y305908D01*
Y306417D01*
X192819Y306887D01*
X192459Y307247D01*
X191989Y307442D01*
D02*
G37*
G36*
X220656Y307379D02*
X220147D01*
X219677Y307184D01*
X219317Y306824D01*
X219122Y306354D01*
Y305845D01*
X219317Y305374D01*
X219677Y305014D01*
X220147Y304820D01*
X220656D01*
X221127Y305014D01*
X221487Y305374D01*
X221681Y305845D01*
Y306354D01*
X221487Y306824D01*
X221127Y307184D01*
X220656Y307379D01*
D02*
G37*
G36*
X235859Y307192D02*
X235350D01*
X234880Y306997D01*
X234520Y306637D01*
X234325Y306167D01*
Y305658D01*
X234520Y305187D01*
X234880Y304827D01*
X235350Y304633D01*
X235859D01*
X236330Y304827D01*
X236689Y305187D01*
X236884Y305658D01*
Y306167D01*
X236689Y306637D01*
X236330Y306997D01*
X235859Y307192D01*
D02*
G37*
G36*
X173255Y306720D02*
X172746D01*
X172275Y306526D01*
X171915Y306166D01*
X171721Y305695D01*
Y305186D01*
X171915Y304716D01*
X172275Y304356D01*
X172746Y304161D01*
X173255D01*
X173725Y304356D01*
X174085Y304716D01*
X174279Y305186D01*
Y305695D01*
X174085Y306166D01*
X173725Y306526D01*
X173255Y306720D01*
D02*
G37*
G36*
X87081Y308583D02*
X86148D01*
X85246Y308341D01*
X84439Y307875D01*
X83779Y307215D01*
X83312Y306407D01*
X83071Y305506D01*
Y304573D01*
X83312Y303672D01*
X83779Y302864D01*
X84439Y302204D01*
X85246Y301737D01*
X86148Y301496D01*
X87081D01*
X87982Y301737D01*
X88790Y302204D01*
X89450Y302864D01*
X89916Y303672D01*
X90158Y304573D01*
Y305506D01*
X89916Y306407D01*
X89450Y307215D01*
X88790Y307875D01*
X87982Y308341D01*
X87081Y308583D01*
D02*
G37*
G36*
X72120D02*
X71187D01*
X70286Y308341D01*
X69478Y307875D01*
X68818Y307215D01*
X68352Y306407D01*
X68110Y305506D01*
Y304573D01*
X68352Y303672D01*
X68818Y302864D01*
X69478Y302204D01*
X70286Y301737D01*
X71187Y301496D01*
X72120D01*
X73021Y301737D01*
X73829Y302204D01*
X74489Y302864D01*
X74955Y303672D01*
X75197Y304573D01*
Y305506D01*
X74955Y306407D01*
X74489Y307215D01*
X73829Y307875D01*
X73021Y308341D01*
X72120Y308583D01*
D02*
G37*
G36*
X349436Y305929D02*
X348496D01*
X347628Y305570D01*
X346964Y304905D01*
X346604Y304037D01*
Y303097D01*
X346964Y302229D01*
X347628Y301565D01*
X348496Y301205D01*
X349436D01*
X350304Y301565D01*
X350969Y302229D01*
X351328Y303097D01*
Y304037D01*
X350969Y304905D01*
X350304Y305570D01*
X349436Y305929D01*
D02*
G37*
G36*
X339436D02*
X338496D01*
X337628Y305570D01*
X336964Y304905D01*
X336604Y304037D01*
Y303097D01*
X336964Y302229D01*
X337628Y301565D01*
X338496Y301205D01*
X339436D01*
X340304Y301565D01*
X340969Y302229D01*
X341328Y303097D01*
Y304037D01*
X340969Y304905D01*
X340304Y305570D01*
X339436Y305929D01*
D02*
G37*
G36*
X162416Y301788D02*
X161907D01*
X161436Y301593D01*
X161076Y301233D01*
X160882Y300763D01*
Y300719D01*
X160382Y300512D01*
X160205Y300689D01*
X159734Y300884D01*
X159225D01*
X158755Y300689D01*
X158395Y300329D01*
X158305Y300113D01*
X158017Y299865D01*
X157707Y299876D01*
X157455Y299981D01*
X156946D01*
X156475Y299786D01*
X156115Y299426D01*
X155949Y299024D01*
X155656Y298881D01*
X155420Y298814D01*
X155004Y298986D01*
X154495D01*
X154024Y298791D01*
X153665Y298431D01*
X153470Y297961D01*
Y297534D01*
X153149Y297365D01*
X153008Y297327D01*
X152729Y297605D01*
X152259Y297800D01*
X151750D01*
X151280Y297605D01*
X150920Y297246D01*
X150872Y297131D01*
X150303Y296826D01*
X149794D01*
X149324Y296631D01*
X148964Y296271D01*
X148769Y295801D01*
Y295292D01*
X148964Y294821D01*
X149324Y294461D01*
X149794Y294267D01*
X150303D01*
X150773Y294461D01*
X151133Y294821D01*
X151181Y294936D01*
X151750Y295241D01*
X152259D01*
X152729Y295436D01*
X153089Y295796D01*
X153284Y296266D01*
Y296693D01*
X153605Y296862D01*
X153746Y296901D01*
X154024Y296622D01*
X154495Y296427D01*
X155004D01*
X155474Y296622D01*
X155834Y296982D01*
X156000Y297384D01*
X156293Y297527D01*
X156529Y297594D01*
X156946Y297422D01*
X157455D01*
X157925Y297617D01*
X158285Y297976D01*
X158375Y298193D01*
X158663Y298440D01*
X158973Y298430D01*
X159225Y298325D01*
X159734D01*
X160205Y298520D01*
X160565Y298880D01*
X160759Y299350D01*
Y299394D01*
X161259Y299601D01*
X161436Y299424D01*
X161907Y299229D01*
X162416D01*
X162886Y299424D01*
X163246Y299784D01*
X163441Y300254D01*
Y300763D01*
X163246Y301233D01*
X162886Y301593D01*
X162416Y301788D01*
D02*
G37*
G36*
X222624Y299342D02*
X222115D01*
X221645Y299147D01*
X221285Y298787D01*
X221160Y298762D01*
X220935Y298987D01*
X220464Y299182D01*
X219955D01*
X219485Y298987D01*
X219125Y298627D01*
X218931Y298157D01*
Y297648D01*
X219125Y297178D01*
X219485Y296818D01*
X219955Y296623D01*
X220464D01*
X220935Y296818D01*
X221295Y297178D01*
X221419Y297202D01*
X221645Y296977D01*
X222115Y296782D01*
X222624D01*
X223094Y296977D01*
X223454Y297337D01*
X223649Y297808D01*
Y298317D01*
X223454Y298787D01*
X223094Y299147D01*
X222624Y299342D01*
D02*
G37*
G36*
X232170Y299237D02*
X231661D01*
X231190Y299042D01*
X230830Y298682D01*
X230609Y298639D01*
X230494Y298754D01*
X230023Y298949D01*
X229514D01*
X229044Y298754D01*
X228685Y298395D01*
X228328Y298752D01*
X227858Y298947D01*
X227349D01*
X226879Y298752D01*
X226539Y298413D01*
X226523Y298416D01*
X226163Y298776D01*
X225693Y298971D01*
X225184D01*
X224713Y298776D01*
X224354Y298416D01*
X224159Y297946D01*
Y297437D01*
X224354Y296967D01*
X224713Y296607D01*
X225184Y296412D01*
X225693D01*
X226163Y296607D01*
X226503Y296946D01*
X226519Y296943D01*
X226879Y296583D01*
X227349Y296388D01*
X227858D01*
X228328Y296583D01*
X228687Y296942D01*
X229044Y296585D01*
X229514Y296390D01*
X230023D01*
X230494Y296585D01*
X230854Y296944D01*
X231075Y296988D01*
X231190Y296873D01*
X231661Y296678D01*
X232170D01*
X232640Y296873D01*
X233000Y297233D01*
X233194Y297703D01*
Y298212D01*
X233000Y298682D01*
X232640Y299042D01*
X232170Y299237D01*
D02*
G37*
G36*
X251752Y299226D02*
X251243D01*
X250773Y299031D01*
X250413Y298671D01*
X250218Y298201D01*
Y297692D01*
X250413Y297221D01*
X250773Y296861D01*
X251243Y296667D01*
X251752D01*
X252222Y296861D01*
X252582Y297221D01*
X252777Y297692D01*
Y298201D01*
X252582Y298671D01*
X252222Y299031D01*
X251752Y299226D01*
D02*
G37*
G36*
X208410Y299225D02*
X207901D01*
X207431Y299030D01*
X207071Y298670D01*
X206931Y298332D01*
X206876Y298200D01*
X206389Y298056D01*
X205880D01*
X205409Y297862D01*
X205049Y297502D01*
X204855Y297031D01*
Y296522D01*
X205049Y296052D01*
X205409Y295692D01*
X205880Y295497D01*
X206389D01*
X206859Y295692D01*
X207219Y296052D01*
X207359Y296390D01*
X207414Y296522D01*
X207901Y296666D01*
X208410D01*
X208933Y296341D01*
X208998Y296184D01*
X209358Y295825D01*
X209828Y295630D01*
X210337D01*
X210807Y295825D01*
X211167Y296184D01*
X211362Y296655D01*
X211477Y296732D01*
X211755Y296617D01*
X212264D01*
X212735Y296811D01*
X213094Y297171D01*
X213289Y297642D01*
Y298151D01*
X213094Y298621D01*
X212735Y298981D01*
X212264Y299176D01*
X211755D01*
X211285Y298981D01*
X210925Y298621D01*
X210730Y298151D01*
X210615Y298074D01*
X210337Y298189D01*
X209828D01*
X209305Y298514D01*
X209241Y298670D01*
X208881Y299030D01*
X208410Y299225D01*
D02*
G37*
G36*
X79600Y303583D02*
X78667D01*
X77766Y303341D01*
X76958Y302875D01*
X76298Y302215D01*
X75832Y301407D01*
X75591Y300506D01*
Y299573D01*
X75832Y298672D01*
X76298Y297864D01*
X76958Y297204D01*
X77766Y296738D01*
X78667Y296496D01*
X79600D01*
X80502Y296738D01*
X81309Y297204D01*
X81969Y297864D01*
X82436Y298672D01*
X82677Y299573D01*
Y300506D01*
X82436Y301407D01*
X81969Y302215D01*
X81309Y302875D01*
X80502Y303341D01*
X79600Y303583D01*
D02*
G37*
G36*
X64640D02*
X63707D01*
X62806Y303341D01*
X61998Y302875D01*
X61338Y302215D01*
X60871Y301407D01*
X60630Y300506D01*
Y299573D01*
X60871Y298672D01*
X61338Y297864D01*
X61998Y297204D01*
X62806Y296738D01*
X63707Y296496D01*
X64640D01*
X65541Y296738D01*
X66349Y297204D01*
X67009Y297864D01*
X67475Y298672D01*
X67716Y299573D01*
Y300506D01*
X67475Y301407D01*
X67009Y302215D01*
X66349Y302875D01*
X65541Y303341D01*
X64640Y303583D01*
D02*
G37*
G36*
X237616Y299230D02*
X237107D01*
X236636Y299035D01*
X236277Y298675D01*
X236082Y298205D01*
Y297696D01*
X236277Y297226D01*
X236636Y296866D01*
X237107Y296671D01*
X237616D01*
X237839Y296763D01*
X238394Y296730D01*
X238754Y296370D01*
X239224Y296175D01*
X239733D01*
X240203Y296370D01*
X240563Y296730D01*
X240758Y297200D01*
Y297709D01*
X240563Y298179D01*
X240203Y298539D01*
X239733Y298734D01*
X239224D01*
X239001Y298642D01*
X238446Y298675D01*
X238086Y299035D01*
X237616Y299230D01*
D02*
G37*
G36*
X243853Y299491D02*
X243344D01*
X242874Y299296D01*
X242514Y298936D01*
X242319Y298466D01*
Y297957D01*
X242514Y297487D01*
X242874Y297127D01*
X243344Y296932D01*
X243853D01*
X244411Y296622D01*
X244452Y296521D01*
X244812Y296162D01*
X245282Y295967D01*
X245791D01*
X246262Y296162D01*
X246297Y296194D01*
X246721Y296312D01*
X246903Y296154D01*
X246936Y296123D01*
X246976Y296083D01*
X247446Y295889D01*
X247955D01*
X248426Y296083D01*
X248786Y296443D01*
X248980Y296914D01*
Y297423D01*
X248786Y297893D01*
X248426Y298253D01*
X247955Y298448D01*
X247446D01*
X246976Y298253D01*
X246976Y298253D01*
X246941Y298221D01*
X246622Y297971D01*
X246262Y298331D01*
X245791Y298526D01*
X245282D01*
X244725Y298836D01*
X244683Y298936D01*
X244323Y299296D01*
X243853Y299491D01*
D02*
G37*
G36*
X196534Y299655D02*
X196025D01*
X195555Y299461D01*
X195195Y299101D01*
X195000Y298630D01*
Y298121D01*
X194995Y298114D01*
X194502D01*
X194032Y297919D01*
X193672Y297559D01*
X193477Y297089D01*
Y296580D01*
X193672Y296109D01*
X194032Y295749D01*
X194502Y295554D01*
X195011D01*
X195481Y295749D01*
X195841Y296109D01*
X196036Y296580D01*
Y297089D01*
X196041Y297096D01*
X196534D01*
X196999Y296747D01*
Y296618D01*
X197194Y296148D01*
X197554Y295788D01*
X198024Y295593D01*
X198533D01*
X199003Y295788D01*
X199363Y296148D01*
X199526Y296542D01*
X199897Y296925D01*
X199902Y296928D01*
X200411D01*
X200881Y297123D01*
X201241Y297483D01*
X201436Y297953D01*
Y298462D01*
X201241Y298932D01*
X200881Y299292D01*
X200411Y299487D01*
X199902D01*
X199431Y299292D01*
X199072Y298932D01*
X198908Y298538D01*
X198537Y298155D01*
X198533Y298152D01*
X198024D01*
X197559Y298501D01*
Y298630D01*
X197365Y299101D01*
X197005Y299461D01*
X196534Y299655D01*
D02*
G37*
G36*
X142367Y296080D02*
X141858D01*
X141388Y295885D01*
X141028Y295525D01*
X140833Y295055D01*
Y294546D01*
X141028Y294075D01*
X141388Y293715D01*
X141858Y293521D01*
X142367D01*
X142837Y293715D01*
X143197Y294075D01*
X143392Y294546D01*
Y295055D01*
X143197Y295525D01*
X142837Y295885D01*
X142367Y296080D01*
D02*
G37*
G36*
X216693Y297251D02*
X216184D01*
X215714Y297056D01*
X215354Y296696D01*
X215159Y296226D01*
Y295717D01*
X215354Y295247D01*
X215714Y294887D01*
X216184Y294692D01*
X216238D01*
X216628Y294327D01*
Y293818D01*
X216823Y293348D01*
X217183Y292988D01*
X217653Y292793D01*
X218162D01*
X218632Y292988D01*
X218857Y293213D01*
X219120Y292950D01*
X219590Y292756D01*
X220099D01*
X220569Y292950D01*
X220929Y293310D01*
X221124Y293781D01*
Y294290D01*
X220929Y294760D01*
X220569Y295120D01*
X220099Y295315D01*
X219590D01*
X219120Y295120D01*
X218895Y294895D01*
X218632Y295157D01*
X218162Y295352D01*
X218108D01*
X217718Y295717D01*
Y296226D01*
X217523Y296696D01*
X217163Y297056D01*
X216693Y297251D01*
D02*
G37*
G36*
X147172Y295832D02*
X146663D01*
X146193Y295637D01*
X145833Y295277D01*
X145638Y294807D01*
Y294716D01*
X145471Y294282D01*
X145176Y294254D01*
X144951D01*
X144481Y294059D01*
X144121Y293699D01*
X143926Y293229D01*
Y292720D01*
X144121Y292249D01*
X144481Y291890D01*
X144951Y291695D01*
X145460D01*
X145931Y291890D01*
X146291Y292249D01*
X146485Y292720D01*
Y292811D01*
X146652Y293245D01*
X146947Y293273D01*
X147172D01*
X147642Y293468D01*
X148002Y293828D01*
X148197Y294298D01*
Y294807D01*
X148002Y295277D01*
X147642Y295637D01*
X147172Y295832D01*
D02*
G37*
G36*
X269944Y294212D02*
X269435D01*
X268965Y294017D01*
X268605Y293657D01*
X268410Y293187D01*
Y292678D01*
X268605Y292208D01*
X268965Y291847D01*
X269435Y291653D01*
X269944D01*
X270414Y291847D01*
X270774Y292208D01*
X270969Y292678D01*
Y293187D01*
X270774Y293657D01*
X270414Y294017D01*
X269944Y294212D01*
D02*
G37*
G36*
X87081Y298583D02*
X86148D01*
X85246Y298341D01*
X84439Y297875D01*
X83779Y297215D01*
X83312Y296407D01*
X83071Y295506D01*
Y294573D01*
X83312Y293672D01*
X83779Y292864D01*
X84439Y292204D01*
X85246Y291738D01*
X86148Y291496D01*
X87081D01*
X87982Y291738D01*
X88790Y292204D01*
X89450Y292864D01*
X89916Y293672D01*
X90158Y294573D01*
Y295506D01*
X89916Y296407D01*
X89450Y297215D01*
X88790Y297875D01*
X87982Y298341D01*
X87081Y298583D01*
D02*
G37*
G36*
X72120D02*
X71187D01*
X70286Y298341D01*
X69478Y297875D01*
X68818Y297215D01*
X68352Y296407D01*
X68110Y295506D01*
Y294573D01*
X68352Y293672D01*
X68818Y292864D01*
X69478Y292204D01*
X70286Y291738D01*
X71187Y291496D01*
X72120D01*
X73021Y291738D01*
X73829Y292204D01*
X74489Y292864D01*
X74955Y293672D01*
X75197Y294573D01*
Y295506D01*
X74955Y296407D01*
X74489Y297215D01*
X73829Y297875D01*
X73021Y298341D01*
X72120Y298583D01*
D02*
G37*
G36*
X188342Y298473D02*
X187833D01*
X187363Y298278D01*
X187003Y297918D01*
X186808Y297448D01*
Y296939D01*
X187003Y296468D01*
X187363Y296108D01*
X187241Y295617D01*
X187103Y295283D01*
Y294774D01*
X187298Y294304D01*
X187607Y293995D01*
X187658Y293924D01*
X187665Y293400D01*
X187521Y293255D01*
X187326Y292785D01*
Y292276D01*
X187521Y291806D01*
X187881Y291446D01*
X188351Y291251D01*
X188860D01*
X189330Y291446D01*
X189690Y291806D01*
X189885Y292276D01*
Y292785D01*
X189690Y293255D01*
X189381Y293564D01*
X189330Y293635D01*
X189323Y294160D01*
X189468Y294304D01*
X189662Y294774D01*
Y295283D01*
X189468Y295754D01*
X189108Y296114D01*
X189229Y296605D01*
X189367Y296939D01*
Y297448D01*
X189172Y297918D01*
X188812Y298278D01*
X188342Y298473D01*
D02*
G37*
G36*
X79680Y294189D02*
X79634D01*
Y290539D01*
X83284D01*
Y290586D01*
X83001Y291641D01*
X82454Y292587D01*
X81682Y293360D01*
X80736Y293906D01*
X79680Y294189D01*
D02*
G37*
G36*
X78634D02*
X78588D01*
X77532Y293906D01*
X76586Y293360D01*
X75813Y292587D01*
X75267Y291641D01*
X74984Y290586D01*
Y290539D01*
X78634D01*
Y294189D01*
D02*
G37*
G36*
X299640Y291905D02*
X299620D01*
Y288452D01*
X303073D01*
Y288472D01*
X302803Y289478D01*
X302283Y290379D01*
X301547Y291115D01*
X300646Y291635D01*
X299640Y291905D01*
D02*
G37*
G36*
X298620D02*
X298600D01*
X297594Y291635D01*
X296693Y291115D01*
X295957Y290379D01*
X295437Y289478D01*
X295167Y288472D01*
Y288452D01*
X298620D01*
Y291905D01*
D02*
G37*
G36*
X64640Y293583D02*
X63707D01*
X62806Y293341D01*
X61998Y292875D01*
X61338Y292215D01*
X60871Y291407D01*
X60630Y290506D01*
Y289573D01*
X60871Y288672D01*
X61338Y287864D01*
X61998Y287204D01*
X62806Y286737D01*
X63707Y286496D01*
X64640D01*
X65541Y286737D01*
X66349Y287204D01*
X67009Y287864D01*
X67475Y288672D01*
X67716Y289573D01*
Y290506D01*
X67475Y291407D01*
X67009Y292215D01*
X66349Y292875D01*
X65541Y293341D01*
X64640Y293583D01*
D02*
G37*
G36*
X277896Y288600D02*
X277387D01*
X276917Y288405D01*
X276557Y288046D01*
X276362Y287575D01*
Y287066D01*
X276557Y286596D01*
X276917Y286236D01*
X277387Y286041D01*
X277896D01*
X278366Y286236D01*
X278726Y286596D01*
X278921Y287066D01*
Y287575D01*
X278726Y288046D01*
X278366Y288405D01*
X277896Y288600D01*
D02*
G37*
G36*
X83284Y289539D02*
X79634D01*
Y285890D01*
X79680D01*
X80736Y286173D01*
X81682Y286719D01*
X82454Y287491D01*
X83001Y288438D01*
X83284Y289493D01*
Y289539D01*
D02*
G37*
G36*
X78634D02*
X74984D01*
Y289493D01*
X75267Y288438D01*
X75813Y287491D01*
X76586Y286719D01*
X77532Y286173D01*
X78588Y285890D01*
X78634D01*
Y289539D01*
D02*
G37*
G36*
X352467Y291299D02*
X345774D01*
Y284606D01*
X352467D01*
Y291299D01*
D02*
G37*
G36*
X339561D02*
X338680D01*
X337828Y291070D01*
X337065Y290630D01*
X336442Y290007D01*
X336002Y289244D01*
X335774Y288393D01*
Y287511D01*
X336002Y286660D01*
X336442Y285897D01*
X337065Y285274D01*
X337828Y284834D01*
X338680Y284606D01*
X339561D01*
X340412Y284834D01*
X341175Y285274D01*
X341798Y285897D01*
X342238Y286660D01*
X342467Y287511D01*
Y288393D01*
X342238Y289244D01*
X341798Y290007D01*
X341175Y290630D01*
X340412Y291070D01*
X339561Y291299D01*
D02*
G37*
G36*
X329561D02*
X328679D01*
X327828Y291070D01*
X327065Y290630D01*
X326442Y290007D01*
X326002Y289244D01*
X325774Y288393D01*
Y287511D01*
X326002Y286660D01*
X326442Y285897D01*
X327065Y285274D01*
X327828Y284834D01*
X328679Y284606D01*
X329561D01*
X330412Y284834D01*
X331175Y285274D01*
X331798Y285897D01*
X332239Y286660D01*
X332467Y287511D01*
Y288393D01*
X332239Y289244D01*
X331798Y290007D01*
X331175Y290630D01*
X330412Y291070D01*
X329561Y291299D01*
D02*
G37*
G36*
X319561D02*
X318679D01*
X317828Y291070D01*
X317065Y290630D01*
X316442Y290007D01*
X316002Y289244D01*
X315774Y288393D01*
Y287511D01*
X316002Y286660D01*
X316442Y285897D01*
X317065Y285274D01*
X317828Y284834D01*
X318679Y284606D01*
X319561D01*
X320412Y284834D01*
X321175Y285274D01*
X321798Y285897D01*
X322238Y286660D01*
X322467Y287511D01*
Y288393D01*
X322238Y289244D01*
X321798Y290007D01*
X321175Y290630D01*
X320412Y291070D01*
X319561Y291299D01*
D02*
G37*
G36*
X309561D02*
X308680D01*
X307828Y291070D01*
X307065Y290630D01*
X306442Y290007D01*
X306002Y289244D01*
X305774Y288393D01*
Y287511D01*
X306002Y286660D01*
X306442Y285897D01*
X307065Y285274D01*
X307828Y284834D01*
X308680Y284606D01*
X309561D01*
X310412Y284834D01*
X311175Y285274D01*
X311798Y285897D01*
X312239Y286660D01*
X312467Y287511D01*
Y288393D01*
X312239Y289244D01*
X311798Y290007D01*
X311175Y290630D01*
X310412Y291070D01*
X309561Y291299D01*
D02*
G37*
G36*
X303073Y287452D02*
X299620D01*
Y283999D01*
X299640D01*
X300646Y284269D01*
X301547Y284789D01*
X302283Y285525D01*
X302803Y286426D01*
X303073Y287432D01*
Y287452D01*
D02*
G37*
G36*
X298620D02*
X295167D01*
Y287432D01*
X295437Y286426D01*
X295957Y285525D01*
X296693Y284789D01*
X297594Y284269D01*
X298600Y283999D01*
X298620D01*
Y287452D01*
D02*
G37*
G36*
X87081Y288583D02*
X86148D01*
X85246Y288341D01*
X84439Y287875D01*
X83779Y287215D01*
X83312Y286407D01*
X83071Y285506D01*
Y284573D01*
X83312Y283672D01*
X83779Y282864D01*
X84439Y282204D01*
X85246Y281737D01*
X86148Y281496D01*
X87081D01*
X87982Y281737D01*
X88790Y282204D01*
X89450Y282864D01*
X89916Y283672D01*
X90158Y284573D01*
Y285506D01*
X89916Y286407D01*
X89450Y287215D01*
X88790Y287875D01*
X87982Y288341D01*
X87081Y288583D01*
D02*
G37*
G36*
X72120D02*
X71187D01*
X70286Y288341D01*
X69478Y287875D01*
X68818Y287215D01*
X68352Y286407D01*
X68110Y285506D01*
Y284573D01*
X68352Y283672D01*
X68818Y282864D01*
X69478Y282204D01*
X70286Y281737D01*
X71187Y281496D01*
X72120D01*
X73021Y281737D01*
X73829Y282204D01*
X74489Y282864D01*
X74955Y283672D01*
X75197Y284573D01*
Y285506D01*
X74955Y286407D01*
X74489Y287215D01*
X73829Y287875D01*
X73021Y288341D01*
X72120Y288583D01*
D02*
G37*
G36*
X184726Y294053D02*
X184217D01*
X183747Y293858D01*
X183387Y293498D01*
X183192Y293028D01*
Y292519D01*
X183387Y292049D01*
X183747Y291689D01*
X183563Y291224D01*
X183416Y290870D01*
Y290361D01*
X183611Y289891D01*
X183971Y289530D01*
X184060Y289493D01*
X184353Y288894D01*
Y288385D01*
X184072Y287756D01*
X184037Y287742D01*
X183677Y287382D01*
X183483Y286912D01*
Y286403D01*
X183677Y285932D01*
X184037Y285572D01*
X184508Y285378D01*
X184532Y285340D01*
X184364Y284934D01*
Y284425D01*
X184380Y284386D01*
X184139Y283744D01*
X183779Y283384D01*
X183584Y282914D01*
Y282405D01*
X183779Y281935D01*
X184139Y281575D01*
X184609Y281380D01*
X185118D01*
X185588Y281575D01*
X185948Y281935D01*
X186143Y282405D01*
Y282914D01*
X186127Y282953D01*
X186369Y283595D01*
X186728Y283955D01*
X186923Y284425D01*
Y284934D01*
X186728Y285404D01*
X186369Y285764D01*
X185898Y285959D01*
X185873Y285996D01*
X186042Y286403D01*
Y286912D01*
X186322Y287540D01*
X186358Y287555D01*
X186718Y287915D01*
X186912Y288385D01*
Y288894D01*
X186718Y289364D01*
X186358Y289724D01*
X186268Y289761D01*
X185976Y290361D01*
Y290870D01*
X185781Y291340D01*
X185421Y291700D01*
X185604Y292165D01*
X185751Y292519D01*
Y293028D01*
X185556Y293498D01*
X185196Y293858D01*
X184726Y294053D01*
D02*
G37*
G36*
X79600Y283583D02*
X78667D01*
X77766Y283341D01*
X76958Y282875D01*
X76298Y282215D01*
X75832Y281407D01*
X75591Y280506D01*
Y279573D01*
X75832Y278672D01*
X76298Y277864D01*
X76958Y277204D01*
X77766Y276737D01*
X78667Y276496D01*
X79600D01*
X80502Y276737D01*
X81309Y277204D01*
X81969Y277864D01*
X82436Y278672D01*
X82677Y279573D01*
Y280506D01*
X82436Y281407D01*
X81969Y282215D01*
X81309Y282875D01*
X80502Y283341D01*
X79600Y283583D01*
D02*
G37*
G36*
X64640D02*
X63707D01*
X62806Y283341D01*
X61998Y282875D01*
X61338Y282215D01*
X60871Y281407D01*
X60630Y280506D01*
Y279573D01*
X60871Y278672D01*
X61338Y277864D01*
X61998Y277204D01*
X62806Y276737D01*
X63707Y276496D01*
X64640D01*
X65541Y276737D01*
X66349Y277204D01*
X67009Y277864D01*
X67475Y278672D01*
X67716Y279573D01*
Y280506D01*
X67475Y281407D01*
X67009Y282215D01*
X66349Y282875D01*
X65541Y283341D01*
X64640Y283583D01*
D02*
G37*
G36*
X142298Y276777D02*
X141789D01*
X141319Y276582D01*
X140959Y276222D01*
X140764Y275751D01*
Y275242D01*
X140959Y274772D01*
X141319Y274412D01*
X141789Y274218D01*
X142298D01*
X142769Y274412D01*
X143129Y274772D01*
X143323Y275242D01*
Y275751D01*
X143129Y276222D01*
X142769Y276582D01*
X142298Y276777D01*
D02*
G37*
G36*
X260914Y276555D02*
X260405D01*
X259935Y276360D01*
X259575Y276000D01*
X259380Y275530D01*
Y275021D01*
X259575Y274551D01*
X259935Y274191D01*
X260405Y273996D01*
X260914D01*
X261384Y274191D01*
X261744Y274551D01*
X261939Y275021D01*
Y275530D01*
X261744Y276000D01*
X261384Y276360D01*
X260914Y276555D01*
D02*
G37*
G36*
X184834Y280040D02*
X184325D01*
X183854Y279845D01*
X183494Y279485D01*
X183300Y279015D01*
Y278506D01*
X183494Y278036D01*
X183854Y277676D01*
X184023Y277606D01*
X184353Y277096D01*
Y276587D01*
X184014Y276099D01*
X183856Y276034D01*
X183496Y275674D01*
X183301Y275204D01*
Y274695D01*
X183496Y274224D01*
X183856Y273864D01*
X184326Y273670D01*
X184448Y273487D01*
X184353Y273257D01*
Y272748D01*
X184548Y272278D01*
X184908Y271918D01*
X185378Y271723D01*
X185887D01*
X186358Y271918D01*
X186718Y272278D01*
X186912Y272748D01*
Y273257D01*
X186718Y273727D01*
X186358Y274087D01*
X185887Y274282D01*
X185765Y274465D01*
X185860Y274695D01*
Y275204D01*
X186199Y275691D01*
X186358Y275757D01*
X186718Y276117D01*
X186912Y276587D01*
Y277096D01*
X186718Y277567D01*
X186358Y277926D01*
X186189Y277996D01*
X185859Y278506D01*
Y279015D01*
X185664Y279485D01*
X185304Y279845D01*
X184834Y280040D01*
D02*
G37*
G36*
X87081Y278583D02*
X86148D01*
X85246Y278341D01*
X84439Y277875D01*
X83779Y277215D01*
X83312Y276407D01*
X83071Y275506D01*
Y274573D01*
X83312Y273672D01*
X83779Y272864D01*
X84439Y272204D01*
X85246Y271738D01*
X86148Y271496D01*
X87081D01*
X87982Y271738D01*
X88790Y272204D01*
X89450Y272864D01*
X89916Y273672D01*
X90158Y274573D01*
Y275506D01*
X89916Y276407D01*
X89450Y277215D01*
X88790Y277875D01*
X87982Y278341D01*
X87081Y278583D01*
D02*
G37*
G36*
X72120D02*
X71187D01*
X70286Y278341D01*
X69478Y277875D01*
X68818Y277215D01*
X68352Y276407D01*
X68110Y275506D01*
Y274573D01*
X68352Y273672D01*
X68818Y272864D01*
X69478Y272204D01*
X70286Y271738D01*
X71187Y271496D01*
X72120D01*
X73021Y271738D01*
X73829Y272204D01*
X74489Y272864D01*
X74955Y273672D01*
X75197Y274573D01*
Y275506D01*
X74955Y276407D01*
X74489Y277215D01*
X73829Y277875D01*
X73021Y278341D01*
X72120Y278583D01*
D02*
G37*
G36*
X162562Y271510D02*
X162053D01*
X161583Y271315D01*
X161223Y270955D01*
X161106Y270673D01*
X161015Y270628D01*
X160579Y270562D01*
X160561Y270565D01*
X160308Y270818D01*
X159837Y271013D01*
X159328D01*
X158858Y270818D01*
X158498Y270458D01*
X158303Y269988D01*
Y269813D01*
X158191Y269707D01*
X157803Y269526D01*
X157470Y269664D01*
X156961D01*
X156491Y269469D01*
X156131Y269109D01*
X155936Y268639D01*
Y268507D01*
X155436Y268299D01*
X155251Y268485D01*
X154780Y268680D01*
X154271D01*
X153801Y268485D01*
X153441Y268125D01*
X153246Y267655D01*
Y267259D01*
X152790Y267149D01*
X152746Y267148D01*
X152394Y267501D01*
X151924Y267695D01*
X151415D01*
X150944Y267501D01*
X150584Y267141D01*
X150412Y266724D01*
X150079Y266570D01*
X149912Y266516D01*
X149442Y266711D01*
X148933D01*
X148462Y266516D01*
X148102Y266156D01*
X147908Y265686D01*
X147408Y265405D01*
X147275Y265460D01*
X146766D01*
X146296Y265265D01*
X145936Y264906D01*
X145741Y264435D01*
Y263926D01*
X145936Y263456D01*
X146296Y263096D01*
X146766Y262901D01*
X147275D01*
X147745Y263096D01*
X148105Y263456D01*
X148300Y263926D01*
X148800Y264207D01*
X148933Y264152D01*
X149442D01*
X149912Y264347D01*
X150272Y264707D01*
X150445Y265124D01*
X150778Y265277D01*
X150944Y265331D01*
X151415Y265136D01*
X151924D01*
X152394Y265331D01*
X152754Y265691D01*
X152949Y266161D01*
Y266557D01*
X153405Y266667D01*
X153449Y266668D01*
X153801Y266315D01*
X154271Y266121D01*
X154780D01*
X155251Y266315D01*
X155610Y266675D01*
X155805Y267146D01*
Y267278D01*
X156305Y267485D01*
X156491Y267300D01*
X156961Y267105D01*
X157470D01*
X157940Y267300D01*
X158300Y267659D01*
X158495Y268130D01*
Y268304D01*
X158607Y268411D01*
X158995Y268592D01*
X159328Y268454D01*
X159837D01*
X160308Y268648D01*
X160668Y269008D01*
X160784Y269290D01*
X160876Y269335D01*
X161311Y269402D01*
X161329Y269399D01*
X161583Y269146D01*
X162053Y268951D01*
X162562D01*
X163032Y269146D01*
X163392Y269506D01*
X163587Y269976D01*
Y270485D01*
X163392Y270955D01*
X163032Y271315D01*
X162562Y271510D01*
D02*
G37*
G36*
X299358Y273083D02*
X299337D01*
Y269630D01*
X302790D01*
Y269650D01*
X302521Y270656D01*
X302000Y271557D01*
X301264Y272293D01*
X300363Y272813D01*
X299358Y273083D01*
D02*
G37*
G36*
X298337D02*
X298317D01*
X297312Y272813D01*
X296410Y272293D01*
X295674Y271557D01*
X295154Y270656D01*
X294885Y269650D01*
Y269630D01*
X298337D01*
Y273083D01*
D02*
G37*
G36*
X273254Y271837D02*
X272745D01*
X272275Y271642D01*
X271915Y271282D01*
X271720Y270812D01*
Y270303D01*
X271915Y269833D01*
X272275Y269473D01*
X272745Y269278D01*
X273254D01*
X273725Y269473D01*
X274085Y269833D01*
X274279Y270303D01*
Y270812D01*
X274085Y271282D01*
X273725Y271642D01*
X273254Y271837D01*
D02*
G37*
G36*
X260909Y272241D02*
X260400D01*
X259930Y272046D01*
X259570Y271686D01*
X259375Y271216D01*
Y270707D01*
X259083Y270208D01*
X258909Y270136D01*
X258549Y269777D01*
X258354Y269306D01*
Y268797D01*
X258549Y268327D01*
X258909Y267967D01*
X259379Y267772D01*
X259888D01*
X260358Y267967D01*
X260718Y268327D01*
X260913Y268797D01*
Y269306D01*
X261206Y269804D01*
X261380Y269876D01*
X261740Y270236D01*
X261934Y270707D01*
Y271216D01*
X261740Y271686D01*
X261380Y272046D01*
X260909Y272241D01*
D02*
G37*
G36*
X79600Y273583D02*
X78667D01*
X77766Y273341D01*
X76958Y272875D01*
X76298Y272215D01*
X75832Y271407D01*
X75591Y270506D01*
Y269573D01*
X75832Y268672D01*
X76298Y267864D01*
X76958Y267204D01*
X77766Y266738D01*
X78667Y266496D01*
X79600D01*
X80502Y266738D01*
X81309Y267204D01*
X81969Y267864D01*
X82436Y268672D01*
X82677Y269573D01*
Y270506D01*
X82436Y271407D01*
X81969Y272215D01*
X81309Y272875D01*
X80502Y273341D01*
X79600Y273583D01*
D02*
G37*
G36*
X64640D02*
X63707D01*
X62806Y273341D01*
X61998Y272875D01*
X61338Y272215D01*
X60871Y271407D01*
X60630Y270506D01*
Y269573D01*
X60871Y268672D01*
X61338Y267864D01*
X61998Y267204D01*
X62806Y266738D01*
X63707Y266496D01*
X64640D01*
X65541Y266738D01*
X66349Y267204D01*
X67009Y267864D01*
X67475Y268672D01*
X67716Y269573D01*
Y270506D01*
X67475Y271407D01*
X67009Y272215D01*
X66349Y272875D01*
X65541Y273341D01*
X64640Y273583D01*
D02*
G37*
G36*
X289278Y272476D02*
X288397D01*
X287546Y272248D01*
X286783Y271808D01*
X286160Y271185D01*
X285719Y270422D01*
X285491Y269570D01*
Y268689D01*
X285719Y267838D01*
X286160Y267075D01*
X286783Y266452D01*
X287546Y266012D01*
X288397Y265784D01*
X289278D01*
X290129Y266012D01*
X290892Y266452D01*
X291515Y267075D01*
X291956Y267838D01*
X292184Y268689D01*
Y269570D01*
X291956Y270422D01*
X291515Y271185D01*
X290892Y271808D01*
X290129Y272248D01*
X289278Y272476D01*
D02*
G37*
G36*
X87160Y269189D02*
X87114D01*
Y265539D01*
X90764D01*
Y265586D01*
X90481Y266641D01*
X89935Y267587D01*
X89162Y268360D01*
X88216Y268906D01*
X87160Y269189D01*
D02*
G37*
G36*
X86114D02*
X86068D01*
X85013Y268906D01*
X84066Y268360D01*
X83294Y267587D01*
X82747Y266641D01*
X82465Y265586D01*
Y265539D01*
X86114D01*
Y269189D01*
D02*
G37*
G36*
X302790Y268630D02*
X299337D01*
Y265177D01*
X299358D01*
X300363Y265447D01*
X301264Y265967D01*
X302000Y266703D01*
X302521Y267604D01*
X302790Y268610D01*
Y268630D01*
D02*
G37*
G36*
X298337D02*
X294885D01*
Y268610D01*
X295154Y267604D01*
X295674Y266703D01*
X296410Y265967D01*
X297312Y265447D01*
X298317Y265177D01*
X298337D01*
Y268630D01*
D02*
G37*
G36*
X176981Y267534D02*
X176472D01*
X176002Y267339D01*
X175642Y266979D01*
X175447Y266509D01*
Y266000D01*
X175642Y265529D01*
X176002Y265169D01*
X176472Y264975D01*
X176981D01*
X177452Y265169D01*
X177811Y265529D01*
X178006Y266000D01*
Y266509D01*
X177811Y266979D01*
X177452Y267339D01*
X176981Y267534D01*
D02*
G37*
G36*
X72120Y268583D02*
X71187D01*
X70286Y268341D01*
X69478Y267875D01*
X68818Y267215D01*
X68352Y266407D01*
X68110Y265506D01*
Y264573D01*
X68352Y263672D01*
X68818Y262864D01*
X69478Y262204D01*
X70286Y261737D01*
X71187Y261496D01*
X72120D01*
X73021Y261737D01*
X73829Y262204D01*
X74489Y262864D01*
X74955Y263672D01*
X75197Y264573D01*
Y265506D01*
X74955Y266407D01*
X74489Y267215D01*
X73829Y267875D01*
X73021Y268341D01*
X72120Y268583D01*
D02*
G37*
G36*
X144266Y263992D02*
X143757D01*
X143287Y263797D01*
X142927Y263437D01*
X142732Y262967D01*
Y262458D01*
X142927Y261988D01*
X143287Y261628D01*
X143757Y261433D01*
X144266D01*
X144737Y261628D01*
X145097Y261988D01*
X145291Y262458D01*
Y262967D01*
X145097Y263437D01*
X144737Y263797D01*
X144266Y263992D01*
D02*
G37*
G36*
X90764Y264539D02*
X87114D01*
Y260890D01*
X87160D01*
X88216Y261173D01*
X89162Y261719D01*
X89935Y262491D01*
X90481Y263438D01*
X90764Y264493D01*
Y264539D01*
D02*
G37*
G36*
X86114D02*
X82465D01*
Y264493D01*
X82747Y263438D01*
X83294Y262491D01*
X84066Y261719D01*
X85013Y261173D01*
X86068Y260890D01*
X86114D01*
Y264539D01*
D02*
G37*
G36*
X185887Y264468D02*
X185378D01*
X184908Y264273D01*
X184548Y263913D01*
X184353Y263442D01*
Y262933D01*
X184522Y262525D01*
X184498Y262489D01*
X184028Y262294D01*
X183668Y261934D01*
X183473Y261464D01*
Y260955D01*
X183668Y260485D01*
X184028Y260125D01*
X184498Y259930D01*
X184526Y259889D01*
X184353Y259472D01*
Y258963D01*
X184548Y258493D01*
X184138Y258275D01*
X184110Y258263D01*
X183750Y257903D01*
X183555Y257433D01*
Y256924D01*
X183750Y256454D01*
X184110Y256094D01*
X184580Y255899D01*
X185089D01*
X185559Y256094D01*
X185919Y256454D01*
X186114Y256924D01*
Y257433D01*
X185919Y257903D01*
X186329Y258121D01*
X186358Y258133D01*
X186718Y258493D01*
X186912Y258963D01*
Y259472D01*
X186718Y259942D01*
X186358Y260302D01*
X185887Y260497D01*
X185860Y260538D01*
X186032Y260955D01*
Y261464D01*
X185863Y261872D01*
X185887Y261909D01*
X186358Y262103D01*
X186718Y262463D01*
X186912Y262933D01*
Y263442D01*
X186718Y263913D01*
X186358Y264273D01*
X185887Y264468D01*
D02*
G37*
G36*
X299278Y262476D02*
X298397D01*
X297546Y262248D01*
X296783Y261808D01*
X296160Y261185D01*
X295719Y260422D01*
X295491Y259571D01*
Y258689D01*
X295719Y257838D01*
X296160Y257075D01*
X296783Y256452D01*
X297546Y256012D01*
X298397Y255784D01*
X299278D01*
X300129Y256012D01*
X300892Y256452D01*
X301515Y257075D01*
X301956Y257838D01*
X302184Y258689D01*
Y259571D01*
X301956Y260422D01*
X301515Y261185D01*
X300892Y261808D01*
X300129Y262248D01*
X299278Y262476D01*
D02*
G37*
G36*
X289278D02*
X288397D01*
X287546Y262248D01*
X286783Y261808D01*
X286160Y261185D01*
X285719Y260422D01*
X285491Y259571D01*
Y258689D01*
X285719Y257838D01*
X286160Y257075D01*
X286783Y256452D01*
X287546Y256012D01*
X288397Y255784D01*
X289278D01*
X290129Y256012D01*
X290892Y256452D01*
X291515Y257075D01*
X291956Y257838D01*
X292184Y258689D01*
Y259571D01*
X291956Y260422D01*
X291515Y261185D01*
X290892Y261808D01*
X290129Y262248D01*
X289278Y262476D01*
D02*
G37*
G36*
X142803Y255852D02*
X142293D01*
X141823Y255657D01*
X141463Y255297D01*
X141268Y254827D01*
Y254318D01*
X141463Y253848D01*
X141823Y253487D01*
X142293Y253293D01*
X142803D01*
X143273Y253487D01*
X143633Y253848D01*
X143827Y254318D01*
Y254827D01*
X143633Y255297D01*
X143273Y255657D01*
X142803Y255852D01*
D02*
G37*
G36*
X269652Y252512D02*
X269143D01*
X268673Y252317D01*
X268313Y251957D01*
X268118Y251487D01*
Y250978D01*
X268313Y250508D01*
X268673Y250148D01*
X269143Y249953D01*
X269652D01*
X270123Y250148D01*
X270483Y250508D01*
X270677Y250978D01*
Y251487D01*
X270483Y251957D01*
X270123Y252317D01*
X269652Y252512D01*
D02*
G37*
G36*
X79600Y253583D02*
X78667D01*
X77766Y253341D01*
X76958Y252875D01*
X76298Y252215D01*
X75832Y251407D01*
X75591Y250506D01*
Y249573D01*
X75832Y248672D01*
X76298Y247864D01*
X76958Y247204D01*
X77766Y246738D01*
X78667Y246496D01*
X79600D01*
X80502Y246738D01*
X81309Y247204D01*
X81969Y247864D01*
X82436Y248672D01*
X82677Y249573D01*
Y250506D01*
X82436Y251407D01*
X81969Y252215D01*
X81309Y252875D01*
X80502Y253341D01*
X79600Y253583D01*
D02*
G37*
G36*
X64640D02*
X63707D01*
X62806Y253341D01*
X61998Y252875D01*
X61338Y252215D01*
X60871Y251407D01*
X60630Y250506D01*
Y249573D01*
X60871Y248672D01*
X61338Y247864D01*
X61998Y247204D01*
X62806Y246738D01*
X63707Y246496D01*
X64640D01*
X65541Y246738D01*
X66349Y247204D01*
X67009Y247864D01*
X67475Y248672D01*
X67716Y249573D01*
Y250506D01*
X67475Y251407D01*
X67009Y252215D01*
X66349Y252875D01*
X65541Y253341D01*
X64640Y253583D01*
D02*
G37*
G36*
X185887Y254602D02*
X185378D01*
X184908Y254407D01*
X184548Y254047D01*
X184353Y253577D01*
Y253068D01*
X184381Y253001D01*
X184473Y252561D01*
X184131Y252397D01*
X184007Y252346D01*
X183647Y251986D01*
X183452Y251516D01*
Y251007D01*
X183647Y250537D01*
X184007Y250177D01*
X184063Y250153D01*
X184353Y249547D01*
Y249038D01*
X184082Y248393D01*
X184061Y248384D01*
X183701Y248024D01*
X183506Y247554D01*
Y247045D01*
X183701Y246575D01*
X184061Y246215D01*
X184531Y246020D01*
X185040D01*
X185510Y246215D01*
X185870Y246575D01*
X186065Y247045D01*
Y247554D01*
X186336Y248199D01*
X186358Y248208D01*
X186718Y248568D01*
X186912Y249038D01*
Y249547D01*
X186718Y250017D01*
X186358Y250377D01*
X186301Y250400D01*
X186011Y251007D01*
Y251516D01*
X185984Y251583D01*
X185892Y252022D01*
X186234Y252186D01*
X186358Y252238D01*
X186718Y252597D01*
X186912Y253068D01*
Y253577D01*
X186718Y254047D01*
X186358Y254407D01*
X185887Y254602D01*
D02*
G37*
G36*
X299278Y252476D02*
X298397D01*
X297546Y252248D01*
X296783Y251808D01*
X296160Y251185D01*
X295719Y250422D01*
X295491Y249570D01*
Y248689D01*
X295719Y247838D01*
X296160Y247075D01*
X296783Y246452D01*
X297546Y246012D01*
X298397Y245783D01*
X299278D01*
X300129Y246012D01*
X300892Y246452D01*
X301515Y247075D01*
X301956Y247838D01*
X302184Y248689D01*
Y249570D01*
X301956Y250422D01*
X301515Y251185D01*
X300892Y251808D01*
X300129Y252248D01*
X299278Y252476D01*
D02*
G37*
G36*
X289278D02*
X288397D01*
X287546Y252248D01*
X286783Y251808D01*
X286160Y251185D01*
X285719Y250422D01*
X285491Y249570D01*
Y248689D01*
X285719Y247838D01*
X286160Y247075D01*
X286783Y246452D01*
X287546Y246012D01*
X288397Y245783D01*
X289278D01*
X290129Y246012D01*
X290892Y246452D01*
X291515Y247075D01*
X291956Y247838D01*
X292184Y248689D01*
Y249570D01*
X291956Y250422D01*
X291515Y251185D01*
X290892Y251808D01*
X290129Y252248D01*
X289278Y252476D01*
D02*
G37*
G36*
X141869Y247063D02*
X141359D01*
X140889Y246868D01*
X140529Y246508D01*
X140334Y246038D01*
Y245529D01*
X140529Y245058D01*
X140889Y244698D01*
X141359Y244504D01*
X141869D01*
X142339Y244698D01*
X142699Y245058D01*
X142894Y245529D01*
Y246038D01*
X142699Y246508D01*
X142339Y246868D01*
X141869Y247063D01*
D02*
G37*
G36*
X176806Y244635D02*
X176297D01*
X175827Y244441D01*
X175467Y244081D01*
X175273Y243610D01*
Y243101D01*
X175467Y242631D01*
X175827Y242271D01*
X176297Y242076D01*
X176806D01*
X177277Y242271D01*
X177637Y242631D01*
X177831Y243101D01*
Y243610D01*
X177637Y244081D01*
X177277Y244441D01*
X176806Y244635D01*
D02*
G37*
G36*
X87081Y248583D02*
X86148D01*
X85246Y248341D01*
X84439Y247875D01*
X83779Y247215D01*
X83312Y246407D01*
X83071Y245506D01*
Y244573D01*
X83312Y243672D01*
X83779Y242864D01*
X84439Y242204D01*
X85246Y241738D01*
X86148Y241496D01*
X87081D01*
X87982Y241738D01*
X88790Y242204D01*
X89450Y242864D01*
X89916Y243672D01*
X90158Y244573D01*
Y245506D01*
X89916Y246407D01*
X89450Y247215D01*
X88790Y247875D01*
X87982Y248341D01*
X87081Y248583D01*
D02*
G37*
G36*
X72120D02*
X71187D01*
X70286Y248341D01*
X69478Y247875D01*
X68818Y247215D01*
X68352Y246407D01*
X68110Y245506D01*
Y244573D01*
X68352Y243672D01*
X68818Y242864D01*
X69478Y242204D01*
X70286Y241738D01*
X71187Y241496D01*
X72120D01*
X73021Y241738D01*
X73829Y242204D01*
X74489Y242864D01*
X74955Y243672D01*
X75197Y244573D01*
Y245506D01*
X74955Y246407D01*
X74489Y247215D01*
X73829Y247875D01*
X73021Y248341D01*
X72120Y248583D01*
D02*
G37*
G36*
X162367Y241354D02*
X161858D01*
X161388Y241160D01*
X161028Y240800D01*
X160856Y240386D01*
X160608Y240272D01*
X160333Y240202D01*
X160246Y240288D01*
X159776Y240483D01*
X159267D01*
X158797Y240288D01*
X158437Y239928D01*
X158280Y239550D01*
X157785Y239345D01*
X157779Y239343D01*
X157309Y239538D01*
X156800D01*
X156330Y239343D01*
X155970Y238983D01*
X155775Y238513D01*
Y238004D01*
X155787Y237976D01*
X155363Y237693D01*
X155149Y237906D01*
X154679Y238101D01*
X154170D01*
X153700Y237906D01*
X153340Y237546D01*
X153145Y237076D01*
X152645Y236901D01*
X152585Y236962D01*
X152114Y237156D01*
X151605D01*
X151135Y236962D01*
X150775Y236602D01*
X150580Y236131D01*
X150080Y235946D01*
X150007Y236020D01*
X149537Y236214D01*
X149028D01*
X148557Y236020D01*
X148197Y235660D01*
X148003Y235190D01*
X147503Y235088D01*
X147444Y235113D01*
X146935D01*
X146465Y234918D01*
X146105Y234558D01*
X145910Y234087D01*
Y233578D01*
X146105Y233108D01*
X146465Y232748D01*
X146935Y232554D01*
X147444D01*
X147914Y232748D01*
X148274Y233108D01*
X148469Y233578D01*
X148969Y233680D01*
X149028Y233656D01*
X149537D01*
X150007Y233850D01*
X150367Y234210D01*
X150562Y234681D01*
X151062Y234865D01*
X151135Y234792D01*
X151605Y234597D01*
X152114D01*
X152585Y234792D01*
X152945Y235152D01*
X153139Y235622D01*
X153639Y235797D01*
X153700Y235737D01*
X154170Y235542D01*
X154679D01*
X155149Y235737D01*
X155509Y236097D01*
X155704Y236567D01*
Y237076D01*
X155693Y237104D01*
X156116Y237387D01*
X156330Y237174D01*
X156800Y236979D01*
X157309D01*
X157779Y237174D01*
X158139Y237534D01*
X158296Y237912D01*
X158791Y238117D01*
X158797Y238119D01*
X159267Y237924D01*
X159776D01*
X160246Y238119D01*
X160606Y238479D01*
X160778Y238893D01*
X161026Y239007D01*
X161301Y239077D01*
X161388Y238990D01*
X161858Y238795D01*
X162367D01*
X162837Y238990D01*
X163197Y239350D01*
X163392Y239820D01*
Y240329D01*
X163197Y240800D01*
X162837Y241160D01*
X162367Y241354D01*
D02*
G37*
G36*
X79600Y243583D02*
X78667D01*
X77766Y243341D01*
X76958Y242875D01*
X76298Y242215D01*
X75832Y241407D01*
X75591Y240506D01*
Y239573D01*
X75832Y238672D01*
X76298Y237864D01*
X76958Y237204D01*
X77766Y236737D01*
X78667Y236496D01*
X79600D01*
X80502Y236737D01*
X81309Y237204D01*
X81969Y237864D01*
X82436Y238672D01*
X82677Y239573D01*
Y240506D01*
X82436Y241407D01*
X81969Y242215D01*
X81309Y242875D01*
X80502Y243341D01*
X79600Y243583D01*
D02*
G37*
G36*
X64640D02*
X63707D01*
X62806Y243341D01*
X61998Y242875D01*
X61338Y242215D01*
X60871Y241407D01*
X60630Y240506D01*
Y239573D01*
X60871Y238672D01*
X61338Y237864D01*
X61998Y237204D01*
X62806Y236737D01*
X63707Y236496D01*
X64640D01*
X65541Y236737D01*
X66349Y237204D01*
X67009Y237864D01*
X67475Y238672D01*
X67716Y239573D01*
Y240506D01*
X67475Y241407D01*
X67009Y242215D01*
X66349Y242875D01*
X65541Y243341D01*
X64640Y243583D01*
D02*
G37*
G36*
X299278Y242476D02*
X298397D01*
X297546Y242248D01*
X296783Y241808D01*
X296160Y241185D01*
X295719Y240422D01*
X295491Y239570D01*
Y238689D01*
X295719Y237838D01*
X296160Y237075D01*
X296783Y236452D01*
X297546Y236012D01*
X298397Y235784D01*
X299278D01*
X300129Y236012D01*
X300892Y236452D01*
X301515Y237075D01*
X301956Y237838D01*
X302184Y238689D01*
Y239570D01*
X301956Y240422D01*
X301515Y241185D01*
X300892Y241808D01*
X300129Y242248D01*
X299278Y242476D01*
D02*
G37*
G36*
X289278D02*
X288397D01*
X287546Y242248D01*
X286783Y241808D01*
X286160Y241185D01*
X285719Y240422D01*
X285491Y239570D01*
Y238689D01*
X285719Y237838D01*
X286160Y237075D01*
X286783Y236452D01*
X287546Y236012D01*
X288397Y235784D01*
X289278D01*
X290129Y236012D01*
X290892Y236452D01*
X291515Y237075D01*
X291956Y237838D01*
X292184Y238689D01*
Y239570D01*
X291956Y240422D01*
X291515Y241185D01*
X290892Y241808D01*
X290129Y242248D01*
X289278Y242476D01*
D02*
G37*
G36*
X144604Y236737D02*
X144095D01*
X143625Y236542D01*
X143265Y236182D01*
X143070Y235712D01*
Y235203D01*
X143265Y234733D01*
X143625Y234373D01*
X144095Y234178D01*
X144604D01*
X145074Y234373D01*
X145434Y234733D01*
X145629Y235203D01*
Y235712D01*
X145434Y236182D01*
X145074Y236542D01*
X144604Y236737D01*
D02*
G37*
G36*
X87081Y238583D02*
X86148D01*
X85246Y238341D01*
X84439Y237875D01*
X83779Y237215D01*
X83312Y236407D01*
X83071Y235506D01*
Y234573D01*
X83312Y233672D01*
X83779Y232864D01*
X84439Y232204D01*
X85246Y231737D01*
X86148Y231496D01*
X87081D01*
X87982Y231737D01*
X88790Y232204D01*
X89450Y232864D01*
X89916Y233672D01*
X90158Y234573D01*
Y235506D01*
X89916Y236407D01*
X89450Y237215D01*
X88790Y237875D01*
X87982Y238341D01*
X87081Y238583D01*
D02*
G37*
G36*
X72120D02*
X71187D01*
X70286Y238341D01*
X69478Y237875D01*
X68818Y237215D01*
X68352Y236407D01*
X68110Y235506D01*
Y234573D01*
X68352Y233672D01*
X68818Y232864D01*
X69478Y232204D01*
X70286Y231737D01*
X71187Y231496D01*
X72120D01*
X73021Y231737D01*
X73829Y232204D01*
X74489Y232864D01*
X74955Y233672D01*
X75197Y234573D01*
Y235506D01*
X74955Y236407D01*
X74489Y237215D01*
X73829Y237875D01*
X73021Y238341D01*
X72120Y238583D01*
D02*
G37*
G36*
X144619Y233599D02*
X144110D01*
X143640Y233405D01*
X143280Y233045D01*
X143085Y232575D01*
Y232065D01*
X143280Y231595D01*
X143640Y231235D01*
X144110Y231040D01*
X144619D01*
X145089Y231235D01*
X145449Y231595D01*
X145644Y232065D01*
Y232575D01*
X145449Y233045D01*
X145089Y233405D01*
X144619Y233599D01*
D02*
G37*
G36*
X79680Y234189D02*
X79634D01*
Y230539D01*
X83284D01*
Y230586D01*
X83001Y231641D01*
X82454Y232587D01*
X81682Y233360D01*
X80736Y233906D01*
X79680Y234189D01*
D02*
G37*
G36*
X78634D02*
X78588D01*
X77532Y233906D01*
X76586Y233360D01*
X75813Y232587D01*
X75267Y231641D01*
X74984Y230586D01*
Y230539D01*
X78634D01*
Y234189D01*
D02*
G37*
G36*
X64640Y233583D02*
X63707D01*
X62806Y233341D01*
X61998Y232875D01*
X61338Y232215D01*
X60871Y231407D01*
X60630Y230506D01*
Y229573D01*
X60871Y228672D01*
X61338Y227864D01*
X61998Y227204D01*
X62806Y226737D01*
X63707Y226496D01*
X64640D01*
X65541Y226737D01*
X66349Y227204D01*
X67009Y227864D01*
X67475Y228672D01*
X67716Y229573D01*
Y230506D01*
X67475Y231407D01*
X67009Y232215D01*
X66349Y232875D01*
X65541Y233341D01*
X64640Y233583D01*
D02*
G37*
G36*
X173330Y228975D02*
X172821D01*
X172350Y228780D01*
X171990Y228420D01*
X171796Y227950D01*
Y227441D01*
X171990Y226971D01*
X172350Y226611D01*
X172821Y226416D01*
X173330D01*
X173800Y226611D01*
X174160Y226971D01*
X174355Y227441D01*
Y227950D01*
X174160Y228420D01*
X173800Y228780D01*
X173330Y228975D01*
D02*
G37*
G36*
X83284Y229539D02*
X79634D01*
Y225890D01*
X79680D01*
X80736Y226173D01*
X81682Y226719D01*
X82454Y227491D01*
X83001Y228438D01*
X83284Y229493D01*
Y229539D01*
D02*
G37*
G36*
X78634D02*
X74984D01*
Y229493D01*
X75267Y228438D01*
X75813Y227491D01*
X76586Y226719D01*
X77532Y226173D01*
X78588Y225890D01*
X78634D01*
Y229539D01*
D02*
G37*
G36*
X302184Y232476D02*
X295491D01*
Y225783D01*
X302184D01*
Y232476D01*
D02*
G37*
G36*
X289278D02*
X288397D01*
X287546Y232248D01*
X286783Y231808D01*
X286160Y231185D01*
X285719Y230422D01*
X285491Y229571D01*
Y228689D01*
X285719Y227838D01*
X286160Y227075D01*
X286783Y226452D01*
X287546Y226012D01*
X288397Y225783D01*
X289278D01*
X290129Y226012D01*
X290892Y226452D01*
X291515Y227075D01*
X291956Y227838D01*
X292184Y228689D01*
Y229571D01*
X291956Y230422D01*
X291515Y231185D01*
X290892Y231808D01*
X290129Y232248D01*
X289278Y232476D01*
D02*
G37*
G36*
X260914Y246850D02*
X260405D01*
X259935Y246655D01*
X259575Y246295D01*
X259380Y245825D01*
Y245316D01*
X259425Y245208D01*
X259543Y244826D01*
X259175Y244604D01*
X259091Y244569D01*
X258732Y244209D01*
X258537Y243739D01*
Y243230D01*
X258732Y242760D01*
X259091Y242400D01*
X259241Y242338D01*
X259529Y242016D01*
X259481Y241738D01*
X259380Y241494D01*
Y240985D01*
X259187Y240697D01*
X259119D01*
X258649Y240502D01*
X258289Y240142D01*
X258094Y239672D01*
Y239162D01*
X258289Y238692D01*
X258649Y238332D01*
X259058Y238163D01*
X259119Y238138D01*
X259345Y237649D01*
Y237140D01*
X259025Y236605D01*
X258794Y236509D01*
X258434Y236150D01*
X258240Y235679D01*
Y235170D01*
X258434Y234700D01*
X258794Y234340D01*
X259264Y234145D01*
X259705D01*
X259733Y234104D01*
Y233595D01*
X259821Y233382D01*
X259517Y232882D01*
X259379D01*
X258909Y232687D01*
X258549Y232327D01*
X258354Y231857D01*
Y231348D01*
X258549Y230878D01*
X258909Y230518D01*
X259226Y230387D01*
X259660Y230130D01*
Y229621D01*
X259823Y229228D01*
X259701Y228924D01*
X259569Y228730D01*
X259310D01*
X258839Y228535D01*
X258479Y228175D01*
X258285Y227705D01*
Y227196D01*
X258479Y226726D01*
X258839Y226366D01*
X259310Y226171D01*
X259376D01*
X259825Y226015D01*
X259838Y225709D01*
Y225501D01*
X260033Y225031D01*
X260393Y224671D01*
X260863Y224476D01*
X261372D01*
X261843Y224671D01*
X262203Y225031D01*
X262397Y225501D01*
Y226010D01*
X262203Y226480D01*
X261843Y226840D01*
X261372Y227035D01*
X261306D01*
X260857Y227191D01*
X260844Y227497D01*
Y227705D01*
X260681Y228098D01*
X260803Y228402D01*
X260935Y228596D01*
X261194D01*
X261665Y228791D01*
X262025Y229151D01*
X262220Y229621D01*
Y230130D01*
X262025Y230601D01*
X261665Y230960D01*
X261348Y231092D01*
X260913Y231348D01*
Y231857D01*
X260825Y232070D01*
X261128Y232571D01*
X261267D01*
X261737Y232765D01*
X262097Y233125D01*
X262292Y233595D01*
Y234104D01*
X262097Y234575D01*
X261737Y234935D01*
X261267Y235129D01*
X260826D01*
X260799Y235170D01*
Y235679D01*
X261118Y236214D01*
X261349Y236310D01*
X261709Y236670D01*
X261904Y237140D01*
Y237649D01*
X261709Y238119D01*
X261349Y238479D01*
X260941Y238649D01*
X260879Y238674D01*
X260653Y239163D01*
Y239671D01*
X260846Y239960D01*
X260914D01*
X261384Y240155D01*
X261744Y240515D01*
X261939Y240985D01*
Y241494D01*
X261744Y241964D01*
X261384Y242324D01*
X261234Y242386D01*
X260947Y242708D01*
X260995Y242986D01*
X261096Y243230D01*
Y243739D01*
X261051Y243847D01*
X260933Y244229D01*
X261301Y244451D01*
X261384Y244485D01*
X261744Y244845D01*
X261939Y245316D01*
Y245825D01*
X261744Y246295D01*
X261384Y246655D01*
X260914Y246850D01*
D02*
G37*
G36*
X185389Y241371D02*
X184880D01*
X184410Y241177D01*
X184050Y240817D01*
X183855Y240346D01*
Y239837D01*
X184050Y239367D01*
X184263Y239154D01*
X184236Y239018D01*
X183876Y238658D01*
X183682Y238188D01*
Y237679D01*
X183876Y237209D01*
X184030Y237055D01*
X184233Y236841D01*
X184030Y236402D01*
X183988Y236359D01*
X183793Y235889D01*
Y235380D01*
X183988Y234910D01*
X184159Y234738D01*
X184125Y234565D01*
X183765Y234206D01*
X183570Y233735D01*
Y233226D01*
X183765Y232756D01*
X184125Y232396D01*
X184129Y231853D01*
X184032Y231620D01*
Y231111D01*
X184130Y230876D01*
X184127Y230334D01*
X183767Y229974D01*
X183572Y229504D01*
Y228995D01*
X183767Y228525D01*
X184127Y228165D01*
X183999Y227677D01*
X183867Y227359D01*
Y226850D01*
X184062Y226379D01*
X184067Y226374D01*
X184218Y226033D01*
X183858Y225673D01*
X183663Y225203D01*
Y224694D01*
X183858Y224224D01*
X184218Y223864D01*
X184688Y223669D01*
X185197D01*
X185668Y223864D01*
X186028Y224224D01*
X186223Y224694D01*
Y225203D01*
X186028Y225673D01*
X185840Y225861D01*
X185871Y226020D01*
X186231Y226379D01*
X186426Y226850D01*
Y227359D01*
X186231Y227829D01*
X185871Y228189D01*
X186000Y228677D01*
X186131Y228995D01*
Y229504D01*
X186034Y229738D01*
X186037Y230280D01*
X186397Y230641D01*
X186591Y231111D01*
Y231620D01*
X186397Y232090D01*
X186037Y232450D01*
X186033Y232993D01*
X186129Y233226D01*
Y233735D01*
X185934Y234206D01*
X185763Y234377D01*
X185798Y234550D01*
X186158Y234910D01*
X186352Y235380D01*
Y235889D01*
X186158Y236359D01*
X186004Y236513D01*
X185801Y236727D01*
X186004Y237167D01*
X186046Y237209D01*
X186241Y237679D01*
Y238188D01*
X186046Y238658D01*
X185832Y238872D01*
X185859Y239007D01*
X186219Y239367D01*
X186414Y239837D01*
Y240346D01*
X186219Y240817D01*
X185859Y241177D01*
X185389Y241371D01*
D02*
G37*
G36*
X204382Y224405D02*
X203873D01*
X203403Y224210D01*
X203043Y223850D01*
X202921Y223555D01*
X202387Y223308D01*
X202383Y223309D01*
X201874D01*
X201548Y223174D01*
X201461Y223231D01*
X201267Y223702D01*
X200907Y224061D01*
X200436Y224256D01*
X199927D01*
X199457Y224061D01*
X199097Y223702D01*
X198902Y223231D01*
X198604Y223032D01*
X198492Y223078D01*
X197983D01*
X197757Y222985D01*
X197612Y223082D01*
X197417Y223552D01*
X197057Y223912D01*
X196587Y224107D01*
X196078D01*
X195607Y223912D01*
X195247Y223552D01*
X194613Y223328D01*
X194558Y223351D01*
X194049D01*
X193578Y223324D01*
X193383Y223794D01*
X193023Y224154D01*
X192553Y224349D01*
X192044D01*
X191574Y224154D01*
X191214Y223794D01*
X191019Y223324D01*
X190796Y223175D01*
X190632Y223243D01*
X190123D01*
X189652Y223048D01*
X189292Y222688D01*
X189098Y222218D01*
Y221709D01*
X189292Y221238D01*
X189652Y220878D01*
X190123Y220684D01*
X190632D01*
X191102Y220878D01*
X191462Y221238D01*
X191657Y221709D01*
X191880Y221858D01*
X192044Y221790D01*
X192553D01*
X193024Y221817D01*
X193218Y221346D01*
X193578Y220987D01*
X194049Y220792D01*
X194558D01*
X195028Y220987D01*
X195388Y221346D01*
X196022Y221571D01*
X196078Y221548D01*
X196587D01*
X196813Y221642D01*
X196958Y221545D01*
X197153Y221074D01*
X197513Y220714D01*
X197983Y220519D01*
X198492D01*
X198962Y220714D01*
X199322Y221074D01*
X199517Y221545D01*
X199815Y221744D01*
X199927Y221697D01*
X200436D01*
X200763Y221833D01*
X200850Y221775D01*
X201044Y221305D01*
X201404Y220945D01*
X201874Y220750D01*
X202383D01*
X202854Y220945D01*
X203214Y221305D01*
X203336Y221600D01*
X203871Y221847D01*
X203873Y221846D01*
X204382D01*
X204862Y221661D01*
X204904Y221562D01*
X205057Y221191D01*
X205417Y220831D01*
X205887Y220636D01*
X206396D01*
X206867Y220831D01*
X207226Y221191D01*
X207310Y221392D01*
X207813Y221724D01*
X208322D01*
X208479Y221789D01*
X208781Y221587D01*
X208976Y221117D01*
X209336Y220757D01*
X209806Y220562D01*
X210315D01*
X210786Y220757D01*
X211146Y221117D01*
X211340Y221587D01*
Y222096D01*
X211146Y222566D01*
X210786Y222926D01*
X210315Y223121D01*
X209806D01*
X209649Y223056D01*
X209347Y223258D01*
X209152Y223728D01*
X208792Y224089D01*
X208322Y224283D01*
X207813D01*
X207343Y224089D01*
X206983Y223728D01*
X206900Y223528D01*
X206396Y223195D01*
X205887D01*
X205408Y223380D01*
X205366Y223480D01*
X205213Y223850D01*
X204853Y224210D01*
X204382Y224405D01*
D02*
G37*
G36*
X142589Y225015D02*
X142080D01*
X141610Y224820D01*
X141250Y224460D01*
X141055Y223990D01*
Y223481D01*
X141250Y223010D01*
X141610Y222651D01*
X142080Y222456D01*
X142589D01*
X143060Y222651D01*
X143420Y223010D01*
X143614Y223481D01*
Y223990D01*
X143420Y224460D01*
X143060Y224820D01*
X142589Y225015D01*
D02*
G37*
G36*
X87081Y228583D02*
X86148D01*
X85246Y228341D01*
X84439Y227875D01*
X83779Y227215D01*
X83312Y226407D01*
X83071Y225506D01*
Y224573D01*
X83312Y223672D01*
X83779Y222864D01*
X84439Y222204D01*
X85246Y221738D01*
X86148Y221496D01*
X87081D01*
X87982Y221738D01*
X88790Y222204D01*
X89450Y222864D01*
X89916Y223672D01*
X90158Y224573D01*
Y225506D01*
X89916Y226407D01*
X89450Y227215D01*
X88790Y227875D01*
X87982Y228341D01*
X87081Y228583D01*
D02*
G37*
G36*
X72120D02*
X71187D01*
X70286Y228341D01*
X69478Y227875D01*
X68818Y227215D01*
X68352Y226407D01*
X68110Y225506D01*
Y224573D01*
X68352Y223672D01*
X68818Y222864D01*
X69478Y222204D01*
X70286Y221738D01*
X71187Y221496D01*
X72120D01*
X73021Y221738D01*
X73829Y222204D01*
X74489Y222864D01*
X74955Y223672D01*
X75197Y224573D01*
Y225506D01*
X74955Y226407D01*
X74489Y227215D01*
X73829Y227875D01*
X73021Y228341D01*
X72120Y228583D01*
D02*
G37*
G36*
X214293Y224488D02*
X213784D01*
X213314Y224294D01*
X212954Y223934D01*
X212759Y223463D01*
Y222954D01*
X212954Y222484D01*
X213314Y222124D01*
X213784Y221929D01*
X214293D01*
X214831Y221643D01*
X214887Y221509D01*
X215247Y221148D01*
X215717Y220954D01*
X216226D01*
X216697Y221148D01*
X217057Y221509D01*
X217251Y221979D01*
Y222488D01*
X217057Y222958D01*
X216697Y223318D01*
X216226Y223513D01*
X215717D01*
X215179Y223799D01*
X215124Y223934D01*
X214764Y224294D01*
X214293Y224488D01*
D02*
G37*
G36*
X253231Y223508D02*
X252722D01*
X252252Y223313D01*
X251892Y222953D01*
X251697Y222483D01*
Y221974D01*
X251892Y221503D01*
X252252Y221143D01*
X252722Y220949D01*
X253231D01*
X253701Y221143D01*
X254061Y221503D01*
X254256Y221974D01*
Y222483D01*
X254061Y222953D01*
X253701Y223313D01*
X253231Y223508D01*
D02*
G37*
G36*
X220129Y224634D02*
X219620D01*
X219150Y224439D01*
X218790Y224079D01*
X218595Y223609D01*
Y223100D01*
X218790Y222629D01*
X219150Y222269D01*
X219620Y222075D01*
X220129D01*
X220135Y222077D01*
X220650Y221834D01*
X220792Y221490D01*
X221152Y221130D01*
X221622Y220936D01*
X222131D01*
X222602Y221130D01*
X222962Y221490D01*
X223000Y221582D01*
X223586Y221880D01*
X224095D01*
X224565Y222075D01*
X224925Y222435D01*
X225120Y222905D01*
Y223414D01*
X224925Y223884D01*
X224565Y224244D01*
X224095Y224439D01*
X223586D01*
X223116Y224244D01*
X222756Y223884D01*
X222718Y223793D01*
X222131Y223495D01*
X221622D01*
X221616Y223492D01*
X221102Y223735D01*
X220960Y224079D01*
X220600Y224439D01*
X220129Y224634D01*
D02*
G37*
G36*
X79600Y223583D02*
X78667D01*
X77766Y223341D01*
X76958Y222875D01*
X76298Y222215D01*
X75832Y221407D01*
X75591Y220506D01*
Y219573D01*
X75832Y218672D01*
X76298Y217864D01*
X76958Y217204D01*
X77766Y216738D01*
X78667Y216496D01*
X79600D01*
X80502Y216738D01*
X81309Y217204D01*
X81969Y217864D01*
X82436Y218672D01*
X82677Y219573D01*
Y220506D01*
X82436Y221407D01*
X81969Y222215D01*
X81309Y222875D01*
X80502Y223341D01*
X79600Y223583D01*
D02*
G37*
G36*
X64640D02*
X63707D01*
X62806Y223341D01*
X61998Y222875D01*
X61338Y222215D01*
X60871Y221407D01*
X60630Y220506D01*
Y219573D01*
X60871Y218672D01*
X61338Y217864D01*
X61998Y217204D01*
X62806Y216738D01*
X63707Y216496D01*
X64640D01*
X65541Y216738D01*
X66349Y217204D01*
X67009Y217864D01*
X67475Y218672D01*
X67716Y219573D01*
Y220506D01*
X67475Y221407D01*
X67009Y222215D01*
X66349Y222875D01*
X65541Y223341D01*
X64640Y223583D01*
D02*
G37*
G36*
X162245Y216810D02*
X161736D01*
X161265Y216616D01*
X160905Y216256D01*
X160711Y215786D01*
Y215419D01*
X160285Y215182D01*
X160249Y215173D01*
X160112Y215310D01*
X159642Y215505D01*
X159133D01*
X158662Y215310D01*
X158302Y214950D01*
X158237Y214792D01*
X157950Y214500D01*
X157633Y214542D01*
X157417Y214632D01*
X156908D01*
X156438Y214437D01*
X156078Y214077D01*
X155883Y213607D01*
Y213413D01*
X155383Y213206D01*
X155209Y213381D01*
X154738Y213575D01*
X154229D01*
X153759Y213381D01*
X153399Y213020D01*
X153204Y212550D01*
Y212531D01*
X153151Y212469D01*
X152704Y212238D01*
X152415Y212358D01*
X151906D01*
X151435Y212163D01*
X151075Y211803D01*
X150881Y211333D01*
Y211230D01*
X150448Y211115D01*
X150381Y211113D01*
X150033Y211461D01*
X149563Y211656D01*
X149054D01*
X148583Y211461D01*
X148223Y211101D01*
X148029Y210631D01*
Y210581D01*
X147529Y210374D01*
X147426Y210477D01*
X146955Y210671D01*
X146446D01*
X145976Y210477D01*
X145616Y210117D01*
X145421Y209646D01*
Y209619D01*
X145215Y209484D01*
X144921Y209369D01*
X144523Y209535D01*
X144014D01*
X143544Y209340D01*
X143184Y208980D01*
X142989Y208509D01*
Y208000D01*
X143184Y207530D01*
X143544Y207170D01*
X144014Y206975D01*
X144523D01*
X144993Y207170D01*
X145353Y207530D01*
X145548Y208000D01*
Y208028D01*
X145754Y208163D01*
X146048Y208277D01*
X146446Y208112D01*
X146955D01*
X147426Y208307D01*
X147786Y208667D01*
X147980Y209137D01*
Y209187D01*
X148480Y209394D01*
X148583Y209291D01*
X149054Y209097D01*
X149563D01*
X150033Y209291D01*
X150393Y209651D01*
X150587Y210122D01*
Y210225D01*
X151020Y210339D01*
X151087Y210341D01*
X151435Y209994D01*
X151906Y209799D01*
X152415D01*
X152885Y209994D01*
X153245Y210353D01*
X153440Y210824D01*
Y210843D01*
X153493Y210905D01*
X153940Y211136D01*
X154229Y211016D01*
X154738D01*
X155209Y211211D01*
X155569Y211571D01*
X155763Y212041D01*
Y212235D01*
X156263Y212442D01*
X156438Y212267D01*
X156908Y212072D01*
X157417D01*
X157887Y212267D01*
X158247Y212627D01*
X158313Y212785D01*
X158600Y213077D01*
X158916Y213035D01*
X159133Y212946D01*
X159642D01*
X160112Y213141D01*
X160472Y213500D01*
X160667Y213971D01*
Y214338D01*
X161092Y214575D01*
X161129Y214583D01*
X161265Y214446D01*
X161736Y214251D01*
X162245D01*
X162715Y214446D01*
X163075Y214806D01*
X163270Y215277D01*
Y215786D01*
X163075Y216256D01*
X162715Y216616D01*
X162245Y216810D01*
D02*
G37*
G36*
X232167Y216518D02*
X231658D01*
X231188Y216323D01*
X230828Y215963D01*
X230633Y215493D01*
Y214984D01*
X230828Y214514D01*
X231188Y214154D01*
X231658Y213959D01*
X232167D01*
X232638Y214154D01*
X232998Y214514D01*
X233192Y214984D01*
Y215493D01*
X232998Y215963D01*
X232638Y216323D01*
X232167Y216518D01*
D02*
G37*
G36*
X218190D02*
X217681D01*
X217210Y216323D01*
X216850Y215963D01*
X216655Y215493D01*
Y214984D01*
X216850Y214514D01*
X217210Y214154D01*
X217681Y213959D01*
X218190D01*
X218660Y214154D01*
X219020Y214514D01*
X219215Y214984D01*
Y215493D01*
X219020Y215963D01*
X218660Y216323D01*
X218190Y216518D01*
D02*
G37*
G36*
X201150Y215800D02*
X200641D01*
X200171Y215605D01*
X199811Y215245D01*
X199616Y214775D01*
Y214266D01*
X199811Y213795D01*
X200171Y213436D01*
X200641Y213241D01*
X201150D01*
X201621Y213436D01*
X201981Y213795D01*
X202175Y214266D01*
Y214775D01*
X201981Y215245D01*
X201621Y215605D01*
X201150Y215800D01*
D02*
G37*
G36*
X166302Y214240D02*
X165793D01*
X165322Y214045D01*
X164962Y213685D01*
X164768Y213214D01*
Y212705D01*
X164962Y212235D01*
X165322Y211875D01*
X165793Y211681D01*
X166302D01*
X166772Y211875D01*
X167132Y212235D01*
X167327Y212705D01*
Y213214D01*
X167132Y213685D01*
X166772Y214045D01*
X166302Y214240D01*
D02*
G37*
G36*
X87081Y218583D02*
X86148D01*
X85246Y218341D01*
X84439Y217875D01*
X83779Y217215D01*
X83312Y216407D01*
X83071Y215506D01*
Y214573D01*
X83312Y213672D01*
X83779Y212864D01*
X84439Y212204D01*
X85246Y211737D01*
X86148Y211496D01*
X87081D01*
X87982Y211737D01*
X88790Y212204D01*
X89450Y212864D01*
X89916Y213672D01*
X90158Y214573D01*
Y215506D01*
X89916Y216407D01*
X89450Y217215D01*
X88790Y217875D01*
X87982Y218341D01*
X87081Y218583D01*
D02*
G37*
G36*
X72120D02*
X71187D01*
X70286Y218341D01*
X69478Y217875D01*
X68818Y217215D01*
X68352Y216407D01*
X68110Y215506D01*
Y214573D01*
X68352Y213672D01*
X68818Y212864D01*
X69478Y212204D01*
X70286Y211737D01*
X71187Y211496D01*
X72120D01*
X73021Y211737D01*
X73829Y212204D01*
X74489Y212864D01*
X74955Y213672D01*
X75197Y214573D01*
Y215506D01*
X74955Y216407D01*
X74489Y217215D01*
X73829Y217875D01*
X73021Y218341D01*
X72120Y218583D01*
D02*
G37*
G36*
X162343Y210943D02*
X161834D01*
X161364Y210748D01*
X161004Y210388D01*
X160973Y210314D01*
X160762Y209933D01*
X160370Y210064D01*
X160277Y210102D01*
X159768D01*
X159298Y209907D01*
X158938Y209547D01*
X158836Y209302D01*
X158292Y209153D01*
X158276Y209156D01*
X158273Y209158D01*
X157803Y209353D01*
X157294D01*
X156824Y209158D01*
X156464Y208798D01*
X156269Y208328D01*
Y208212D01*
X155769Y208005D01*
X155587Y208187D01*
X155116Y208382D01*
X154607D01*
X154137Y208187D01*
X153777Y207827D01*
X153718Y207684D01*
X153446Y207380D01*
X153114Y207434D01*
X152922Y207514D01*
X152413D01*
X151943Y207319D01*
X151583Y206959D01*
X151388Y206489D01*
Y205980D01*
X151583Y205510D01*
X151943Y205150D01*
X152413Y204955D01*
X152922D01*
X153393Y205150D01*
X153753Y205510D01*
X153812Y205653D01*
X154083Y205958D01*
X154415Y205903D01*
X154607Y205823D01*
X155116D01*
X155587Y206018D01*
X155947Y206378D01*
X156141Y206848D01*
Y206964D01*
X156641Y207171D01*
X156824Y206989D01*
X157294Y206794D01*
X157803D01*
X158273Y206989D01*
X158633Y207348D01*
X158735Y207594D01*
X159280Y207743D01*
X159295Y207740D01*
X159298Y207738D01*
X159768Y207543D01*
X160277D01*
X160748Y207738D01*
X161108Y208098D01*
X161138Y208172D01*
X161349Y208552D01*
X161742Y208422D01*
X161834Y208384D01*
X162343D01*
X162813Y208578D01*
X163173Y208939D01*
X163368Y209409D01*
Y209918D01*
X163173Y210388D01*
X162813Y210748D01*
X162343Y210943D01*
D02*
G37*
G36*
X79600Y213583D02*
X78667D01*
X77766Y213341D01*
X76958Y212875D01*
X76298Y212215D01*
X75832Y211407D01*
X75591Y210506D01*
Y209573D01*
X75832Y208672D01*
X76298Y207864D01*
X76958Y207204D01*
X77766Y206737D01*
X78667Y206496D01*
X79600D01*
X80502Y206737D01*
X81309Y207204D01*
X81969Y207864D01*
X82436Y208672D01*
X82677Y209573D01*
Y210506D01*
X82436Y211407D01*
X81969Y212215D01*
X81309Y212875D01*
X80502Y213341D01*
X79600Y213583D01*
D02*
G37*
G36*
X64640D02*
X63707D01*
X62806Y213341D01*
X61998Y212875D01*
X61338Y212215D01*
X60871Y211407D01*
X60630Y210506D01*
Y209573D01*
X60871Y208672D01*
X61338Y207864D01*
X61998Y207204D01*
X62806Y206737D01*
X63707Y206496D01*
X64640D01*
X65541Y206737D01*
X66349Y207204D01*
X67009Y207864D01*
X67475Y208672D01*
X67716Y209573D01*
Y210506D01*
X67475Y211407D01*
X67009Y212215D01*
X66349Y212875D01*
X65541Y213341D01*
X64640Y213583D01*
D02*
G37*
G36*
X87160Y209189D02*
X87114D01*
Y205539D01*
X90764D01*
Y205586D01*
X90481Y206641D01*
X89935Y207587D01*
X89162Y208360D01*
X88216Y208906D01*
X87160Y209189D01*
D02*
G37*
G36*
X86114D02*
X86068D01*
X85013Y208906D01*
X84066Y208360D01*
X83294Y207587D01*
X82747Y206641D01*
X82465Y205586D01*
Y205539D01*
X86114D01*
Y209189D01*
D02*
G37*
G36*
X149681Y206353D02*
X149172D01*
X148702Y206158D01*
X148342Y205798D01*
X148147Y205328D01*
Y204870D01*
X147933Y204754D01*
X147685Y204679D01*
X147364Y205000D01*
X146894Y205195D01*
X146385D01*
X145914Y205000D01*
X145554Y204640D01*
X145360Y204170D01*
Y204135D01*
X145272Y204045D01*
X144860Y203843D01*
X144546Y203973D01*
X144037D01*
X143566Y203778D01*
X143206Y203418D01*
X143012Y202948D01*
Y202439D01*
X143206Y201968D01*
X143566Y201608D01*
X144037Y201414D01*
X144546D01*
X145016Y201608D01*
X145376Y201968D01*
X145571Y202439D01*
Y202473D01*
X145658Y202564D01*
X146071Y202766D01*
X146385Y202636D01*
X146894D01*
X147364Y202831D01*
X147724Y203190D01*
X147919Y203661D01*
Y204118D01*
X148133Y204234D01*
X148381Y204309D01*
X148702Y203988D01*
X149172Y203794D01*
X149681D01*
X150151Y203988D01*
X150511Y204348D01*
X150706Y204819D01*
Y205328D01*
X150511Y205798D01*
X150151Y206158D01*
X149681Y206353D01*
D02*
G37*
G36*
X72120Y208583D02*
X71187D01*
X70286Y208341D01*
X69478Y207875D01*
X68818Y207215D01*
X68352Y206407D01*
X68110Y205506D01*
Y204573D01*
X68352Y203672D01*
X68818Y202864D01*
X69478Y202204D01*
X70286Y201737D01*
X71187Y201496D01*
X72120D01*
X73021Y201737D01*
X73829Y202204D01*
X74489Y202864D01*
X74955Y203672D01*
X75197Y204573D01*
Y205506D01*
X74955Y206407D01*
X74489Y207215D01*
X73829Y207875D01*
X73021Y208341D01*
X72120Y208583D01*
D02*
G37*
G36*
X90764Y204539D02*
X87114D01*
Y200890D01*
X87160D01*
X88216Y201173D01*
X89162Y201719D01*
X89935Y202491D01*
X90481Y203438D01*
X90764Y204493D01*
Y204539D01*
D02*
G37*
G36*
X86114D02*
X82465D01*
Y204493D01*
X82747Y203438D01*
X83294Y202491D01*
X84066Y201719D01*
X85013Y201173D01*
X86068Y200890D01*
X86114D01*
Y204539D01*
D02*
G37*
G36*
X79600Y203583D02*
X78667D01*
X77766Y203341D01*
X76958Y202875D01*
X76298Y202215D01*
X75832Y201407D01*
X75591Y200506D01*
Y199573D01*
X75832Y198672D01*
X76298Y197864D01*
X76958Y197204D01*
X77766Y196738D01*
X78667Y196496D01*
X79600D01*
X80502Y196738D01*
X81309Y197204D01*
X81969Y197864D01*
X82436Y198672D01*
X82677Y199573D01*
Y200506D01*
X82436Y201407D01*
X81969Y202215D01*
X81309Y202875D01*
X80502Y203341D01*
X79600Y203583D01*
D02*
G37*
G36*
X64640D02*
X63707D01*
X62806Y203341D01*
X61998Y202875D01*
X61338Y202215D01*
X60871Y201407D01*
X60630Y200506D01*
Y199573D01*
X60871Y198672D01*
X61338Y197864D01*
X61998Y197204D01*
X62806Y196738D01*
X63707Y196496D01*
X64640D01*
X65541Y196738D01*
X66349Y197204D01*
X67009Y197864D01*
X67475Y198672D01*
X67716Y199573D01*
Y200506D01*
X67475Y201407D01*
X67009Y202215D01*
X66349Y202875D01*
X65541Y203341D01*
X64640Y203583D01*
D02*
G37*
G36*
X87081Y198583D02*
X86148D01*
X85246Y198341D01*
X84439Y197875D01*
X83779Y197215D01*
X83312Y196407D01*
X83071Y195506D01*
Y194573D01*
X83312Y193672D01*
X83779Y192864D01*
X84439Y192204D01*
X85246Y191737D01*
X86148Y191496D01*
X87081D01*
X87982Y191737D01*
X88790Y192204D01*
X89450Y192864D01*
X89916Y193672D01*
X90158Y194573D01*
Y195506D01*
X89916Y196407D01*
X89450Y197215D01*
X88790Y197875D01*
X87982Y198341D01*
X87081Y198583D01*
D02*
G37*
G36*
X72120D02*
X71187D01*
X70286Y198341D01*
X69478Y197875D01*
X68818Y197215D01*
X68352Y196407D01*
X68110Y195506D01*
Y194573D01*
X68352Y193672D01*
X68818Y192864D01*
X69478Y192204D01*
X70286Y191737D01*
X71187Y191496D01*
X72120D01*
X73021Y191737D01*
X73829Y192204D01*
X74489Y192864D01*
X74955Y193672D01*
X75197Y194573D01*
Y195506D01*
X74955Y196407D01*
X74489Y197215D01*
X73829Y197875D01*
X73021Y198341D01*
X72120Y198583D01*
D02*
G37*
G36*
X247663Y190700D02*
X247154D01*
X246684Y190505D01*
X246324Y190145D01*
X246129Y189675D01*
Y189166D01*
X246324Y188696D01*
X246684Y188336D01*
X247154Y188141D01*
X247663D01*
X247886Y187992D01*
Y187900D01*
X248081Y187429D01*
X248441Y187069D01*
X248911Y186875D01*
X249420D01*
X249890Y187069D01*
X250250Y187429D01*
X250445Y187900D01*
Y188409D01*
X250250Y188879D01*
X249890Y189239D01*
X249420Y189434D01*
X248911D01*
X248689Y189582D01*
Y189675D01*
X248494Y190145D01*
X248134Y190505D01*
X247663Y190700D01*
D02*
G37*
G36*
X79600Y193583D02*
X78667D01*
X77766Y193341D01*
X76958Y192875D01*
X76298Y192215D01*
X75832Y191407D01*
X75591Y190506D01*
Y189573D01*
X75832Y188672D01*
X76298Y187864D01*
X76958Y187204D01*
X77766Y186738D01*
X78667Y186496D01*
X79600D01*
X80502Y186738D01*
X81309Y187204D01*
X81969Y187864D01*
X82436Y188672D01*
X82677Y189573D01*
Y190506D01*
X82436Y191407D01*
X81969Y192215D01*
X81309Y192875D01*
X80502Y193341D01*
X79600Y193583D01*
D02*
G37*
G36*
X64640D02*
X63707D01*
X62806Y193341D01*
X61998Y192875D01*
X61338Y192215D01*
X60871Y191407D01*
X60630Y190506D01*
Y189573D01*
X60871Y188672D01*
X61338Y187864D01*
X61998Y187204D01*
X62806Y186738D01*
X63707Y186496D01*
X64640D01*
X65541Y186738D01*
X66349Y187204D01*
X67009Y187864D01*
X67475Y188672D01*
X67716Y189573D01*
Y190506D01*
X67475Y191407D01*
X67009Y192215D01*
X66349Y192875D01*
X65541Y193341D01*
X64640Y193583D01*
D02*
G37*
G36*
X117458Y286895D02*
X115682Y286720D01*
X113975Y286203D01*
X112402Y285362D01*
X111023Y284230D01*
X109891Y282851D01*
X109050Y281277D01*
X108532Y279570D01*
X108358Y277795D01*
X108378D01*
Y195118D01*
X108358D01*
X108532Y193342D01*
X109050Y191635D01*
X109891Y190062D01*
X111023Y188683D01*
X112402Y187551D01*
X113975Y186710D01*
X115682Y186192D01*
X117458Y186017D01*
X119233Y186192D01*
X120940Y186710D01*
X122514Y187551D01*
X123893Y188683D01*
X125025Y190062D01*
X125866Y191635D01*
X126383Y193342D01*
X126558Y195118D01*
X126538D01*
Y277795D01*
X126558D01*
X126383Y279570D01*
X125866Y281277D01*
X125025Y282851D01*
X123893Y284230D01*
X122514Y285362D01*
X120940Y286203D01*
X119233Y286720D01*
X117458Y286895D01*
D02*
G37*
G36*
X167451Y185424D02*
X166942D01*
X166471Y185230D01*
X166112Y184870D01*
X165917Y184399D01*
Y183890D01*
X166112Y183420D01*
X166471Y183060D01*
X166942Y182865D01*
X167451D01*
X167921Y183060D01*
X168281Y183420D01*
X168476Y183890D01*
Y184399D01*
X168281Y184870D01*
X167921Y185230D01*
X167451Y185424D01*
D02*
G37*
G36*
X145879Y186237D02*
X145370D01*
X144900Y186042D01*
X144540Y185682D01*
X144345Y185212D01*
Y184703D01*
X144540Y184232D01*
X144900Y183873D01*
X145370Y183678D01*
X145505D01*
X145640Y183476D01*
Y182967D01*
X145834Y182497D01*
X146194Y182137D01*
X146665Y181942D01*
X147174D01*
X147644Y182137D01*
X148004Y182497D01*
X148198Y182967D01*
Y183476D01*
X148004Y183946D01*
X147644Y184306D01*
X147174Y184501D01*
X147039D01*
X146904Y184703D01*
Y185212D01*
X146709Y185682D01*
X146349Y186042D01*
X145879Y186237D01*
D02*
G37*
G36*
X159380Y185871D02*
X158871D01*
X158401Y185676D01*
X158041Y185317D01*
X157846Y184846D01*
Y184337D01*
X157702Y184121D01*
X157580D01*
X157109Y183927D01*
X156749Y183567D01*
X156555Y183096D01*
Y182587D01*
X156749Y182117D01*
X157109Y181757D01*
X157580Y181562D01*
X158089D01*
X158559Y181757D01*
X158919Y182117D01*
X159114Y182587D01*
Y183096D01*
X159258Y183312D01*
X159380D01*
X159850Y183507D01*
X160210Y183867D01*
X160405Y184337D01*
Y184846D01*
X160210Y185317D01*
X159850Y185676D01*
X159380Y185871D01*
D02*
G37*
G36*
X87081Y188583D02*
X86148D01*
X85246Y188341D01*
X84439Y187875D01*
X83779Y187215D01*
X83312Y186407D01*
X83071Y185506D01*
Y184573D01*
X83312Y183672D01*
X83779Y182864D01*
X84439Y182204D01*
X85246Y181737D01*
X86148Y181496D01*
X87081D01*
X87982Y181737D01*
X88790Y182204D01*
X89450Y182864D01*
X89916Y183672D01*
X90158Y184573D01*
Y185506D01*
X89916Y186407D01*
X89450Y187215D01*
X88790Y187875D01*
X87982Y188341D01*
X87081Y188583D01*
D02*
G37*
G36*
X72120D02*
X71187D01*
X70286Y188341D01*
X69478Y187875D01*
X68818Y187215D01*
X68352Y186407D01*
X68110Y185506D01*
Y184573D01*
X68352Y183672D01*
X68818Y182864D01*
X69478Y182204D01*
X70286Y181737D01*
X71187Y181496D01*
X72120D01*
X73021Y181737D01*
X73829Y182204D01*
X74489Y182864D01*
X74955Y183672D01*
X75197Y184573D01*
Y185506D01*
X74955Y186407D01*
X74489Y187215D01*
X73829Y187875D01*
X73021Y188341D01*
X72120Y188583D01*
D02*
G37*
G36*
X184794Y183883D02*
X184285D01*
X183815Y183688D01*
X183455Y183328D01*
X183260Y182858D01*
Y182349D01*
X183455Y181878D01*
X183815Y181519D01*
X184285Y181324D01*
X184794D01*
X185264Y181519D01*
X185624Y181878D01*
X185819Y182349D01*
Y182858D01*
X185624Y183328D01*
X185264Y183688D01*
X184794Y183883D01*
D02*
G37*
G36*
X79680Y184189D02*
X79634D01*
Y180539D01*
X83284D01*
Y180586D01*
X83001Y181641D01*
X82454Y182587D01*
X81682Y183360D01*
X80736Y183906D01*
X79680Y184189D01*
D02*
G37*
G36*
X78634D02*
X78588D01*
X77532Y183906D01*
X76586Y183360D01*
X75813Y182587D01*
X75267Y181641D01*
X74984Y180586D01*
Y180539D01*
X78634D01*
Y184189D01*
D02*
G37*
G36*
X130523Y185722D02*
X130014D01*
X129543Y185528D01*
X129183Y185168D01*
X128989Y184697D01*
Y184188D01*
X129183Y183718D01*
X129543Y183358D01*
X129611Y183330D01*
X129957Y183001D01*
X129861Y182727D01*
X129775Y182519D01*
Y182010D01*
X129970Y181540D01*
X130330Y181180D01*
X130800Y180985D01*
X131265D01*
X131391Y180835D01*
X131391Y180787D01*
X131376Y180743D01*
X130928Y180325D01*
X130720D01*
X130249Y180130D01*
X129889Y179771D01*
X129695Y179300D01*
Y178791D01*
X129889Y178321D01*
X130249Y177961D01*
X130720Y177766D01*
X131229D01*
X131699Y177961D01*
X132059Y178321D01*
X132254Y178791D01*
Y179300D01*
X132188Y179459D01*
X132570Y179842D01*
X132630Y179817D01*
X133139D01*
X133609Y180012D01*
X133969Y180372D01*
X134164Y180842D01*
Y181351D01*
X133969Y181822D01*
X133609Y182182D01*
X133139Y182376D01*
X132630D01*
X132237Y182755D01*
X132140Y182989D01*
X131780Y183349D01*
X131712Y183377D01*
X131366Y183706D01*
X131462Y183981D01*
X131548Y184188D01*
Y184697D01*
X131353Y185168D01*
X130993Y185528D01*
X130523Y185722D01*
D02*
G37*
G36*
X64640Y183583D02*
X63707D01*
X62806Y183341D01*
X61998Y182875D01*
X61338Y182215D01*
X60871Y181407D01*
X60630Y180506D01*
Y179573D01*
X60871Y178672D01*
X61338Y177864D01*
X61998Y177204D01*
X62806Y176737D01*
X63707Y176496D01*
X64640D01*
X65541Y176737D01*
X66349Y177204D01*
X67009Y177864D01*
X67475Y178672D01*
X67716Y179573D01*
Y180506D01*
X67475Y181407D01*
X67009Y182215D01*
X66349Y182875D01*
X65541Y183341D01*
X64640Y183583D01*
D02*
G37*
G36*
X83284Y179539D02*
X79634D01*
Y175890D01*
X79680D01*
X80736Y176173D01*
X81682Y176719D01*
X82454Y177491D01*
X83001Y178438D01*
X83284Y179493D01*
Y179539D01*
D02*
G37*
G36*
X78634D02*
X74984D01*
Y179493D01*
X75267Y178438D01*
X75813Y177491D01*
X76586Y176719D01*
X77532Y176173D01*
X78588Y175890D01*
X78634D01*
Y179539D01*
D02*
G37*
G36*
X87081Y178583D02*
X86148D01*
X85246Y178341D01*
X84439Y177875D01*
X83779Y177215D01*
X83312Y176407D01*
X83071Y175506D01*
Y174573D01*
X83312Y173672D01*
X83779Y172864D01*
X84439Y172204D01*
X85246Y171738D01*
X86148Y171496D01*
X87081D01*
X87982Y171738D01*
X88790Y172204D01*
X89450Y172864D01*
X89916Y173672D01*
X90158Y174573D01*
Y175506D01*
X89916Y176407D01*
X89450Y177215D01*
X88790Y177875D01*
X87982Y178341D01*
X87081Y178583D01*
D02*
G37*
G36*
X72120D02*
X71187D01*
X70286Y178341D01*
X69478Y177875D01*
X68818Y177215D01*
X68352Y176407D01*
X68110Y175506D01*
Y174573D01*
X68352Y173672D01*
X68818Y172864D01*
X69478Y172204D01*
X70286Y171738D01*
X71187Y171496D01*
X72120D01*
X73021Y171738D01*
X73829Y172204D01*
X74489Y172864D01*
X74955Y173672D01*
X75197Y174573D01*
Y175506D01*
X74955Y176407D01*
X74489Y177215D01*
X73829Y177875D01*
X73021Y178341D01*
X72120Y178583D01*
D02*
G37*
G36*
X168370Y175738D02*
X167861D01*
X167391Y175544D01*
X167031Y175184D01*
X166836Y174713D01*
Y174204D01*
X167031Y173734D01*
X167037Y173728D01*
X166905Y173153D01*
X166708Y173072D01*
X166348Y172712D01*
X166153Y172241D01*
Y171732D01*
X166348Y171262D01*
X166708Y170902D01*
X167178Y170707D01*
X167687D01*
X168157Y170902D01*
X168517Y171262D01*
X168712Y171732D01*
Y172241D01*
X168517Y172712D01*
X168511Y172717D01*
X168643Y173293D01*
X168840Y173374D01*
X169200Y173734D01*
X169395Y174204D01*
Y174713D01*
X169200Y175184D01*
X168840Y175544D01*
X168370Y175738D01*
D02*
G37*
G36*
X147174Y174280D02*
X146665D01*
X146194Y174085D01*
X145834Y173725D01*
X145640Y173255D01*
Y172746D01*
X145249Y172382D01*
X145000Y172279D01*
X144640Y171919D01*
X144445Y171449D01*
Y170940D01*
X144640Y170469D01*
X145000Y170109D01*
X145470Y169915D01*
X145979D01*
X146449Y170109D01*
X146809Y170469D01*
X147004Y170940D01*
Y171449D01*
X147395Y171812D01*
X147644Y171915D01*
X148004Y172275D01*
X148198Y172746D01*
Y173255D01*
X148004Y173725D01*
X147644Y174085D01*
X147174Y174280D01*
D02*
G37*
G36*
X158130Y174330D02*
X157621D01*
X157151Y174135D01*
X156791Y173776D01*
X156596Y173305D01*
Y172796D01*
X156791Y172326D01*
X157151Y171966D01*
X157330Y171892D01*
X157624Y171399D01*
Y170890D01*
X157819Y170420D01*
X158179Y170060D01*
X158649Y169866D01*
X159158D01*
X159628Y170060D01*
X159988Y170420D01*
X160183Y170890D01*
Y171399D01*
X159988Y171870D01*
X159628Y172230D01*
X159449Y172304D01*
X159155Y172796D01*
Y173305D01*
X158960Y173776D01*
X158600Y174135D01*
X158130Y174330D01*
D02*
G37*
G36*
X135611Y180394D02*
X135102D01*
X134632Y180199D01*
X134272Y179839D01*
X134077Y179369D01*
Y178860D01*
X134272Y178390D01*
X134632Y178030D01*
X135102Y177835D01*
X135536D01*
X135874Y177547D01*
X135952Y177461D01*
X135898Y177156D01*
X135609Y177037D01*
X135249Y176677D01*
X135055Y176207D01*
Y175698D01*
X135249Y175227D01*
X135609Y174867D01*
X136080Y174672D01*
X136589D01*
X136609Y174659D01*
X136616Y174543D01*
X136459Y174082D01*
X135988Y173887D01*
X135628Y173527D01*
X135434Y173057D01*
Y172548D01*
X135628Y172078D01*
X135988Y171718D01*
X136459Y171523D01*
X136717D01*
X137075Y171067D01*
X137027Y170874D01*
X136697Y170737D01*
X136337Y170377D01*
X136143Y169907D01*
Y169871D01*
X135643Y169772D01*
X135597Y169882D01*
X135237Y170242D01*
X134766Y170437D01*
X134257D01*
X133787Y170242D01*
X133427Y169882D01*
X133232Y169412D01*
Y168903D01*
X133427Y168433D01*
X133787Y168073D01*
X134195Y167904D01*
X134270Y167440D01*
X133933Y167061D01*
X133486D01*
X133016Y166867D01*
X132656Y166507D01*
X132461Y166036D01*
Y165527D01*
X132656Y165057D01*
X133016Y164697D01*
X133073Y164561D01*
X133073Y164518D01*
X132805Y164062D01*
X132702Y164041D01*
X132427Y164315D01*
X131957Y164510D01*
X131448D01*
X130978Y164315D01*
X130618Y163955D01*
X130423Y163485D01*
X130367Y163447D01*
X129991Y163603D01*
X129482D01*
X129011Y163408D01*
X128651Y163048D01*
X128457Y162578D01*
Y162069D01*
X128651Y161599D01*
X129011Y161239D01*
X129020Y161196D01*
X128708Y160884D01*
X128513Y160414D01*
Y159905D01*
X128708Y159434D01*
X129068Y159074D01*
X129538Y158879D01*
X130047D01*
X130517Y159074D01*
X130877Y159434D01*
X131072Y159905D01*
Y160414D01*
X130877Y160884D01*
X130517Y161244D01*
X130509Y161287D01*
X130821Y161599D01*
X131016Y162069D01*
X131072Y162107D01*
X131448Y161951D01*
X131957D01*
X132427Y162146D01*
X132787Y162506D01*
X132912Y162808D01*
X133099Y162878D01*
X133410Y162916D01*
X133454Y162910D01*
X133741Y162623D01*
X134211Y162429D01*
X134720D01*
X135190Y162623D01*
X135550Y162983D01*
X135745Y163454D01*
Y163963D01*
X135550Y164433D01*
X135190Y164793D01*
X134964Y165393D01*
X135285Y165801D01*
X135794D01*
X136265Y165996D01*
X136624Y166356D01*
X136819Y166826D01*
Y167335D01*
X136624Y167805D01*
X136265Y168165D01*
X135794Y168360D01*
X135774Y168860D01*
X135792Y168903D01*
Y168939D01*
X136292Y169038D01*
X136337Y168927D01*
X136697Y168567D01*
X137168Y168373D01*
X137677D01*
X138147Y168567D01*
X138507Y168927D01*
X138702Y169398D01*
Y169907D01*
X138847Y170123D01*
X138991D01*
X139461Y170318D01*
X139821Y170678D01*
X140016Y171148D01*
Y171658D01*
X139821Y172128D01*
X139461Y172488D01*
X138991Y172682D01*
X138897D01*
X138421Y173157D01*
X138424Y173324D01*
X138611D01*
X139082Y173519D01*
X139442Y173878D01*
X139636Y174349D01*
Y174858D01*
X139442Y175328D01*
X139082Y175688D01*
X138611Y175883D01*
X138240D01*
X137949Y176241D01*
X138081Y176641D01*
X138221Y176699D01*
X138581Y177059D01*
X138776Y177529D01*
Y178038D01*
X138581Y178509D01*
X138221Y178869D01*
X137751Y179063D01*
X137242D01*
X137136Y179020D01*
X136636Y179354D01*
Y179369D01*
X136441Y179839D01*
X136081Y180199D01*
X135611Y180394D01*
D02*
G37*
G36*
X79600Y173583D02*
X78667D01*
X77766Y173341D01*
X76958Y172875D01*
X76298Y172215D01*
X75832Y171407D01*
X75591Y170506D01*
Y169573D01*
X75832Y168672D01*
X76298Y167864D01*
X76958Y167204D01*
X77766Y166737D01*
X78667Y166496D01*
X79600D01*
X80502Y166737D01*
X81309Y167204D01*
X81969Y167864D01*
X82436Y168672D01*
X82677Y169573D01*
Y170506D01*
X82436Y171407D01*
X81969Y172215D01*
X81309Y172875D01*
X80502Y173341D01*
X79600Y173583D01*
D02*
G37*
G36*
X64640D02*
X63707D01*
X62806Y173341D01*
X61998Y172875D01*
X61338Y172215D01*
X60871Y171407D01*
X60630Y170506D01*
Y169573D01*
X60871Y168672D01*
X61338Y167864D01*
X61998Y167204D01*
X62806Y166737D01*
X63707Y166496D01*
X64640D01*
X65541Y166737D01*
X66349Y167204D01*
X67009Y167864D01*
X67475Y168672D01*
X67716Y169573D01*
Y170506D01*
X67475Y171407D01*
X67009Y172215D01*
X66349Y172875D01*
X65541Y173341D01*
X64640Y173583D01*
D02*
G37*
G36*
X87081Y168583D02*
X86148D01*
X85246Y168341D01*
X84439Y167875D01*
X83779Y167215D01*
X83312Y166407D01*
X83071Y165506D01*
Y164573D01*
X83312Y163672D01*
X83779Y162864D01*
X84439Y162204D01*
X85246Y161738D01*
X86148Y161496D01*
X87081D01*
X87982Y161738D01*
X88790Y162204D01*
X89450Y162864D01*
X89916Y163672D01*
X90158Y164573D01*
Y165506D01*
X89916Y166407D01*
X89450Y167215D01*
X88790Y167875D01*
X87982Y168341D01*
X87081Y168583D01*
D02*
G37*
G36*
X72120D02*
X71187D01*
X70286Y168341D01*
X69478Y167875D01*
X68818Y167215D01*
X68352Y166407D01*
X68110Y165506D01*
Y164573D01*
X68352Y163672D01*
X68818Y162864D01*
X69478Y162204D01*
X70286Y161738D01*
X71187Y161496D01*
X72120D01*
X73021Y161738D01*
X73829Y162204D01*
X74489Y162864D01*
X74955Y163672D01*
X75197Y164573D01*
Y165506D01*
X74955Y166407D01*
X74489Y167215D01*
X73829Y167875D01*
X73021Y168341D01*
X72120Y168583D01*
D02*
G37*
G36*
X79600Y163583D02*
X78667D01*
X77766Y163341D01*
X76958Y162875D01*
X76298Y162215D01*
X75832Y161407D01*
X75591Y160506D01*
Y159573D01*
X75832Y158672D01*
X76298Y157864D01*
X76958Y157204D01*
X77766Y156737D01*
X78667Y156496D01*
X79600D01*
X80502Y156737D01*
X81309Y157204D01*
X81969Y157864D01*
X82436Y158672D01*
X82677Y159573D01*
Y160506D01*
X82436Y161407D01*
X81969Y162215D01*
X81309Y162875D01*
X80502Y163341D01*
X79600Y163583D01*
D02*
G37*
G36*
X64640D02*
X63707D01*
X62806Y163341D01*
X61998Y162875D01*
X61338Y162215D01*
X60871Y161407D01*
X60630Y160506D01*
Y159573D01*
X60871Y158672D01*
X61338Y157864D01*
X61998Y157204D01*
X62806Y156737D01*
X63707Y156496D01*
X64640D01*
X65541Y156737D01*
X66349Y157204D01*
X67009Y157864D01*
X67475Y158672D01*
X67716Y159573D01*
Y160506D01*
X67475Y161407D01*
X67009Y162215D01*
X66349Y162875D01*
X65541Y163341D01*
X64640Y163583D01*
D02*
G37*
G36*
X87081Y158583D02*
X86148D01*
X85246Y158341D01*
X84439Y157875D01*
X83779Y157215D01*
X83312Y156407D01*
X83071Y155506D01*
Y154573D01*
X83312Y153672D01*
X83779Y152864D01*
X84439Y152204D01*
X85246Y151737D01*
X86148Y151496D01*
X87081D01*
X87982Y151737D01*
X88790Y152204D01*
X89450Y152864D01*
X89916Y153672D01*
X90158Y154573D01*
Y155506D01*
X89916Y156407D01*
X89450Y157215D01*
X88790Y157875D01*
X87982Y158341D01*
X87081Y158583D01*
D02*
G37*
G36*
X72120D02*
X71187D01*
X70286Y158341D01*
X69478Y157875D01*
X68818Y157215D01*
X68352Y156407D01*
X68110Y155506D01*
Y154573D01*
X68352Y153672D01*
X68818Y152864D01*
X69478Y152204D01*
X70286Y151737D01*
X71187Y151496D01*
X72120D01*
X73021Y151737D01*
X73829Y152204D01*
X74489Y152864D01*
X74955Y153672D01*
X75197Y154573D01*
Y155506D01*
X74955Y156407D01*
X74489Y157215D01*
X73829Y157875D01*
X73021Y158341D01*
X72120Y158583D01*
D02*
G37*
G36*
X169045Y152351D02*
X168536D01*
X168066Y152156D01*
X167706Y151796D01*
X167511Y151326D01*
Y150817D01*
X167706Y150347D01*
X168066Y149987D01*
X168536Y149792D01*
X169045D01*
X169516Y149987D01*
X169876Y150347D01*
X170070Y150817D01*
Y151326D01*
X169876Y151796D01*
X169516Y152156D01*
X169045Y152351D01*
D02*
G37*
G36*
X160135Y153449D02*
X159626D01*
X159155Y153254D01*
X158795Y152894D01*
X158689Y152638D01*
X158282Y152329D01*
X157773D01*
X157302Y152134D01*
X156942Y151774D01*
X156748Y151304D01*
Y150795D01*
X156942Y150324D01*
X157302Y149965D01*
X157773Y149770D01*
X158282D01*
X158752Y149965D01*
X159112Y150324D01*
X159218Y150581D01*
X159626Y150890D01*
X160135D01*
X160605Y151085D01*
X160965Y151445D01*
X161160Y151915D01*
Y152424D01*
X160965Y152894D01*
X160605Y153254D01*
X160135Y153449D01*
D02*
G37*
G36*
X146055Y153993D02*
X145546D01*
X145076Y153799D01*
X144716Y153439D01*
X144521Y152968D01*
Y152459D01*
X144716Y151989D01*
X145076Y151629D01*
X145331Y151524D01*
X145640Y151114D01*
Y150605D01*
X145834Y150135D01*
X146194Y149775D01*
X146665Y149580D01*
X147174D01*
X147644Y149775D01*
X148004Y150135D01*
X148198Y150605D01*
Y151114D01*
X148004Y151584D01*
X147644Y151944D01*
X147389Y152050D01*
X147081Y152459D01*
Y152968D01*
X146886Y153439D01*
X146526Y153799D01*
X146055Y153993D01*
D02*
G37*
G36*
X79600Y153583D02*
X78667D01*
X77766Y153341D01*
X76958Y152875D01*
X76298Y152215D01*
X75832Y151407D01*
X75591Y150506D01*
Y149573D01*
X75832Y148672D01*
X76298Y147864D01*
X76958Y147204D01*
X77766Y146738D01*
X78667Y146496D01*
X79600D01*
X80502Y146738D01*
X81309Y147204D01*
X81969Y147864D01*
X82436Y148672D01*
X82677Y149573D01*
Y150506D01*
X82436Y151407D01*
X81969Y152215D01*
X81309Y152875D01*
X80502Y153341D01*
X79600Y153583D01*
D02*
G37*
G36*
X64640D02*
X63707D01*
X62806Y153341D01*
X61998Y152875D01*
X61338Y152215D01*
X60871Y151407D01*
X60630Y150506D01*
Y149573D01*
X60871Y148672D01*
X61338Y147864D01*
X61998Y147204D01*
X62806Y146738D01*
X63707Y146496D01*
X64640D01*
X65541Y146738D01*
X66349Y147204D01*
X67009Y147864D01*
X67475Y148672D01*
X67716Y149573D01*
Y150506D01*
X67475Y151407D01*
X67009Y152215D01*
X66349Y152875D01*
X65541Y153341D01*
X64640Y153583D01*
D02*
G37*
G36*
X169218Y145036D02*
X168709D01*
X168239Y144841D01*
X167879Y144481D01*
X167684Y144010D01*
Y143501D01*
X167879Y143031D01*
X168239Y142671D01*
X168709Y142476D01*
X169218D01*
X169688Y142671D01*
X170048Y143031D01*
X170243Y143501D01*
Y144010D01*
X170048Y144481D01*
X169688Y144841D01*
X169218Y145036D01*
D02*
G37*
G36*
X87081Y148583D02*
X86148D01*
X85246Y148341D01*
X84439Y147875D01*
X83779Y147215D01*
X83312Y146407D01*
X83071Y145506D01*
Y144573D01*
X83312Y143672D01*
X83779Y142864D01*
X84439Y142204D01*
X85246Y141737D01*
X86148Y141496D01*
X87081D01*
X87982Y141737D01*
X88790Y142204D01*
X89450Y142864D01*
X89916Y143672D01*
X90158Y144573D01*
Y145506D01*
X89916Y146407D01*
X89450Y147215D01*
X88790Y147875D01*
X87982Y148341D01*
X87081Y148583D01*
D02*
G37*
G36*
X72120D02*
X71187D01*
X70286Y148341D01*
X69478Y147875D01*
X68818Y147215D01*
X68352Y146407D01*
X68110Y145506D01*
Y144573D01*
X68352Y143672D01*
X68818Y142864D01*
X69478Y142204D01*
X70286Y141737D01*
X71187Y141496D01*
X72120D01*
X73021Y141737D01*
X73829Y142204D01*
X74489Y142864D01*
X74955Y143672D01*
X75197Y144573D01*
Y145506D01*
X74955Y146407D01*
X74489Y147215D01*
X73829Y147875D01*
X73021Y148341D01*
X72120Y148583D01*
D02*
G37*
G36*
X116628Y152638D02*
X116120D01*
Y140327D01*
X128431D01*
Y140835D01*
X128115Y142827D01*
X127492Y144745D01*
X126577Y146541D01*
X125391Y148173D01*
X123966Y149599D01*
X122334Y150784D01*
X120537Y151699D01*
X118620Y152322D01*
X116628Y152638D01*
D02*
G37*
G36*
X115120D02*
X114611D01*
X112620Y152322D01*
X110702Y151699D01*
X108905Y150784D01*
X107274Y149599D01*
X105848Y148173D01*
X104663Y146541D01*
X103747Y144745D01*
X103124Y142827D01*
X102809Y140835D01*
Y140327D01*
X115120D01*
Y152638D01*
D02*
G37*
G36*
X167274Y140436D02*
X166765D01*
X166295Y140241D01*
X165935Y139881D01*
X165740Y139411D01*
Y138902D01*
X165935Y138432D01*
X166295Y138072D01*
X166765Y137877D01*
X167274D01*
X167745Y138072D01*
X168105Y138432D01*
X168299Y138902D01*
Y139411D01*
X168105Y139881D01*
X167745Y140241D01*
X167274Y140436D01*
D02*
G37*
G36*
X158283Y142047D02*
X157774D01*
X157304Y141852D01*
X156944Y141492D01*
X156749Y141022D01*
Y140513D01*
X156944Y140043D01*
X157304Y139683D01*
X157623Y139550D01*
X158041Y139252D01*
Y138743D01*
X158236Y138273D01*
X158596Y137913D01*
X159066Y137718D01*
X159575D01*
X160045Y137913D01*
X160405Y138273D01*
X160600Y138743D01*
Y139252D01*
X160405Y139722D01*
X160045Y140082D01*
X159725Y140215D01*
X159308Y140513D01*
Y141022D01*
X159113Y141492D01*
X158753Y141852D01*
X158283Y142047D01*
D02*
G37*
G36*
X140150Y142469D02*
X139641D01*
X139170Y142274D01*
X138810Y141914D01*
X138616Y141444D01*
Y140935D01*
X138740Y140636D01*
X138713Y140333D01*
X138509Y140059D01*
X138225Y139941D01*
X137866Y139581D01*
X137671Y139111D01*
Y138602D01*
X137866Y138132D01*
X138225Y137772D01*
X138696Y137577D01*
X139205D01*
X139675Y137772D01*
X140035Y138132D01*
X140230Y138602D01*
Y139111D01*
X140106Y139410D01*
X140132Y139713D01*
X140336Y139987D01*
X140620Y140105D01*
X140980Y140465D01*
X141175Y140935D01*
Y141444D01*
X140980Y141914D01*
X140620Y142274D01*
X140150Y142469D01*
D02*
G37*
G36*
X147174Y142100D02*
X146665D01*
X146194Y141905D01*
X145834Y141545D01*
X145640Y141075D01*
Y140566D01*
X145720Y140371D01*
X145561Y139764D01*
X145202Y139404D01*
X145007Y138934D01*
Y138425D01*
X145202Y137954D01*
X145561Y137595D01*
X146032Y137400D01*
X146541D01*
X147011Y137595D01*
X147371Y137954D01*
X147566Y138425D01*
Y138934D01*
X147485Y139129D01*
X147644Y139735D01*
X148004Y140095D01*
X148198Y140566D01*
Y141075D01*
X148004Y141545D01*
X147644Y141905D01*
X147174Y142100D01*
D02*
G37*
G36*
X79600Y143583D02*
X78667D01*
X77766Y143341D01*
X76958Y142875D01*
X76298Y142215D01*
X75832Y141407D01*
X75591Y140506D01*
Y139573D01*
X75832Y138672D01*
X76298Y137864D01*
X76958Y137204D01*
X77766Y136738D01*
X78667Y136496D01*
X79600D01*
X80502Y136738D01*
X81309Y137204D01*
X81969Y137864D01*
X82436Y138672D01*
X82677Y139573D01*
Y140506D01*
X82436Y141407D01*
X81969Y142215D01*
X81309Y142875D01*
X80502Y143341D01*
X79600Y143583D01*
D02*
G37*
G36*
X64640D02*
X63707D01*
X62806Y143341D01*
X61998Y142875D01*
X61338Y142215D01*
X60871Y141407D01*
X60630Y140506D01*
Y139573D01*
X60871Y138672D01*
X61338Y137864D01*
X61998Y137204D01*
X62806Y136738D01*
X63707Y136496D01*
X64640D01*
X65541Y136738D01*
X66349Y137204D01*
X67009Y137864D01*
X67475Y138672D01*
X67716Y139573D01*
Y140506D01*
X67475Y141407D01*
X67009Y142215D01*
X66349Y142875D01*
X65541Y143341D01*
X64640Y143583D01*
D02*
G37*
G36*
X87081Y138583D02*
X86148D01*
X85246Y138341D01*
X84439Y137875D01*
X83779Y137215D01*
X83312Y136407D01*
X83071Y135506D01*
Y134573D01*
X83312Y133672D01*
X83779Y132864D01*
X84439Y132204D01*
X85246Y131737D01*
X86148Y131496D01*
X87081D01*
X87982Y131737D01*
X88790Y132204D01*
X89450Y132864D01*
X89916Y133672D01*
X90158Y134573D01*
Y135506D01*
X89916Y136407D01*
X89450Y137215D01*
X88790Y137875D01*
X87982Y138341D01*
X87081Y138583D01*
D02*
G37*
G36*
X72120D02*
X71187D01*
X70286Y138341D01*
X69478Y137875D01*
X68818Y137215D01*
X68352Y136407D01*
X68110Y135506D01*
Y134573D01*
X68352Y133672D01*
X68818Y132864D01*
X69478Y132204D01*
X70286Y131737D01*
X71187Y131496D01*
X72120D01*
X73021Y131737D01*
X73829Y132204D01*
X74489Y132864D01*
X74955Y133672D01*
X75197Y134573D01*
Y135506D01*
X74955Y136407D01*
X74489Y137215D01*
X73829Y137875D01*
X73021Y138341D01*
X72120Y138583D01*
D02*
G37*
G36*
X128431Y139327D02*
X116120D01*
Y127016D01*
X116628D01*
X118620Y127331D01*
X120537Y127954D01*
X122334Y128870D01*
X123966Y130055D01*
X125391Y131481D01*
X126577Y133112D01*
X127492Y134909D01*
X128115Y136827D01*
X128431Y138819D01*
Y139327D01*
D02*
G37*
G36*
X115120D02*
X102809D01*
Y138819D01*
X103124Y136827D01*
X103747Y134909D01*
X104663Y133112D01*
X105848Y131481D01*
X107274Y130055D01*
X108905Y128870D01*
X110702Y127954D01*
X112620Y127331D01*
X114611Y127016D01*
X115120D01*
Y139327D01*
D02*
G37*
G36*
X79600Y133583D02*
X78667D01*
X77766Y133341D01*
X76958Y132875D01*
X76298Y132215D01*
X75832Y131407D01*
X75591Y130506D01*
Y129573D01*
X75832Y128672D01*
X76298Y127864D01*
X76958Y127204D01*
X77766Y126737D01*
X78667Y126496D01*
X79600D01*
X80502Y126737D01*
X81309Y127204D01*
X81969Y127864D01*
X82436Y128672D01*
X82677Y129573D01*
Y130506D01*
X82436Y131407D01*
X81969Y132215D01*
X81309Y132875D01*
X80502Y133341D01*
X79600Y133583D01*
D02*
G37*
G36*
X64640D02*
X63707D01*
X62806Y133341D01*
X61998Y132875D01*
X61338Y132215D01*
X60871Y131407D01*
X60630Y130506D01*
Y129573D01*
X60871Y128672D01*
X61338Y127864D01*
X61998Y127204D01*
X62806Y126737D01*
X63707Y126496D01*
X64640D01*
X65541Y126737D01*
X66349Y127204D01*
X67009Y127864D01*
X67475Y128672D01*
X67716Y129573D01*
Y130506D01*
X67475Y131407D01*
X67009Y132215D01*
X66349Y132875D01*
X65541Y133341D01*
X64640Y133583D01*
D02*
G37*
G36*
X87160Y129189D02*
X87114D01*
Y125539D01*
X90764D01*
Y125586D01*
X90481Y126641D01*
X89935Y127587D01*
X89162Y128360D01*
X88216Y128906D01*
X87160Y129189D01*
D02*
G37*
G36*
X86114D02*
X86068D01*
X85013Y128906D01*
X84066Y128360D01*
X83294Y127587D01*
X82747Y126641D01*
X82465Y125586D01*
Y125539D01*
X86114D01*
Y129189D01*
D02*
G37*
G36*
X72120Y128583D02*
X71187D01*
X70286Y128341D01*
X69478Y127875D01*
X68818Y127215D01*
X68352Y126407D01*
X68110Y125506D01*
Y124573D01*
X68352Y123672D01*
X68818Y122864D01*
X69478Y122204D01*
X70286Y121738D01*
X71187Y121496D01*
X72120D01*
X73021Y121738D01*
X73829Y122204D01*
X74489Y122864D01*
X74955Y123672D01*
X75197Y124573D01*
Y125506D01*
X74955Y126407D01*
X74489Y127215D01*
X73829Y127875D01*
X73021Y128341D01*
X72120Y128583D01*
D02*
G37*
G36*
X159461Y121501D02*
X158952D01*
X158482Y121306D01*
X158187Y121011D01*
X157963Y120960D01*
X157599Y120991D01*
X157333Y121257D01*
X156863Y121452D01*
X156354D01*
X155883Y121257D01*
X155523Y120897D01*
X155329Y120427D01*
Y119918D01*
X155523Y119448D01*
X155883Y119088D01*
X156354Y118893D01*
X156863D01*
X157333Y119088D01*
X157628Y119383D01*
X157852Y119434D01*
X158215Y119403D01*
X158482Y119136D01*
X158952Y118942D01*
X159461D01*
X159931Y119136D01*
X160291Y119496D01*
X160486Y119967D01*
Y120476D01*
X160291Y120946D01*
X159931Y121306D01*
X159461Y121501D01*
D02*
G37*
G36*
X90764Y124539D02*
X87114D01*
Y120890D01*
X87160D01*
X88216Y121173D01*
X89162Y121719D01*
X89935Y122492D01*
X90481Y123438D01*
X90764Y124493D01*
Y124539D01*
D02*
G37*
G36*
X86114D02*
X82465D01*
Y124493D01*
X82747Y123438D01*
X83294Y122492D01*
X84066Y121719D01*
X85013Y121173D01*
X86068Y120890D01*
X86114D01*
Y124539D01*
D02*
G37*
G36*
X146588Y121683D02*
X146079D01*
X145609Y121488D01*
X145249Y121129D01*
X145054Y120658D01*
Y120149D01*
X145249Y119679D01*
X145609Y119319D01*
X146079Y119124D01*
X146588D01*
X147058Y119319D01*
X147222Y119483D01*
X147701Y119512D01*
X147829Y119437D01*
X148110Y119156D01*
X148581Y118961D01*
X149090D01*
X149560Y119156D01*
X149920Y119516D01*
X150115Y119986D01*
Y120495D01*
X149920Y120965D01*
X149560Y121325D01*
X149090Y121520D01*
X148581D01*
X148110Y121325D01*
X147946Y121161D01*
X147468Y121132D01*
X147339Y121207D01*
X147058Y121488D01*
X146588Y121683D01*
D02*
G37*
G36*
X168075Y121196D02*
X167566D01*
X167096Y121001D01*
X166736Y120641D01*
X166541Y120171D01*
Y119662D01*
X166736Y119192D01*
X167096Y118832D01*
X167566Y118637D01*
X168075D01*
X168546Y118832D01*
X168906Y119192D01*
X169100Y119662D01*
Y120171D01*
X168906Y120641D01*
X168546Y121001D01*
X168075Y121196D01*
D02*
G37*
G36*
X79600Y123583D02*
X78667D01*
X77766Y123341D01*
X76958Y122875D01*
X76298Y122215D01*
X75832Y121407D01*
X75591Y120506D01*
Y119573D01*
X75832Y118672D01*
X76298Y117864D01*
X76958Y117204D01*
X77766Y116737D01*
X78667Y116496D01*
X79600D01*
X80502Y116737D01*
X81309Y117204D01*
X81969Y117864D01*
X82436Y118672D01*
X82677Y119573D01*
Y120506D01*
X82436Y121407D01*
X81969Y122215D01*
X81309Y122875D01*
X80502Y123341D01*
X79600Y123583D01*
D02*
G37*
G36*
X64640D02*
X63707D01*
X62806Y123341D01*
X61998Y122875D01*
X61338Y122215D01*
X60871Y121407D01*
X60630Y120506D01*
Y119573D01*
X60871Y118672D01*
X61338Y117864D01*
X61998Y117204D01*
X62806Y116737D01*
X63707Y116496D01*
X64640D01*
X65541Y116737D01*
X66349Y117204D01*
X67009Y117864D01*
X67475Y118672D01*
X67716Y119573D01*
Y120506D01*
X67475Y121407D01*
X67009Y122215D01*
X66349Y122875D01*
X65541Y123341D01*
X64640Y123583D01*
D02*
G37*
G36*
X139975Y121896D02*
X139466D01*
X138996Y121701D01*
X138636Y121341D01*
X138441Y120871D01*
Y120362D01*
X138636Y119892D01*
X138996Y119532D01*
X139466Y119337D01*
X139611D01*
X139672Y119265D01*
X139677Y119245D01*
X139676Y119232D01*
X139290Y118746D01*
X139192D01*
X138722Y118552D01*
X138362Y118192D01*
X138167Y117721D01*
Y117212D01*
X138362Y116742D01*
X138722Y116382D01*
X139192Y116188D01*
X139330D01*
X139437Y115985D01*
X139178Y115597D01*
X139125D01*
X138655Y115402D01*
X138295Y115042D01*
X138100Y114572D01*
Y114063D01*
X138295Y113593D01*
X138655Y113233D01*
X139125Y113038D01*
X139635D01*
X140105Y113233D01*
X140465Y113593D01*
X140659Y114063D01*
Y114185D01*
X140923Y114595D01*
X141121Y114613D01*
X141443D01*
X141914Y114807D01*
X142274Y115167D01*
X142468Y115638D01*
Y116147D01*
X142274Y116617D01*
X141914Y116977D01*
X141443Y117172D01*
X141230D01*
X141169Y117244D01*
X141162Y117273D01*
X141551Y117762D01*
X141649D01*
X142119Y117957D01*
X142479Y118317D01*
X142674Y118787D01*
Y119296D01*
X142479Y119767D01*
X142119Y120126D01*
X141649Y120321D01*
X141462D01*
X141131Y120351D01*
X141000Y120783D01*
Y120871D01*
X140805Y121341D01*
X140446Y121701D01*
X139975Y121896D01*
D02*
G37*
G36*
X87081Y118583D02*
X86148D01*
X85246Y118341D01*
X84439Y117875D01*
X83779Y117215D01*
X83312Y116407D01*
X83071Y115506D01*
Y114573D01*
X83312Y113672D01*
X83779Y112864D01*
X84439Y112204D01*
X85246Y111738D01*
X86148Y111496D01*
X87081D01*
X87982Y111738D01*
X88790Y112204D01*
X89450Y112864D01*
X89916Y113672D01*
X90158Y114573D01*
Y115506D01*
X89916Y116407D01*
X89450Y117215D01*
X88790Y117875D01*
X87982Y118341D01*
X87081Y118583D01*
D02*
G37*
G36*
X72120D02*
X71187D01*
X70286Y118341D01*
X69478Y117875D01*
X68818Y117215D01*
X68352Y116407D01*
X68110Y115506D01*
Y114573D01*
X68352Y113672D01*
X68818Y112864D01*
X69478Y112204D01*
X70286Y111738D01*
X71187Y111496D01*
X72120D01*
X73021Y111738D01*
X73829Y112204D01*
X74489Y112864D01*
X74955Y113672D01*
X75197Y114573D01*
Y115506D01*
X74955Y116407D01*
X74489Y117215D01*
X73829Y117875D01*
X73021Y118341D01*
X72120Y118583D01*
D02*
G37*
G36*
X142433Y114022D02*
X141924D01*
X141454Y113827D01*
X141094Y113467D01*
X140899Y112997D01*
Y112488D01*
X141094Y112018D01*
X141454Y111658D01*
X141924Y111463D01*
X142433D01*
X142904Y111658D01*
X143264Y112018D01*
X143458Y112488D01*
Y112997D01*
X143264Y113467D01*
X142904Y113827D01*
X142433Y114022D01*
D02*
G37*
G36*
X168813Y113083D02*
X168304D01*
X167834Y112888D01*
X167474Y112528D01*
X167279Y112058D01*
Y111549D01*
X167474Y111079D01*
X167834Y110719D01*
X168304Y110524D01*
X168813D01*
X169284Y110719D01*
X169644Y111079D01*
X169838Y111549D01*
Y112058D01*
X169644Y112528D01*
X169284Y112888D01*
X168813Y113083D01*
D02*
G37*
G36*
X139578Y112447D02*
X139069D01*
X138599Y112252D01*
X138239Y111893D01*
X138045Y111422D01*
Y110913D01*
X138239Y110443D01*
X138599Y110083D01*
X139069Y109888D01*
X139578D01*
X139789Y109976D01*
X140230Y109738D01*
X140259Y109713D01*
X140240Y109478D01*
X139767Y109203D01*
X139537Y109298D01*
X139028D01*
X138557Y109103D01*
X138197Y108743D01*
X138003Y108273D01*
Y107764D01*
X138197Y107293D01*
X138557Y106933D01*
X139028Y106739D01*
X139537D01*
X140007Y106933D01*
X140367Y107293D01*
X140562Y107764D01*
Y108181D01*
X140782Y108371D01*
X141019Y108476D01*
X141412Y108314D01*
X141921D01*
X142391Y108508D01*
X142751Y108868D01*
X142946Y109338D01*
Y109847D01*
X142751Y110318D01*
X142391Y110678D01*
X141921Y110872D01*
X141412D01*
X141066Y110729D01*
X140887Y110801D01*
X140719Y110914D01*
X140603Y111038D01*
Y111422D01*
X140409Y111893D01*
X140049Y112252D01*
X139578Y112447D01*
D02*
G37*
G36*
X159384Y108928D02*
X158875D01*
X158405Y108733D01*
X158130Y108458D01*
X157851Y108404D01*
X157537Y108453D01*
X157269Y108721D01*
X156799Y108915D01*
X156290D01*
X155820Y108721D01*
X155460Y108361D01*
X155265Y107890D01*
Y107381D01*
X155460Y106911D01*
X155820Y106551D01*
X156290Y106356D01*
X156799D01*
X157269Y106551D01*
X157544Y106826D01*
X157824Y106880D01*
X158137Y106831D01*
X158405Y106564D01*
X158875Y106369D01*
X159384D01*
X159854Y106564D01*
X160214Y106924D01*
X160409Y107394D01*
Y107903D01*
X160214Y108373D01*
X159854Y108733D01*
X159384Y108928D01*
D02*
G37*
G36*
X146538Y108831D02*
X146029D01*
X145559Y108637D01*
X145199Y108277D01*
X145123Y108094D01*
X144542Y107968D01*
X144441Y108070D01*
X143971Y108264D01*
X143462D01*
X142991Y108070D01*
X142631Y107710D01*
X142437Y107239D01*
Y106730D01*
X142631Y106260D01*
X142991Y105900D01*
X143462Y105705D01*
X143971D01*
X144441Y105900D01*
X144801Y106260D01*
X144876Y106442D01*
X145458Y106568D01*
X145559Y106467D01*
X146029Y106272D01*
X146538D01*
X147008Y106467D01*
X147260Y106719D01*
X147691Y106727D01*
X147848Y106678D01*
X148157Y106369D01*
X148627Y106174D01*
X149136D01*
X149607Y106369D01*
X149967Y106729D01*
X150162Y107199D01*
Y107708D01*
X149967Y108178D01*
X149607Y108538D01*
X149136Y108733D01*
X148627D01*
X148157Y108538D01*
X147905Y108286D01*
X147474Y108279D01*
X147318Y108327D01*
X147008Y108637D01*
X146538Y108831D01*
D02*
G37*
G36*
X79600Y113583D02*
X78667D01*
X77766Y113341D01*
X76958Y112875D01*
X76298Y112215D01*
X75832Y111407D01*
X75591Y110506D01*
Y109573D01*
X75832Y108672D01*
X76298Y107864D01*
X76958Y107204D01*
X77766Y106737D01*
X78667Y106496D01*
X79600D01*
X80502Y106737D01*
X81309Y107204D01*
X81969Y107864D01*
X82436Y108672D01*
X82677Y109573D01*
Y110506D01*
X82436Y111407D01*
X81969Y112215D01*
X81309Y112875D01*
X80502Y113341D01*
X79600Y113583D01*
D02*
G37*
G36*
X64640D02*
X63707D01*
X62806Y113341D01*
X61998Y112875D01*
X61338Y112215D01*
X60871Y111407D01*
X60630Y110506D01*
Y109573D01*
X60871Y108672D01*
X61338Y107864D01*
X61998Y107204D01*
X62806Y106737D01*
X63707Y106496D01*
X64640D01*
X65541Y106737D01*
X66349Y107204D01*
X67009Y107864D01*
X67475Y108672D01*
X67716Y109573D01*
Y110506D01*
X67475Y111407D01*
X67009Y112215D01*
X66349Y112875D01*
X65541Y113341D01*
X64640Y113583D01*
D02*
G37*
G36*
X167945Y108846D02*
X167436D01*
X166966Y108652D01*
X166606Y108292D01*
X166411Y107822D01*
Y107313D01*
X166606Y106842D01*
X166966Y106482D01*
X167436Y106288D01*
X167945D01*
X168416Y106482D01*
X168775Y106842D01*
X168970Y107313D01*
Y107822D01*
X168775Y108292D01*
X168416Y108652D01*
X167945Y108846D01*
D02*
G37*
G36*
X87081Y108583D02*
X86148D01*
X85246Y108341D01*
X84439Y107875D01*
X83779Y107215D01*
X83312Y106407D01*
X83071Y105506D01*
Y104573D01*
X83312Y103672D01*
X83779Y102864D01*
X84439Y102204D01*
X85246Y101737D01*
X86148Y101496D01*
X87081D01*
X87982Y101737D01*
X88790Y102204D01*
X89450Y102864D01*
X89916Y103672D01*
X90158Y104573D01*
Y105506D01*
X89916Y106407D01*
X89450Y107215D01*
X88790Y107875D01*
X87982Y108341D01*
X87081Y108583D01*
D02*
G37*
G36*
X72120D02*
X71187D01*
X70286Y108341D01*
X69478Y107875D01*
X68818Y107215D01*
X68352Y106407D01*
X68110Y105506D01*
Y104573D01*
X68352Y103672D01*
X68818Y102864D01*
X69478Y102204D01*
X70286Y101737D01*
X71187Y101496D01*
X72120D01*
X73021Y101737D01*
X73829Y102204D01*
X74489Y102864D01*
X74955Y103672D01*
X75197Y104573D01*
Y105506D01*
X74955Y106407D01*
X74489Y107215D01*
X73829Y107875D01*
X73021Y108341D01*
X72120Y108583D01*
D02*
G37*
G36*
X79600Y103583D02*
X78667D01*
X77766Y103341D01*
X76958Y102875D01*
X76298Y102215D01*
X75832Y101407D01*
X75591Y100506D01*
Y99573D01*
X75832Y98672D01*
X76298Y97864D01*
X76958Y97204D01*
X77766Y96737D01*
X78667Y96496D01*
X79600D01*
X80502Y96737D01*
X81309Y97204D01*
X81969Y97864D01*
X82436Y98672D01*
X82677Y99573D01*
Y100506D01*
X82436Y101407D01*
X81969Y102215D01*
X81309Y102875D01*
X80502Y103341D01*
X79600Y103583D01*
D02*
G37*
G36*
X64640D02*
X63707D01*
X62806Y103341D01*
X61998Y102875D01*
X61338Y102215D01*
X60871Y101407D01*
X60630Y100506D01*
Y99573D01*
X60871Y98672D01*
X61338Y97864D01*
X61998Y97204D01*
X62806Y96737D01*
X63707Y96496D01*
X64640D01*
X65541Y96737D01*
X66349Y97204D01*
X67009Y97864D01*
X67475Y98672D01*
X67716Y99573D01*
Y100506D01*
X67475Y101407D01*
X67009Y102215D01*
X66349Y102875D01*
X65541Y103341D01*
X64640Y103583D01*
D02*
G37*
G36*
X87081Y98583D02*
X86148D01*
X85246Y98341D01*
X84439Y97875D01*
X83779Y97215D01*
X83312Y96407D01*
X83071Y95506D01*
Y94573D01*
X83312Y93672D01*
X83779Y92864D01*
X84439Y92204D01*
X85246Y91738D01*
X86148Y91496D01*
X87081D01*
X87982Y91738D01*
X88790Y92204D01*
X89450Y92864D01*
X89916Y93672D01*
X90158Y94573D01*
Y95506D01*
X89916Y96407D01*
X89450Y97215D01*
X88790Y97875D01*
X87982Y98341D01*
X87081Y98583D01*
D02*
G37*
G36*
X72120D02*
X71187D01*
X70286Y98341D01*
X69478Y97875D01*
X68818Y97215D01*
X68352Y96407D01*
X68110Y95506D01*
Y94573D01*
X68352Y93672D01*
X68818Y92864D01*
X69478Y92204D01*
X70286Y91738D01*
X71187Y91496D01*
X72120D01*
X73021Y91738D01*
X73829Y92204D01*
X74489Y92864D01*
X74955Y93672D01*
X75197Y94573D01*
Y95506D01*
X74955Y96407D01*
X74489Y97215D01*
X73829Y97875D01*
X73021Y98341D01*
X72120Y98583D01*
D02*
G37*
G36*
X159224Y90114D02*
X158715D01*
X158245Y89920D01*
X157885Y89560D01*
X157690Y89089D01*
Y88580D01*
X157885Y88110D01*
X158245Y87750D01*
X158715Y87555D01*
X159224D01*
X159695Y87750D01*
X160054Y88110D01*
X160249Y88580D01*
Y89089D01*
X160054Y89560D01*
X159695Y89920D01*
X159224Y90114D01*
D02*
G37*
G36*
X167500Y89327D02*
X166991D01*
X166520Y89132D01*
X166160Y88772D01*
X165966Y88302D01*
Y87793D01*
X166160Y87323D01*
X166520Y86963D01*
X166991Y86768D01*
X167500D01*
X167970Y86963D01*
X168330Y87323D01*
X168525Y87793D01*
Y88302D01*
X168330Y88772D01*
X167970Y89132D01*
X167500Y89327D01*
D02*
G37*
G36*
X139534Y89603D02*
X139025D01*
X138555Y89408D01*
X138195Y89048D01*
X138000Y88578D01*
Y88069D01*
X138195Y87598D01*
X138555Y87238D01*
X139025Y87044D01*
X139534D01*
X140004Y87238D01*
X140364Y87598D01*
X140392Y87667D01*
X140542Y87683D01*
X140913Y87617D01*
X141066Y87249D01*
X141426Y86889D01*
X141896Y86694D01*
X142405D01*
X142875Y86889D01*
X143235Y87249D01*
X143430Y87719D01*
Y88228D01*
X143235Y88698D01*
X142875Y89058D01*
X142405Y89253D01*
X141896D01*
X141426Y89058D01*
X141066Y88698D01*
X141037Y88630D01*
X140888Y88613D01*
X140517Y88679D01*
X140364Y89048D01*
X140004Y89408D01*
X139534Y89603D01*
D02*
G37*
G36*
X79600Y93583D02*
X78667D01*
X77766Y93341D01*
X76958Y92875D01*
X76298Y92215D01*
X75832Y91407D01*
X75591Y90506D01*
Y89573D01*
X75832Y88672D01*
X76298Y87864D01*
X76958Y87204D01*
X77766Y86738D01*
X78667Y86496D01*
X79600D01*
X80502Y86738D01*
X81309Y87204D01*
X81969Y87864D01*
X82436Y88672D01*
X82677Y89573D01*
Y90506D01*
X82436Y91407D01*
X81969Y92215D01*
X81309Y92875D01*
X80502Y93341D01*
X79600Y93583D01*
D02*
G37*
G36*
X64640D02*
X63707D01*
X62806Y93341D01*
X61998Y92875D01*
X61338Y92215D01*
X60871Y91407D01*
X60630Y90506D01*
Y89573D01*
X60871Y88672D01*
X61338Y87864D01*
X61998Y87204D01*
X62806Y86738D01*
X63707Y86496D01*
X64640D01*
X65541Y86738D01*
X66349Y87204D01*
X67009Y87864D01*
X67475Y88672D01*
X67716Y89573D01*
Y90506D01*
X67475Y91407D01*
X67009Y92215D01*
X66349Y92875D01*
X65541Y93341D01*
X64640Y93583D01*
D02*
G37*
G36*
X87081Y88583D02*
X86148D01*
X85246Y88341D01*
X84439Y87875D01*
X83779Y87215D01*
X83312Y86407D01*
X83071Y85506D01*
Y84573D01*
X83312Y83672D01*
X83779Y82864D01*
X84439Y82204D01*
X85246Y81738D01*
X86148Y81496D01*
X87081D01*
X87982Y81738D01*
X88790Y82204D01*
X89450Y82864D01*
X89916Y83672D01*
X90158Y84573D01*
Y85506D01*
X89916Y86407D01*
X89450Y87215D01*
X88790Y87875D01*
X87982Y88341D01*
X87081Y88583D01*
D02*
G37*
G36*
X72120D02*
X71187D01*
X70286Y88341D01*
X69478Y87875D01*
X68818Y87215D01*
X68352Y86407D01*
X68110Y85506D01*
Y84573D01*
X68352Y83672D01*
X68818Y82864D01*
X69478Y82204D01*
X70286Y81738D01*
X71187Y81496D01*
X72120D01*
X73021Y81738D01*
X73829Y82204D01*
X74489Y82864D01*
X74955Y83672D01*
X75197Y84573D01*
Y85506D01*
X74955Y86407D01*
X74489Y87215D01*
X73829Y87875D01*
X73021Y88341D01*
X72120Y88583D01*
D02*
G37*
G36*
X79680Y84189D02*
X79634D01*
Y80539D01*
X83284D01*
Y80586D01*
X83001Y81641D01*
X82454Y82587D01*
X81682Y83360D01*
X80736Y83906D01*
X79680Y84189D01*
D02*
G37*
G36*
X78634D02*
X78588D01*
X77532Y83906D01*
X76586Y83360D01*
X75813Y82587D01*
X75267Y81641D01*
X74984Y80586D01*
Y80539D01*
X78634D01*
Y84189D01*
D02*
G37*
G36*
X139935Y86453D02*
X139426D01*
X138955Y86258D01*
X138595Y85898D01*
X138401Y85428D01*
Y84919D01*
X138595Y84449D01*
X138955Y84089D01*
X139426Y83894D01*
X139759Y83894D01*
X139963Y83534D01*
X139619Y83158D01*
X139421D01*
X138951Y82963D01*
X138591Y82604D01*
X138396Y82133D01*
Y81624D01*
X138591Y81154D01*
X138951Y80794D01*
X139421Y80599D01*
X139536D01*
X139612Y80488D01*
X139334Y80009D01*
X139289D01*
X138819Y79814D01*
X138459Y79454D01*
X138264Y78984D01*
Y78475D01*
X138459Y78004D01*
X138819Y77644D01*
X139289Y77450D01*
X139798D01*
X140268Y77644D01*
X140628Y78004D01*
X140823Y78475D01*
Y78723D01*
X140988Y79050D01*
X141285Y79171D01*
X141558D01*
X142028Y79366D01*
X142388Y79725D01*
X142582Y80196D01*
Y80705D01*
X142388Y81175D01*
X142028Y81535D01*
X141558Y81730D01*
X141339D01*
X141293Y81798D01*
X141361Y82288D01*
X141521Y82417D01*
X141620D01*
X142090Y82612D01*
X142450Y82972D01*
X142645Y83442D01*
Y83951D01*
X142450Y84422D01*
X142090Y84781D01*
X141620Y84976D01*
X141111Y84976D01*
X140960Y85428D01*
X140765Y85898D01*
X140405Y86258D01*
X139935Y86453D01*
D02*
G37*
G36*
X169530Y79069D02*
X169021D01*
X168551Y78874D01*
X168191Y78514D01*
X167996Y78044D01*
Y77535D01*
X168191Y77065D01*
X168551Y76705D01*
X169021Y76510D01*
X169530D01*
X170000Y76705D01*
X170360Y77065D01*
X170555Y77535D01*
Y78044D01*
X170360Y78514D01*
X170000Y78874D01*
X169530Y79069D01*
D02*
G37*
G36*
X64640Y83583D02*
X63707D01*
X62806Y83341D01*
X61998Y82875D01*
X61338Y82215D01*
X60871Y81407D01*
X60630Y80506D01*
Y79573D01*
X60871Y78672D01*
X61338Y77864D01*
X61998Y77204D01*
X62806Y76737D01*
X63707Y76496D01*
X64640D01*
X65541Y76737D01*
X66349Y77204D01*
X67009Y77864D01*
X67475Y78672D01*
X67716Y79573D01*
Y80506D01*
X67475Y81407D01*
X67009Y82215D01*
X66349Y82875D01*
X65541Y83341D01*
X64640Y83583D01*
D02*
G37*
G36*
X159115Y76759D02*
X158606D01*
X158136Y76564D01*
X157901Y76329D01*
X157620Y76240D01*
X157282Y76318D01*
X157062Y76538D01*
X156592Y76733D01*
X156083D01*
X155613Y76538D01*
X155253Y76178D01*
X155058Y75708D01*
Y75199D01*
X155253Y74728D01*
X155613Y74368D01*
X156083Y74173D01*
X156592D01*
X157062Y74368D01*
X157297Y74603D01*
X157578Y74692D01*
X157916Y74614D01*
X158136Y74395D01*
X158606Y74200D01*
X159115D01*
X159585Y74395D01*
X159945Y74755D01*
X160140Y75225D01*
Y75734D01*
X159945Y76205D01*
X159585Y76564D01*
X159115Y76759D01*
D02*
G37*
G36*
X148850Y76649D02*
X148341D01*
X147871Y76454D01*
X147585Y76168D01*
X147292Y76126D01*
X147000Y76168D01*
X146714Y76454D01*
X146244Y76649D01*
X145735D01*
X145265Y76454D01*
X144905Y76094D01*
X144710Y75624D01*
Y75115D01*
X144905Y74644D01*
X145265Y74284D01*
X145735Y74090D01*
X146244D01*
X146714Y74284D01*
X147000Y74571D01*
X147292Y74613D01*
X147585Y74571D01*
X147871Y74284D01*
X148341Y74090D01*
X148850D01*
X149320Y74284D01*
X149680Y74644D01*
X149875Y75115D01*
Y75624D01*
X149680Y76094D01*
X149320Y76454D01*
X148850Y76649D01*
D02*
G37*
G36*
X83284Y79539D02*
X79634D01*
Y75890D01*
X79680D01*
X80736Y76173D01*
X81682Y76719D01*
X82454Y77491D01*
X83001Y78438D01*
X83284Y79493D01*
Y79539D01*
D02*
G37*
G36*
X78634D02*
X74984D01*
Y79493D01*
X75267Y78438D01*
X75813Y77491D01*
X76586Y76719D01*
X77532Y76173D01*
X78588Y75890D01*
X78634D01*
Y79539D01*
D02*
G37*
G36*
X166799Y76733D02*
X166290D01*
X165820Y76538D01*
X165460Y76178D01*
X165265Y75708D01*
Y75199D01*
X165460Y74728D01*
X165820Y74368D01*
X166290Y74173D01*
X166799D01*
X167270Y74368D01*
X167629Y74728D01*
X167824Y75199D01*
Y75708D01*
X167629Y76178D01*
X167270Y76538D01*
X166799Y76733D01*
D02*
G37*
G36*
X87081Y78583D02*
X86148D01*
X85246Y78341D01*
X84439Y77875D01*
X83779Y77215D01*
X83312Y76407D01*
X83071Y75506D01*
Y74573D01*
X83312Y73672D01*
X83779Y72864D01*
X84439Y72204D01*
X85246Y71737D01*
X86148Y71496D01*
X87081D01*
X87982Y71737D01*
X88790Y72204D01*
X89450Y72864D01*
X89916Y73672D01*
X90158Y74573D01*
Y75506D01*
X89916Y76407D01*
X89450Y77215D01*
X88790Y77875D01*
X87982Y78341D01*
X87081Y78583D01*
D02*
G37*
G36*
X72120D02*
X71187D01*
X70286Y78341D01*
X69478Y77875D01*
X68818Y77215D01*
X68352Y76407D01*
X68110Y75506D01*
Y74573D01*
X68352Y73672D01*
X68818Y72864D01*
X69478Y72204D01*
X70286Y71737D01*
X71187Y71496D01*
X72120D01*
X73021Y71737D01*
X73829Y72204D01*
X74489Y72864D01*
X74955Y73672D01*
X75197Y74573D01*
Y75506D01*
X74955Y76407D01*
X74489Y77215D01*
X73829Y77875D01*
X73021Y78341D01*
X72120Y78583D01*
D02*
G37*
G36*
X79600Y73583D02*
X78667D01*
X77766Y73341D01*
X76958Y72875D01*
X76298Y72215D01*
X75832Y71407D01*
X75591Y70506D01*
Y69573D01*
X75832Y68672D01*
X76298Y67864D01*
X76958Y67204D01*
X77766Y66738D01*
X78667Y66496D01*
X79600D01*
X80502Y66738D01*
X81309Y67204D01*
X81969Y67864D01*
X82436Y68672D01*
X82677Y69573D01*
Y70506D01*
X82436Y71407D01*
X81969Y72215D01*
X81309Y72875D01*
X80502Y73341D01*
X79600Y73583D01*
D02*
G37*
G36*
X64640D02*
X63707D01*
X62806Y73341D01*
X61998Y72875D01*
X61338Y72215D01*
X60871Y71407D01*
X60630Y70506D01*
Y69573D01*
X60871Y68672D01*
X61338Y67864D01*
X61998Y67204D01*
X62806Y66738D01*
X63707Y66496D01*
X64640D01*
X65541Y66738D01*
X66349Y67204D01*
X67009Y67864D01*
X67475Y68672D01*
X67716Y69573D01*
Y70506D01*
X67475Y71407D01*
X67009Y72215D01*
X66349Y72875D01*
X65541Y73341D01*
X64640Y73583D01*
D02*
G37*
G36*
X87081Y68583D02*
X86148D01*
X85246Y68341D01*
X84439Y67875D01*
X83779Y67215D01*
X83312Y66407D01*
X83071Y65506D01*
Y64573D01*
X83312Y63672D01*
X83779Y62864D01*
X84439Y62204D01*
X85246Y61738D01*
X86148Y61496D01*
X87081D01*
X87982Y61738D01*
X88790Y62204D01*
X89450Y62864D01*
X89916Y63672D01*
X90158Y64573D01*
Y65506D01*
X89916Y66407D01*
X89450Y67215D01*
X88790Y67875D01*
X87982Y68341D01*
X87081Y68583D01*
D02*
G37*
G36*
X72120D02*
X71187D01*
X70286Y68341D01*
X69478Y67875D01*
X68818Y67215D01*
X68352Y66407D01*
X68110Y65506D01*
Y64573D01*
X68352Y63672D01*
X68818Y62864D01*
X69478Y62204D01*
X70286Y61738D01*
X71187Y61496D01*
X72120D01*
X73021Y61738D01*
X73829Y62204D01*
X74489Y62864D01*
X74955Y63672D01*
X75197Y64573D01*
Y65506D01*
X74955Y66407D01*
X74489Y67215D01*
X73829Y67875D01*
X73021Y68341D01*
X72120Y68583D01*
D02*
G37*
G36*
X159293Y58366D02*
X158784D01*
X158314Y58171D01*
X158019Y57876D01*
X157795Y57825D01*
X157431Y57856D01*
X157165Y58123D01*
X156695Y58317D01*
X156186D01*
X155716Y58123D01*
X155356Y57763D01*
X155161Y57292D01*
Y56783D01*
X155356Y56313D01*
X155716Y55953D01*
X156186Y55758D01*
X156695D01*
X157165Y55953D01*
X157460Y56248D01*
X157684Y56299D01*
X158048Y56268D01*
X158314Y56002D01*
X158784Y55807D01*
X159293D01*
X159764Y56002D01*
X160123Y56362D01*
X160318Y56832D01*
Y57341D01*
X160123Y57811D01*
X159764Y58171D01*
X159293Y58366D01*
D02*
G37*
G36*
X79600Y63583D02*
X78667D01*
X77766Y63341D01*
X76958Y62875D01*
X76298Y62215D01*
X75832Y61407D01*
X75591Y60506D01*
Y59573D01*
X75832Y58672D01*
X76298Y57864D01*
X76958Y57204D01*
X77766Y56738D01*
X78667Y56496D01*
X79600D01*
X80502Y56738D01*
X81309Y57204D01*
X81969Y57864D01*
X82436Y58672D01*
X82677Y59573D01*
Y60506D01*
X82436Y61407D01*
X81969Y62215D01*
X81309Y62875D01*
X80502Y63341D01*
X79600Y63583D01*
D02*
G37*
G36*
X64640D02*
X63707D01*
X62806Y63341D01*
X61998Y62875D01*
X61338Y62215D01*
X60871Y61407D01*
X60630Y60506D01*
Y59573D01*
X60871Y58672D01*
X61338Y57864D01*
X61998Y57204D01*
X62806Y56738D01*
X63707Y56496D01*
X64640D01*
X65541Y56738D01*
X66349Y57204D01*
X67009Y57864D01*
X67475Y58672D01*
X67716Y59573D01*
Y60506D01*
X67475Y61407D01*
X67009Y62215D01*
X66349Y62875D01*
X65541Y63341D01*
X64640Y63583D01*
D02*
G37*
G36*
X172396Y59030D02*
X171887D01*
X171416Y58835D01*
X171056Y58475D01*
X170862Y58005D01*
Y57496D01*
X171056Y57026D01*
X171416Y56666D01*
X171887Y56471D01*
X172396D01*
X172866Y56666D01*
X173226Y57026D01*
X173421Y57496D01*
Y58005D01*
X173226Y58475D01*
X172866Y58835D01*
X172396Y59030D01*
D02*
G37*
G36*
X146421Y58548D02*
X145912D01*
X145441Y58354D01*
X145081Y57994D01*
X144887Y57524D01*
Y57015D01*
X145081Y56544D01*
X145441Y56184D01*
X145912Y55989D01*
X146421D01*
X146891Y56184D01*
X147055Y56348D01*
X147533Y56378D01*
X147662Y56302D01*
X147943Y56021D01*
X148413Y55826D01*
X148922D01*
X149392Y56021D01*
X149752Y56381D01*
X149947Y56851D01*
Y57360D01*
X149752Y57830D01*
X149392Y58190D01*
X148922Y58385D01*
X148413D01*
X147943Y58190D01*
X147778Y58026D01*
X147300Y57997D01*
X147172Y58073D01*
X146891Y58354D01*
X146421Y58548D01*
D02*
G37*
G36*
X166230Y58353D02*
X165721D01*
X165251Y58158D01*
X164891Y57798D01*
X164696Y57328D01*
Y56819D01*
X164891Y56349D01*
X165251Y55989D01*
X165721Y55794D01*
X166230D01*
X166700Y55989D01*
X167060Y56349D01*
X167255Y56819D01*
Y57328D01*
X167060Y57798D01*
X166700Y58158D01*
X166230Y58353D01*
D02*
G37*
G36*
X87081Y58583D02*
X86148D01*
X85246Y58341D01*
X84439Y57875D01*
X83779Y57215D01*
X83312Y56407D01*
X83071Y55506D01*
Y54573D01*
X83312Y53672D01*
X83779Y52864D01*
X84439Y52204D01*
X85246Y51737D01*
X86148Y51496D01*
X87081D01*
X87982Y51737D01*
X88790Y52204D01*
X89450Y52864D01*
X89916Y53672D01*
X90158Y54573D01*
Y55506D01*
X89916Y56407D01*
X89450Y57215D01*
X88790Y57875D01*
X87982Y58341D01*
X87081Y58583D01*
D02*
G37*
G36*
X72120D02*
X71187D01*
X70286Y58341D01*
X69478Y57875D01*
X68818Y57215D01*
X68352Y56407D01*
X68110Y55506D01*
Y54573D01*
X68352Y53672D01*
X68818Y52864D01*
X69478Y52204D01*
X70286Y51737D01*
X71187Y51496D01*
X72120D01*
X73021Y51737D01*
X73829Y52204D01*
X74489Y52864D01*
X74955Y53672D01*
X75197Y54573D01*
Y55506D01*
X74955Y56407D01*
X74489Y57215D01*
X73829Y57875D01*
X73021Y58341D01*
X72120Y58583D01*
D02*
G37*
G36*
X169380Y58035D02*
X168871D01*
X168400Y57841D01*
X168040Y57481D01*
X167846Y57010D01*
Y56501D01*
X168040Y56031D01*
X168400Y55671D01*
X168740Y55531D01*
X169118Y55138D01*
Y54629D01*
X169313Y54159D01*
X169673Y53799D01*
X170143Y53604D01*
X170652D01*
X170750Y53645D01*
X171348Y53371D01*
X171390Y53231D01*
X171311Y53152D01*
X171116Y52682D01*
Y52173D01*
X171311Y51703D01*
X171671Y51343D01*
X172141Y51148D01*
X172650D01*
X173121Y51343D01*
X173481Y51703D01*
X173675Y52173D01*
Y52682D01*
X173481Y53152D01*
X173443Y53644D01*
X173674Y53876D01*
X173869Y54346D01*
Y54855D01*
X173674Y55326D01*
X173314Y55686D01*
X172844Y55880D01*
X172335D01*
X171865Y55686D01*
X171282Y55810D01*
X171123Y55968D01*
X170783Y56109D01*
X170405Y56501D01*
Y57010D01*
X170210Y57481D01*
X169850Y57841D01*
X169380Y58035D01*
D02*
G37*
G36*
X261331Y256599D02*
X260822D01*
X260352Y256405D01*
X259992Y256045D01*
X259797Y255574D01*
Y255065D01*
X259841Y254960D01*
X259865Y254520D01*
X259591Y254356D01*
X259398Y254276D01*
X259037Y253916D01*
X258843Y253446D01*
Y252937D01*
X259037Y252467D01*
X259398Y252106D01*
X259868Y251912D01*
X260377D01*
X260847Y252106D01*
X261207Y252467D01*
X261382Y252888D01*
X261608Y252994D01*
X261902Y253075D01*
X263300Y251677D01*
Y224196D01*
X259913Y220809D01*
X259695Y220484D01*
X259619Y220100D01*
Y176833D01*
X258490Y175704D01*
X184560D01*
X184176Y175628D01*
X183851Y175410D01*
X179273Y170833D01*
X179056Y170507D01*
X178979Y170123D01*
Y52356D01*
X176831Y50208D01*
X174798D01*
X174767Y50221D01*
X174670Y50222D01*
X174382Y50228D01*
X174358Y50230D01*
X174299Y50289D01*
X173828Y50484D01*
X173319D01*
X172849Y50289D01*
X172489Y49929D01*
X172294Y49459D01*
Y48950D01*
X172489Y48480D01*
X172849Y48120D01*
X173319Y47925D01*
X173828D01*
X174299Y48120D01*
X174344Y48165D01*
X174788Y48189D01*
X174814Y48201D01*
X177247D01*
X177631Y48278D01*
X177957Y48495D01*
X180692Y51231D01*
X180910Y51556D01*
X180986Y51940D01*
Y169708D01*
X184976Y173697D01*
X258906D01*
X259290Y173774D01*
X259615Y173991D01*
X261332Y175708D01*
X261550Y176034D01*
X261626Y176418D01*
Y219684D01*
X265013Y223071D01*
X265231Y223397D01*
X265307Y223781D01*
Y252093D01*
X265231Y252477D01*
X265013Y252802D01*
X262652Y255164D01*
X262639Y255195D01*
X262571Y255264D01*
X262372Y255472D01*
X262356Y255491D01*
Y255574D01*
X262161Y256045D01*
X261801Y256405D01*
X261331Y256599D01*
D02*
G37*
G36*
X79600Y53583D02*
X78667D01*
X77766Y53341D01*
X76958Y52875D01*
X76298Y52215D01*
X75832Y51407D01*
X75591Y50506D01*
Y49573D01*
X75832Y48672D01*
X76298Y47864D01*
X76958Y47204D01*
X77766Y46738D01*
X78667Y46496D01*
X79600D01*
X80502Y46738D01*
X81309Y47204D01*
X81969Y47864D01*
X82436Y48672D01*
X82677Y49573D01*
Y50506D01*
X82436Y51407D01*
X81969Y52215D01*
X81309Y52875D01*
X80502Y53341D01*
X79600Y53583D01*
D02*
G37*
G36*
X64640D02*
X63707D01*
X62806Y53341D01*
X61998Y52875D01*
X61338Y52215D01*
X60871Y51407D01*
X60630Y50506D01*
Y49573D01*
X60871Y48672D01*
X61338Y47864D01*
X61998Y47204D01*
X62806Y46738D01*
X63707Y46496D01*
X64640D01*
X65541Y46738D01*
X66349Y47204D01*
X67009Y47864D01*
X67475Y48672D01*
X67716Y49573D01*
Y50506D01*
X67475Y51407D01*
X67009Y52215D01*
X66349Y52875D01*
X65541Y53341D01*
X64640Y53583D01*
D02*
G37*
G36*
X168569Y45693D02*
X168060D01*
X167590Y45498D01*
X167230Y45138D01*
X167187Y45036D01*
X166775Y44954D01*
X166305Y45149D01*
X165796D01*
X165326Y44954D01*
X164966Y44594D01*
X164771Y44124D01*
Y43615D01*
X164966Y43144D01*
X165326Y42784D01*
X165796Y42590D01*
X166305D01*
X166775Y42784D01*
X167135Y43144D01*
X167178Y43247D01*
X167590Y43329D01*
X168060Y43134D01*
X168569D01*
X169039Y43329D01*
X169399Y43688D01*
X169594Y44159D01*
Y44668D01*
X169399Y45138D01*
X169039Y45498D01*
X168569Y45693D01*
D02*
G37*
G36*
X159209Y44663D02*
X158700D01*
X158229Y44469D01*
X157994Y44234D01*
X157713Y44144D01*
X157375Y44223D01*
X157156Y44442D01*
X156686Y44637D01*
X156177D01*
X155707Y44442D01*
X155347Y44082D01*
X155152Y43612D01*
Y43103D01*
X155347Y42632D01*
X155707Y42272D01*
X156177Y42078D01*
X156686D01*
X157156Y42272D01*
X157391Y42507D01*
X157672Y42596D01*
X158010Y42518D01*
X158229Y42299D01*
X158700Y42104D01*
X159209D01*
X159679Y42299D01*
X160039Y42659D01*
X160234Y43129D01*
Y43638D01*
X160039Y44109D01*
X159679Y44469D01*
X159209Y44663D01*
D02*
G37*
G36*
X148944Y44553D02*
X148435D01*
X147965Y44358D01*
X147678Y44072D01*
X147386Y44030D01*
X147094Y44072D01*
X146808Y44358D01*
X146338Y44553D01*
X145829D01*
X145358Y44358D01*
X144999Y43998D01*
X144804Y43528D01*
Y43019D01*
X144999Y42548D01*
X145358Y42189D01*
X145829Y41994D01*
X146338D01*
X146808Y42189D01*
X147094Y42474D01*
X147386Y42517D01*
X147678Y42474D01*
X147965Y42189D01*
X148435Y41994D01*
X148944D01*
X149414Y42189D01*
X149774Y42548D01*
X149969Y43019D01*
Y43528D01*
X149774Y43998D01*
X149414Y44358D01*
X148944Y44553D01*
D02*
G37*
G36*
X171282Y48576D02*
X170773D01*
X170303Y48381D01*
X169943Y48021D01*
X169748Y47551D01*
Y47042D01*
X169943Y46572D01*
X170303Y46212D01*
X170773Y46017D01*
X171233D01*
X171294Y46006D01*
X171695Y45647D01*
Y45427D01*
X171890Y44957D01*
X171987Y44861D01*
X172083Y44250D01*
X171888Y43780D01*
Y43270D01*
X172083Y42800D01*
X172443Y42440D01*
X172913Y42246D01*
X173422D01*
X173893Y42440D01*
X174253Y42800D01*
X174447Y43270D01*
Y43780D01*
X174253Y44250D01*
X174156Y44346D01*
X174060Y44957D01*
X174254Y45427D01*
Y45936D01*
X174060Y46407D01*
X173700Y46766D01*
X173229Y46961D01*
X172769D01*
X172709Y46972D01*
X172307Y47331D01*
Y47551D01*
X172113Y48021D01*
X171753Y48381D01*
X171282Y48576D01*
D02*
G37*
G36*
X87081Y48583D02*
X86148D01*
X85246Y48341D01*
X84439Y47875D01*
X83779Y47215D01*
X83312Y46407D01*
X83071Y45506D01*
Y44573D01*
X83312Y43672D01*
X83779Y42864D01*
X84439Y42204D01*
X85246Y41737D01*
X86148Y41496D01*
X87081D01*
X87982Y41737D01*
X88790Y42204D01*
X89450Y42864D01*
X89916Y43672D01*
X90158Y44573D01*
Y45506D01*
X89916Y46407D01*
X89450Y47215D01*
X88790Y47875D01*
X87982Y48341D01*
X87081Y48583D01*
D02*
G37*
G36*
X72120D02*
X71187D01*
X70286Y48341D01*
X69478Y47875D01*
X68818Y47215D01*
X68352Y46407D01*
X68110Y45506D01*
Y44573D01*
X68352Y43672D01*
X68818Y42864D01*
X69478Y42204D01*
X70286Y41737D01*
X71187Y41496D01*
X72120D01*
X73021Y41737D01*
X73829Y42204D01*
X74489Y42864D01*
X74955Y43672D01*
X75197Y44573D01*
Y45506D01*
X74955Y46407D01*
X74489Y47215D01*
X73829Y47875D01*
X73021Y48341D01*
X72120Y48583D01*
D02*
G37*
G36*
X79600Y43583D02*
X78667D01*
X77766Y43341D01*
X76958Y42875D01*
X76298Y42215D01*
X75832Y41407D01*
X75591Y40506D01*
Y39573D01*
X75832Y38672D01*
X76298Y37864D01*
X76958Y37204D01*
X77766Y36737D01*
X78667Y36496D01*
X79600D01*
X80502Y36737D01*
X81309Y37204D01*
X81969Y37864D01*
X82436Y38672D01*
X82677Y39573D01*
Y40506D01*
X82436Y41407D01*
X81969Y42215D01*
X81309Y42875D01*
X80502Y43341D01*
X79600Y43583D01*
D02*
G37*
G36*
X64640D02*
X63707D01*
X62806Y43341D01*
X61998Y42875D01*
X61338Y42215D01*
X60871Y41407D01*
X60630Y40506D01*
Y39573D01*
X60871Y38672D01*
X61338Y37864D01*
X61998Y37204D01*
X62806Y36737D01*
X63707Y36496D01*
X64640D01*
X65541Y36737D01*
X66349Y37204D01*
X67009Y37864D01*
X67475Y38672D01*
X67716Y39573D01*
Y40506D01*
X67475Y41407D01*
X67009Y42215D01*
X66349Y42875D01*
X65541Y43341D01*
X64640Y43583D01*
D02*
G37*
G36*
X87081Y38583D02*
X86148D01*
X85246Y38341D01*
X84439Y37875D01*
X83779Y37215D01*
X83312Y36407D01*
X83071Y35506D01*
Y34573D01*
X83312Y33672D01*
X83779Y32864D01*
X84439Y32204D01*
X85246Y31738D01*
X86148Y31496D01*
X87081D01*
X87982Y31738D01*
X88790Y32204D01*
X89450Y32864D01*
X89916Y33672D01*
X90158Y34573D01*
Y35506D01*
X89916Y36407D01*
X89450Y37215D01*
X88790Y37875D01*
X87982Y38341D01*
X87081Y38583D01*
D02*
G37*
G36*
X72120D02*
X71187D01*
X70286Y38341D01*
X69478Y37875D01*
X68818Y37215D01*
X68352Y36407D01*
X68110Y35506D01*
Y34573D01*
X68352Y33672D01*
X68818Y32864D01*
X69478Y32204D01*
X70286Y31738D01*
X71187Y31496D01*
X72120D01*
X73021Y31738D01*
X73829Y32204D01*
X74489Y32864D01*
X74955Y33672D01*
X75197Y34573D01*
Y35506D01*
X74955Y36407D01*
X74489Y37215D01*
X73829Y37875D01*
X73021Y38341D01*
X72120Y38583D01*
D02*
G37*
G36*
X79680Y34189D02*
X79634D01*
Y30539D01*
X83284D01*
Y30586D01*
X83001Y31641D01*
X82454Y32587D01*
X81682Y33360D01*
X80736Y33906D01*
X79680Y34189D01*
D02*
G37*
G36*
X78634D02*
X78588D01*
X77532Y33906D01*
X76586Y33360D01*
X75813Y32587D01*
X75267Y31641D01*
X74984Y30586D01*
Y30539D01*
X78634D01*
Y34189D01*
D02*
G37*
G36*
X64640Y33583D02*
X63707D01*
X62806Y33341D01*
X61998Y32875D01*
X61338Y32215D01*
X60871Y31407D01*
X60630Y30506D01*
Y29573D01*
X60871Y28672D01*
X61338Y27864D01*
X61998Y27204D01*
X62806Y26737D01*
X63707Y26496D01*
X64640D01*
X65541Y26737D01*
X66349Y27204D01*
X67009Y27864D01*
X67475Y28672D01*
X67716Y29573D01*
Y30506D01*
X67475Y31407D01*
X67009Y32215D01*
X66349Y32875D01*
X65541Y33341D01*
X64640Y33583D01*
D02*
G37*
G36*
X83284Y29539D02*
X79634D01*
Y25890D01*
X79680D01*
X80736Y26173D01*
X81682Y26719D01*
X82454Y27491D01*
X83001Y28438D01*
X83284Y29493D01*
Y29539D01*
D02*
G37*
G36*
X78634D02*
X74984D01*
Y29493D01*
X75267Y28438D01*
X75813Y27491D01*
X76586Y26719D01*
X77532Y26173D01*
X78588Y25890D01*
X78634D01*
Y29539D01*
D02*
G37*
G36*
X159190Y26098D02*
X158681D01*
X158211Y25903D01*
X157916Y25608D01*
X157692Y25557D01*
X157328Y25588D01*
X157062Y25854D01*
X156592Y26049D01*
X156083D01*
X155613Y25854D01*
X155253Y25494D01*
X155058Y25024D01*
Y24515D01*
X155253Y24045D01*
X155613Y23685D01*
X156083Y23490D01*
X156592D01*
X157062Y23685D01*
X157357Y23979D01*
X157581Y24031D01*
X157945Y24000D01*
X158211Y23733D01*
X158681Y23539D01*
X159190D01*
X159660Y23733D01*
X160020Y24093D01*
X160215Y24564D01*
Y25073D01*
X160020Y25543D01*
X159660Y25903D01*
X159190Y26098D01*
D02*
G37*
G36*
X146318Y26280D02*
X145808D01*
X145338Y26085D01*
X144978Y25725D01*
X144783Y25255D01*
Y24746D01*
X144978Y24276D01*
X145338Y23916D01*
X145808Y23721D01*
X146318D01*
X146788Y23916D01*
X146952Y24080D01*
X147430Y24109D01*
X147558Y24034D01*
X147839Y23753D01*
X148310Y23558D01*
X148819D01*
X149289Y23753D01*
X149649Y24113D01*
X149844Y24583D01*
Y25092D01*
X149649Y25562D01*
X149289Y25922D01*
X148819Y26117D01*
X148310D01*
X147839Y25922D01*
X147676Y25758D01*
X147197Y25729D01*
X147069Y25804D01*
X146788Y26085D01*
X146318Y26280D01*
D02*
G37*
G36*
X166781Y25947D02*
X166272D01*
X165801Y25752D01*
X165442Y25392D01*
X165247Y24922D01*
Y24413D01*
X165442Y23943D01*
X165801Y23583D01*
X166272Y23388D01*
X166781D01*
X167251Y23583D01*
X167611Y23943D01*
X167806Y24413D01*
Y24922D01*
X167611Y25392D01*
X167251Y25752D01*
X166781Y25947D01*
D02*
G37*
G36*
X87081Y28583D02*
X86148D01*
X85246Y28341D01*
X84439Y27875D01*
X83779Y27215D01*
X83312Y26407D01*
X83071Y25506D01*
Y24573D01*
X83312Y23672D01*
X83779Y22864D01*
X84439Y22204D01*
X85246Y21737D01*
X86148Y21496D01*
X87081D01*
X87982Y21737D01*
X88790Y22204D01*
X89450Y22864D01*
X89916Y23672D01*
X90158Y24573D01*
Y25506D01*
X89916Y26407D01*
X89450Y27215D01*
X88790Y27875D01*
X87982Y28341D01*
X87081Y28583D01*
D02*
G37*
G36*
X72120D02*
X71187D01*
X70286Y28341D01*
X69478Y27875D01*
X68818Y27215D01*
X68352Y26407D01*
X68110Y25506D01*
Y24573D01*
X68352Y23672D01*
X68818Y22864D01*
X69478Y22204D01*
X70286Y21737D01*
X71187Y21496D01*
X72120D01*
X73021Y21737D01*
X73829Y22204D01*
X74489Y22864D01*
X74955Y23672D01*
X75197Y24573D01*
Y25506D01*
X74955Y26407D01*
X74489Y27215D01*
X73829Y27875D01*
X73021Y28341D01*
X72120Y28583D01*
D02*
G37*
G36*
X79600Y23583D02*
X78667D01*
X77766Y23341D01*
X76958Y22875D01*
X76298Y22215D01*
X75832Y21407D01*
X75591Y20506D01*
Y19573D01*
X75832Y18672D01*
X76298Y17864D01*
X76958Y17204D01*
X77766Y16737D01*
X78667Y16496D01*
X79600D01*
X80502Y16737D01*
X81309Y17204D01*
X81969Y17864D01*
X82436Y18672D01*
X82677Y19573D01*
Y20506D01*
X82436Y21407D01*
X81969Y22215D01*
X81309Y22875D01*
X80502Y23341D01*
X79600Y23583D01*
D02*
G37*
G36*
X64640D02*
X63707D01*
X62806Y23341D01*
X61998Y22875D01*
X61338Y22215D01*
X60871Y21407D01*
X60630Y20506D01*
Y19573D01*
X60871Y18672D01*
X61338Y17864D01*
X61998Y17204D01*
X62806Y16737D01*
X63707Y16496D01*
X64640D01*
X65541Y16737D01*
X66349Y17204D01*
X67009Y17864D01*
X67475Y18672D01*
X67716Y19573D01*
Y20506D01*
X67475Y21407D01*
X67009Y22215D01*
X66349Y22875D01*
X65541Y23341D01*
X64640Y23583D01*
D02*
G37*
G36*
X72200Y19189D02*
X72154D01*
Y15539D01*
X75803D01*
Y15586D01*
X75520Y16641D01*
X74974Y17587D01*
X74202Y18360D01*
X73255Y18906D01*
X72200Y19189D01*
D02*
G37*
G36*
X71153D02*
X71107D01*
X70052Y18906D01*
X69106Y18360D01*
X68333Y17587D01*
X67787Y16641D01*
X67504Y15586D01*
Y15539D01*
X71153D01*
Y19189D01*
D02*
G37*
G36*
X97437Y16507D02*
X96928D01*
X96458Y16313D01*
X96098Y15953D01*
X95903Y15482D01*
Y14973D01*
X96098Y14503D01*
X96458Y14143D01*
X96928Y13948D01*
X97437D01*
X97908Y14143D01*
X98268Y14503D01*
X98462Y14973D01*
Y15482D01*
X98268Y15953D01*
X97908Y16313D01*
X97437Y16507D01*
D02*
G37*
G36*
X163779Y16379D02*
X163270D01*
X162800Y16184D01*
X162440Y15824D01*
X162245Y15354D01*
Y14845D01*
X162440Y14374D01*
X162800Y14014D01*
X163270Y13820D01*
X163779D01*
X164250Y14014D01*
X164610Y14374D01*
X164804Y14845D01*
Y15354D01*
X164610Y15824D01*
X164250Y16184D01*
X163779Y16379D01*
D02*
G37*
G36*
X168925Y14796D02*
X168417D01*
X167946Y14601D01*
X167586Y14241D01*
X167392Y13771D01*
Y13262D01*
X167446Y13130D01*
X167317Y12978D01*
X167043Y12797D01*
X166662Y12955D01*
X166153D01*
X165682Y12760D01*
X165563Y12640D01*
X165288Y12420D01*
X164909Y12640D01*
X164840Y12709D01*
X164370Y12904D01*
X163861D01*
X163391Y12709D01*
X163031Y12349D01*
X162836Y11879D01*
Y11370D01*
X163031Y10900D01*
X163391Y10540D01*
X163861Y10345D01*
X164370D01*
X164840Y10540D01*
X164960Y10660D01*
X165234Y10880D01*
X165613Y10660D01*
X165682Y10590D01*
X166153Y10396D01*
X166662D01*
X167132Y10590D01*
X167492Y10950D01*
X167687Y11421D01*
Y11930D01*
X167632Y12062D01*
X167761Y12214D01*
X168035Y12394D01*
X168417Y12237D01*
X168925D01*
X169396Y12432D01*
X169756Y12791D01*
X169950Y13262D01*
Y13771D01*
X169756Y14241D01*
X169396Y14601D01*
X168925Y14796D01*
D02*
G37*
G36*
X148748Y13513D02*
X148239D01*
X147768Y13318D01*
X147408Y12958D01*
X147362Y12845D01*
X146786Y12713D01*
X146316Y12908D01*
X145807D01*
X145336Y12713D01*
X144976Y12353D01*
X144781Y11883D01*
Y11374D01*
X144976Y10904D01*
X145336Y10544D01*
X145807Y10349D01*
X146316D01*
X146786Y10544D01*
X147146Y10904D01*
X147193Y11017D01*
X147768Y11148D01*
X148239Y10954D01*
X148748D01*
X149218Y11148D01*
X149578Y11508D01*
X149773Y11979D01*
Y12488D01*
X149578Y12958D01*
X149218Y13318D01*
X148748Y13513D01*
D02*
G37*
G36*
X159036Y12974D02*
X158527D01*
X158056Y12779D01*
X157832Y12555D01*
X157696Y12420D01*
X157202Y12532D01*
X157144Y12589D01*
X156674Y12784D01*
X156165D01*
X155695Y12589D01*
X155335Y12229D01*
X155140Y11759D01*
Y11250D01*
X155335Y10780D01*
X155695Y10420D01*
X156165Y10225D01*
X156674D01*
X157144Y10420D01*
X157369Y10644D01*
X157505Y10779D01*
X157999Y10667D01*
X158056Y10610D01*
X158527Y10415D01*
X159036D01*
X159506Y10610D01*
X160185Y10603D01*
X160241Y10548D01*
X160711Y10353D01*
X161220D01*
X161691Y10548D01*
X162050Y10907D01*
X162245Y11378D01*
Y11887D01*
X162050Y12357D01*
X161691Y12717D01*
X161220Y12912D01*
X160711D01*
X160241Y12717D01*
X159562Y12723D01*
X159506Y12779D01*
X159036Y12974D01*
D02*
G37*
G36*
X87081Y18583D02*
X86148D01*
X85246Y18341D01*
X84439Y17875D01*
X83779Y17215D01*
X83312Y16407D01*
X83071Y15506D01*
Y14573D01*
X83312Y13672D01*
X83779Y12864D01*
X84439Y12204D01*
X85246Y11738D01*
X86148Y11496D01*
X87081D01*
X87982Y11738D01*
X88790Y12204D01*
X89450Y12864D01*
X89916Y13672D01*
X90158Y14573D01*
Y15506D01*
X89916Y16407D01*
X89450Y17215D01*
X88790Y17875D01*
X87982Y18341D01*
X87081Y18583D01*
D02*
G37*
G36*
X75803Y14539D02*
X72154D01*
Y10890D01*
X72200D01*
X73255Y11173D01*
X74202Y11719D01*
X74974Y12491D01*
X75520Y13438D01*
X75803Y14493D01*
Y14539D01*
D02*
G37*
G36*
X71153D02*
X67504D01*
Y14493D01*
X67787Y13438D01*
X68333Y12491D01*
X69106Y11719D01*
X70052Y11173D01*
X71107Y10890D01*
X71153D01*
Y14539D01*
D02*
G37*
G36*
X132812Y13413D02*
X132303D01*
X131833Y13218D01*
X131473Y12858D01*
X131278Y12388D01*
Y11879D01*
X131473Y11408D01*
X131833Y11048D01*
X132303Y10854D01*
X132812D01*
X133283Y11048D01*
X133643Y11408D01*
X133837Y11879D01*
Y12388D01*
X133643Y12858D01*
X133283Y13218D01*
X132812Y13413D01*
D02*
G37*
G36*
X141199Y13108D02*
X140690D01*
X140220Y12914D01*
X139860Y12554D01*
X139665Y12083D01*
Y11574D01*
X139860Y11104D01*
X140220Y10744D01*
X140690Y10549D01*
X141199D01*
X141669Y10744D01*
X142029Y11104D01*
X142224Y11574D01*
Y12083D01*
X142029Y12554D01*
X141669Y12914D01*
X141199Y13108D01*
D02*
G37*
G36*
X136424Y12734D02*
X135915D01*
X135444Y12539D01*
X135085Y12179D01*
X134890Y11709D01*
Y11200D01*
X135085Y10730D01*
X135444Y10370D01*
X135915Y10175D01*
X136424D01*
X136894Y10370D01*
X137254Y10730D01*
X137449Y11200D01*
Y11709D01*
X137254Y12179D01*
X136894Y12539D01*
X136424Y12734D01*
D02*
G37*
G36*
X79600Y13583D02*
X78667D01*
X77766Y13341D01*
X76958Y12875D01*
X76298Y12215D01*
X75832Y11407D01*
X75591Y10506D01*
Y9573D01*
X75832Y8672D01*
X76298Y7864D01*
X76958Y7204D01*
X77766Y6737D01*
X78667Y6496D01*
X79600D01*
X80502Y6737D01*
X81309Y7204D01*
X81969Y7864D01*
X82436Y8672D01*
X82677Y9573D01*
Y10506D01*
X82436Y11407D01*
X81969Y12215D01*
X81309Y12875D01*
X80502Y13341D01*
X79600Y13583D01*
D02*
G37*
G36*
X64640D02*
X63707D01*
X62806Y13341D01*
X61998Y12875D01*
X61338Y12215D01*
X60871Y11407D01*
X60630Y10506D01*
Y9573D01*
X60871Y8672D01*
X61338Y7864D01*
X61998Y7204D01*
X62806Y6737D01*
X63707Y6496D01*
X64640D01*
X65541Y6737D01*
X66349Y7204D01*
X67009Y7864D01*
X67475Y8672D01*
X67716Y9573D01*
Y10506D01*
X67475Y11407D01*
X67009Y12215D01*
X66349Y12875D01*
X65541Y13341D01*
X64640Y13583D01*
D02*
G37*
G36*
X52210Y10599D02*
X51509D01*
X50832Y10418D01*
X50225Y10067D01*
X49730Y9572D01*
X49379Y8965D01*
X49198Y8288D01*
Y7587D01*
X49379Y6910D01*
X49730Y6303D01*
X50225Y5808D01*
X50832Y5457D01*
X51509Y5276D01*
X52210D01*
X52887Y5457D01*
X53494Y5808D01*
X53989Y6303D01*
X54339Y6910D01*
X54521Y7587D01*
Y8288D01*
X54339Y8965D01*
X53989Y9572D01*
X53494Y10067D01*
X52887Y10418D01*
X52210Y10599D01*
D02*
G37*
%LPD*%
G36*
X140183Y349533D02*
X140575D01*
X140500Y349524D01*
X140433Y349500D01*
X140374Y349461D01*
X140323Y349405D01*
X140280Y349333D01*
X140244Y349245D01*
X140233Y349203D01*
X140238Y349186D01*
X140263Y349120D01*
X140292Y349058D01*
X140326Y349001D01*
X140365Y348949D01*
X140408Y348902D01*
X140187D01*
X140185Y348885D01*
X140181Y348733D01*
X139394D01*
X139390Y348885D01*
X139388Y348902D01*
X139167D01*
X139210Y348949D01*
X139249Y349001D01*
X139283Y349058D01*
X139312Y349120D01*
X139337Y349186D01*
X139342Y349203D01*
X139331Y349245D01*
X139295Y349333D01*
X139252Y349405D01*
X139201Y349461D01*
X139142Y349500D01*
X139075Y349524D01*
X139000Y349533D01*
X139392D01*
X139394Y349595D01*
X140181D01*
X140183Y349533D01*
D02*
G37*
G36*
X353799Y351302D02*
X353837Y351299D01*
X353884Y351296D01*
X353938Y351288D01*
X353998Y351280D01*
X354064Y351266D01*
X354132Y351250D01*
X354206Y351231D01*
X354279Y351206D01*
X354350Y351176D01*
X354424Y351141D01*
X354495Y351102D01*
X354561Y351056D01*
X354623Y351002D01*
X354626Y350999D01*
X354637Y350988D01*
X354653Y350972D01*
X354673Y350947D01*
X354697Y350917D01*
X354724Y350884D01*
X354754Y350840D01*
X354784Y350794D01*
X354814Y350742D01*
X354844Y350688D01*
X354872Y350625D01*
X354896Y350559D01*
X354915Y350488D01*
X354932Y350412D01*
X354943Y350333D01*
X354945Y350251D01*
Y350248D01*
Y350240D01*
Y350226D01*
Y350207D01*
X354943Y350185D01*
X354940Y350158D01*
X354937Y350128D01*
X354935Y350095D01*
X354924Y350021D01*
X354907Y349939D01*
X354883Y349852D01*
X354853Y349765D01*
Y349762D01*
X354847Y349754D01*
X354842Y349743D01*
X354836Y349724D01*
X354825Y349705D01*
X354812Y349680D01*
X354798Y349650D01*
X354782Y349620D01*
X354763Y349585D01*
X354741Y349546D01*
X354692Y349465D01*
X354631Y349377D01*
X354563Y349284D01*
X354561Y349282D01*
X354558Y349276D01*
X354550Y349268D01*
X354539Y349254D01*
X354522Y349235D01*
X354503Y349213D01*
X354481Y349189D01*
X354454Y349162D01*
X354424Y349129D01*
X354389Y349093D01*
X354350Y349052D01*
X354307Y349009D01*
X354260Y348962D01*
X354208Y348913D01*
X354151Y348858D01*
X354088Y348801D01*
X354085Y348798D01*
X354075Y348787D01*
X354056Y348771D01*
X354034Y348749D01*
X354006Y348725D01*
X353974Y348697D01*
X353941Y348665D01*
X353905Y348632D01*
X353832Y348561D01*
X353758Y348493D01*
X353725Y348460D01*
X353698Y348433D01*
X353671Y348405D01*
X353651Y348383D01*
X353649Y348378D01*
X353638Y348367D01*
X353619Y348345D01*
X353600Y348321D01*
X353575Y348291D01*
X353551Y348255D01*
X353526Y348220D01*
X353504Y348184D01*
X354945D01*
Y347513D01*
X352407D01*
Y347518D01*
X352409Y347529D01*
X352412Y347551D01*
X352417Y347578D01*
X352423Y347611D01*
X352431Y347652D01*
X352439Y347695D01*
X352453Y347745D01*
X352467Y347799D01*
X352486Y347857D01*
X352505Y347914D01*
X352527Y347977D01*
X352554Y348040D01*
X352584Y348105D01*
X352617Y348168D01*
X352652Y348233D01*
X352655Y348236D01*
X352663Y348250D01*
X352677Y348269D01*
X352693Y348296D01*
X352718Y348329D01*
X352751Y348370D01*
X352789Y348419D01*
X352833Y348474D01*
X352884Y348536D01*
X352942Y348605D01*
X353010Y348678D01*
X353084Y348760D01*
X353168Y348848D01*
X353258Y348938D01*
X353359Y349036D01*
X353469Y349140D01*
X353471Y349142D01*
X353474Y349145D01*
X353490Y349159D01*
X353515Y349183D01*
X353548Y349213D01*
X353586Y349252D01*
X353630Y349292D01*
X353676Y349339D01*
X353728Y349388D01*
X353829Y349492D01*
X353881Y349541D01*
X353927Y349593D01*
X353974Y349639D01*
X354012Y349683D01*
X354045Y349724D01*
X354069Y349757D01*
X354072Y349759D01*
X354075Y349767D01*
X354083Y349779D01*
X354094Y349795D01*
X354105Y349817D01*
X354116Y349838D01*
X354129Y349866D01*
X354146Y349896D01*
X354173Y349964D01*
X354195Y350038D01*
X354214Y350120D01*
X354217Y350161D01*
X354219Y350202D01*
Y350204D01*
Y350213D01*
Y350223D01*
X354217Y350243D01*
Y350262D01*
X354214Y350284D01*
X354203Y350338D01*
X354187Y350398D01*
X354165Y350461D01*
X354132Y350518D01*
X354110Y350548D01*
X354088Y350573D01*
X354085Y350576D01*
X354083Y350578D01*
X354075Y350584D01*
X354064Y350595D01*
X354050Y350603D01*
X354034Y350614D01*
X354015Y350627D01*
X353995Y350638D01*
X353944Y350663D01*
X353881Y350685D01*
X353810Y350698D01*
X353769Y350701D01*
X353728Y350704D01*
X353706D01*
X353690Y350701D01*
X353671D01*
X353649Y350696D01*
X353597Y350688D01*
X353539Y350671D01*
X353477Y350647D01*
X353449Y350630D01*
X353419Y350614D01*
X353392Y350592D01*
X353365Y350567D01*
X353362Y350565D01*
X353359Y350562D01*
X353351Y350554D01*
X353343Y350540D01*
X353332Y350526D01*
X353321Y350507D01*
X353310Y350485D01*
X353297Y350461D01*
X353283Y350431D01*
X353269Y350398D01*
X353256Y350360D01*
X353245Y350319D01*
X353234Y350273D01*
X353223Y350223D01*
X353217Y350172D01*
X353212Y350114D01*
X352491Y350185D01*
Y350188D01*
Y350193D01*
X352494Y350202D01*
Y350213D01*
X352497Y350226D01*
X352499Y350243D01*
X352508Y350284D01*
X352516Y350333D01*
X352529Y350387D01*
X352546Y350450D01*
X352565Y350516D01*
X352590Y350587D01*
X352617Y350658D01*
X352650Y350729D01*
X352688Y350799D01*
X352729Y350868D01*
X352778Y350931D01*
X352833Y350991D01*
X352892Y351043D01*
X352895Y351045D01*
X352909Y351053D01*
X352928Y351067D01*
X352953Y351083D01*
X352988Y351102D01*
X353026Y351124D01*
X353075Y351149D01*
X353127Y351173D01*
X353185Y351198D01*
X353250Y351223D01*
X353321Y351244D01*
X353395Y351264D01*
X353477Y351280D01*
X353561Y351294D01*
X353651Y351302D01*
X353744Y351305D01*
X353769D01*
X353799Y351302D01*
D02*
G37*
G36*
X261966Y255299D02*
X261977Y255281D01*
X261996Y255256D01*
X262056Y255186D01*
X262265Y254966D01*
X262337Y254895D01*
X261502Y254060D01*
X261085Y254434D01*
X261962Y255311D01*
X261966Y255299D01*
D02*
G37*
G36*
X174217Y49819D02*
X174238Y49814D01*
X174269Y49810D01*
X174361Y49803D01*
X174665Y49795D01*
X174766Y49795D01*
Y48614D01*
X174206Y48585D01*
Y49825D01*
X174217Y49819D01*
D02*
G37*
D12*
X139235Y353462D02*
X139788Y352910D01*
Y348270D02*
Y352910D01*
D69*
X132881Y372029D02*
Y375528D01*
X139091Y381739D02*
Y382804D01*
X132881Y375528D02*
X139091Y381739D01*
X147384Y370574D02*
Y374511D01*
X139091Y382804D02*
X147384Y374511D01*
D78*
X79134Y340039D02*
D03*
X86614Y365039D02*
D03*
X79134Y180039D02*
D03*
X86614Y205039D02*
D03*
X79134Y230039D02*
D03*
X86614Y265039D02*
D03*
X79134Y290039D02*
D03*
X86614Y315039D02*
D03*
X71653Y15039D02*
D03*
X79134Y30039D02*
D03*
Y80039D02*
D03*
X86614Y125039D02*
D03*
D81*
X298837Y269130D02*
D03*
X299120Y287952D02*
D03*
D83*
X139091Y382804D02*
D03*
D85*
X115620Y139827D02*
D03*
Y332740D02*
D03*
X343966D02*
D03*
D86*
X139235Y353462D02*
D03*
D87*
X194047Y214476D02*
D03*
X197439D02*
D03*
X210828Y206840D02*
D03*
X208566D02*
D03*
X247643Y314448D02*
D03*
X208597Y308756D02*
D03*
X211473Y308742D02*
D03*
X276754Y301151D02*
D03*
X301567Y263635D02*
D03*
X296100Y263950D02*
D03*
X269993Y242574D02*
D03*
X273142Y257928D02*
D03*
X271122Y258256D02*
D03*
X159562Y340390D02*
D03*
X150258Y340600D02*
D03*
X179005Y324721D02*
D03*
X170565Y324816D02*
D03*
X328752Y318789D02*
D03*
X320762Y324399D02*
D03*
X295499Y333223D02*
D03*
X291054Y335031D02*
D03*
X271196Y334775D02*
D03*
X278366Y334928D02*
D03*
X257205Y331764D02*
D03*
X250740Y331079D02*
D03*
X224828Y332752D02*
D03*
X198145Y333363D02*
D03*
X191953Y333524D02*
D03*
X249182Y316833D02*
D03*
X259938Y317736D02*
D03*
X193755Y370425D02*
D03*
X188406Y370445D02*
D03*
X236130Y371154D02*
D03*
X230948D02*
D03*
X249305Y370842D02*
D03*
X296718Y371104D02*
D03*
X292140Y371004D02*
D03*
X258168Y360912D02*
D03*
X246561Y358994D02*
D03*
X196839Y357837D02*
D03*
X188498Y358210D02*
D03*
X103755Y103298D02*
D03*
X197661Y183234D02*
D03*
Y181426D02*
D03*
X258750Y206559D02*
D03*
X258699Y213465D02*
D03*
X176328Y297052D02*
D03*
X176838Y276702D02*
D03*
X176427Y279371D02*
D03*
X177012Y217187D02*
D03*
X176943Y219819D02*
D03*
X185152Y242638D02*
D03*
X168746Y117317D02*
D03*
X302743Y332545D02*
D03*
X292675Y332609D02*
D03*
X284037Y226645D02*
D03*
X160228Y16240D02*
D03*
X168118Y177207D02*
D03*
X165370Y145225D02*
D03*
X157556Y117704D02*
D03*
X164351Y80094D02*
D03*
X155424Y80432D02*
D03*
X166845Y269207D02*
D03*
X161433Y273374D02*
D03*
X173574Y49205D02*
D03*
X139788Y348270D02*
D03*
X260933Y265047D02*
D03*
X165418Y86220D02*
D03*
X242937Y222166D02*
D03*
X228932Y200851D02*
D03*
X219963Y197246D02*
D03*
X159593Y149264D02*
D03*
X141667Y152920D02*
D03*
X259640Y272891D02*
D03*
X261076Y255320D02*
D03*
X241439Y298373D02*
D03*
X133291Y160559D02*
D03*
X165627Y46977D02*
D03*
X185650Y280642D02*
D03*
X177590Y294626D02*
D03*
X260933Y261134D02*
D03*
X164784Y210648D02*
D03*
X167543Y250751D02*
D03*
X249439Y298676D02*
D03*
X260660Y258929D02*
D03*
X139816Y340249D02*
D03*
X149794Y324284D02*
D03*
X320103Y340017D02*
D03*
X309911Y340193D02*
D03*
X257313Y298491D02*
D03*
X135105Y33228D02*
D03*
X139004Y129815D02*
D03*
X176348Y314433D02*
D03*
X240531Y222195D02*
D03*
X229754Y221809D02*
D03*
X260660Y248079D02*
D03*
X184523Y269008D02*
D03*
X166433Y112992D02*
D03*
X158479Y46142D02*
D03*
X156176Y54702D02*
D03*
X167972Y280351D02*
D03*
D88*
X345312Y369185D02*
D03*
X349249Y361311D02*
D03*
X345312Y353437D02*
D03*
Y306193D02*
D03*
X349249Y298319D02*
D03*
X341375Y377059D02*
D03*
X337438Y369185D02*
D03*
X341375Y361311D02*
D03*
X337438Y353437D02*
D03*
X341375Y298319D02*
D03*
X333501Y377059D02*
D03*
Y361311D02*
D03*
Y345563D02*
D03*
X329564Y337689D02*
D03*
Y321941D02*
D03*
X333501Y314067D02*
D03*
Y298319D02*
D03*
X325627Y314067D02*
D03*
X313815Y353437D02*
D03*
X317753Y314067D02*
D03*
X313815Y306193D02*
D03*
X309878Y361311D02*
D03*
X305942Y353437D02*
D03*
X309878Y314067D02*
D03*
Y298319D02*
D03*
X298067Y353437D02*
D03*
X302005Y282571D02*
D03*
X298067Y274697D02*
D03*
X290194Y353437D02*
D03*
X294130Y298319D02*
D03*
Y282571D02*
D03*
Y251075D02*
D03*
X282319Y369185D02*
D03*
X286257Y282571D02*
D03*
X278382Y361311D02*
D03*
Y329815D02*
D03*
Y298319D02*
D03*
X266571Y369185D02*
D03*
X270508Y235327D02*
D03*
X258697Y353437D02*
D03*
X262634Y298319D02*
D03*
X250823Y353437D02*
D03*
Y337689D02*
D03*
Y274697D02*
D03*
Y258949D02*
D03*
Y243201D02*
D03*
X254760Y188083D02*
D03*
X250823Y180209D02*
D03*
X242949Y353437D02*
D03*
X246886Y282571D02*
D03*
X242949Y274697D02*
D03*
X246886Y266823D02*
D03*
X242949Y258949D02*
D03*
X246886Y251075D02*
D03*
X242949Y243201D02*
D03*
Y180209D02*
D03*
X235075Y353437D02*
D03*
X239012Y345563D02*
D03*
Y282571D02*
D03*
X235075Y274697D02*
D03*
X239012Y266823D02*
D03*
X235075Y258949D02*
D03*
X239012Y251075D02*
D03*
X235075Y243201D02*
D03*
X239012Y235327D02*
D03*
X227201Y369185D02*
D03*
Y353437D02*
D03*
X231138Y282571D02*
D03*
X227201Y274697D02*
D03*
X231138Y266823D02*
D03*
X227201Y258949D02*
D03*
X231138Y251075D02*
D03*
X227201Y243201D02*
D03*
X231138Y235327D02*
D03*
X219327Y369185D02*
D03*
Y337689D02*
D03*
Y321941D02*
D03*
X223264Y282571D02*
D03*
X219327Y274697D02*
D03*
X223264Y266823D02*
D03*
X219327Y258949D02*
D03*
X223264Y251075D02*
D03*
X219327Y243201D02*
D03*
X223264Y235327D02*
D03*
X215390Y282571D02*
D03*
X211453Y274697D02*
D03*
X215390Y266823D02*
D03*
X211453Y258949D02*
D03*
X215390Y251075D02*
D03*
X211453Y243201D02*
D03*
X215390Y235327D02*
D03*
X203579Y369185D02*
D03*
Y290445D02*
D03*
X207516Y282571D02*
D03*
X203579Y274697D02*
D03*
X207516Y266823D02*
D03*
X203579Y258949D02*
D03*
X207516Y251075D02*
D03*
X203579Y243201D02*
D03*
X207516Y235327D02*
D03*
X199642Y361311D02*
D03*
X195705Y353437D02*
D03*
Y290445D02*
D03*
X199642Y282571D02*
D03*
X195705Y274697D02*
D03*
X199642Y266823D02*
D03*
X195705Y258949D02*
D03*
X199642Y251075D02*
D03*
X195705Y243201D02*
D03*
X199642Y235327D02*
D03*
X187831Y353437D02*
D03*
X183894Y377059D02*
D03*
Y361311D02*
D03*
X179957Y353437D02*
D03*
X183894Y219579D02*
D03*
X179957Y6981D02*
D03*
X176020Y377059D02*
D03*
Y251075D02*
D03*
X172083Y6981D02*
D03*
X168146Y361311D02*
D03*
X164209Y353437D02*
D03*
X156335D02*
D03*
X160272Y345563D02*
D03*
Y329815D02*
D03*
X140587Y321941D02*
D03*
X136650Y125091D02*
D03*
X132713Y117217D02*
D03*
X136650Y93595D02*
D03*
Y62099D02*
D03*
X132713Y38476D02*
D03*
X136650Y30602D02*
D03*
X132713Y6981D02*
D03*
X124839Y369185D02*
D03*
X128776Y188083D02*
D03*
X124839Y117217D02*
D03*
Y38476D02*
D03*
X128776Y30602D02*
D03*
X124839Y6981D02*
D03*
X116965Y164461D02*
D03*
X120902Y125091D02*
D03*
X116965Y6981D02*
D03*
X109091Y290445D02*
D03*
X113028Y125091D02*
D03*
Y77847D02*
D03*
Y62099D02*
D03*
Y46350D02*
D03*
X109091Y22728D02*
D03*
X113028Y14854D02*
D03*
X109091Y6981D02*
D03*
X101217Y290445D02*
D03*
Y69973D02*
D03*
Y54225D02*
D03*
Y6981D02*
D03*
X93343Y290445D02*
D03*
Y85721D02*
D03*
Y69973D02*
D03*
Y54225D02*
D03*
X97280Y46350D02*
D03*
Y30602D02*
D03*
X93343Y22728D02*
D03*
Y6981D02*
D03*
X89406Y30602D02*
D03*
X61847Y258949D02*
D03*
X57910Y377059D02*
D03*
X53973Y369185D02*
D03*
X57910Y361311D02*
D03*
X53973Y353437D02*
D03*
X57910Y345563D02*
D03*
X53973Y337689D02*
D03*
X57910Y329815D02*
D03*
X53973Y321941D02*
D03*
X57910Y314067D02*
D03*
X53973Y306193D02*
D03*
X57910Y298319D02*
D03*
X53973Y290445D02*
D03*
X57910Y282571D02*
D03*
X53973Y274697D02*
D03*
X57910Y266823D02*
D03*
X53973Y258949D02*
D03*
X57910Y251075D02*
D03*
X53973Y243201D02*
D03*
X57910Y235327D02*
D03*
X53973Y227453D02*
D03*
X57910Y219579D02*
D03*
X53973Y211705D02*
D03*
X57910Y203831D02*
D03*
X53973Y195957D02*
D03*
X57910Y188083D02*
D03*
X53973Y180209D02*
D03*
X57910Y172335D02*
D03*
X53973Y164461D02*
D03*
X57910Y156587D02*
D03*
X53973Y148713D02*
D03*
X57910Y140839D02*
D03*
X53973Y132965D02*
D03*
X57910Y125091D02*
D03*
X53973Y117217D02*
D03*
X57910Y109343D02*
D03*
X53973Y101469D02*
D03*
X57910Y93595D02*
D03*
X53973Y85721D02*
D03*
X57910Y77847D02*
D03*
X53973Y69973D02*
D03*
X57910Y62099D02*
D03*
X53973Y54225D02*
D03*
X57910Y46350D02*
D03*
X53973Y38476D02*
D03*
X57910Y30602D02*
D03*
X53973Y22728D02*
D03*
X57910Y14854D02*
D03*
D89*
X258906Y174701D02*
X260623Y176418D01*
X179983Y170123D02*
X184560Y174701D01*
X258906D01*
X260623Y176418D02*
Y220100D01*
X264303Y223781D01*
X261076Y255320D02*
X264303Y252093D01*
Y223781D02*
Y252093D01*
X177247Y49205D02*
X179983Y51940D01*
X173574Y49205D02*
X177247D01*
X179983Y51940D02*
Y170123D01*
X260963Y255207D02*
X261076Y255320D01*
M02*
